0
SECTION
2
HEADER
9
$INSUNITS
70
4
0
ENDSEC
0
SECTION
2
ENTITIES
0
CIRCLE
8
0
10
76.39437268410977
20
76.39437268410977
40
5
0
ARC
8
0
10
152.38600530654162
20
75.66403221124561
40
0.15
50
0
51
82.56859202882656
0
ARC
8
0
10
152.49428038097747
20
76.80881513201074
40
1
50
-114.37698324006327
51
-95.09884377611888
0
ARC
8
0
10
152.32974536821953
20
76.39437268410978
40
0.555
50
-179.99999999999855
51
-116.56505117707604
0
ARC
8
0
10
152.32974536821953
20
76.39437268410975
40
0.555
50
116.56505117707604
51
179.99999999999855
0
ARC
8
0
10
152.49428038097747
20
75.9799302362088
40
1
50
95.09884377611888
51
114.37698324006327
0
ARC
8
0
10
152.38600530654162
20
77.12471315697393
40
0.15
50
-82.56859202882656
51
0
0
ARC
8
0
10
76.39913482762319
20
76.39443502398206
40
76.14037268410976
50
0.5495441505846426
51
0.9504558494170966
0
ARC
8
0
10
152.3790829567806
20
77.65351151967327
40
0.15
50
1.4999999999983684
51
84.06859202882461
0
ARC
8
0
10
152.45735400471204
20
78.80073646294959
40
1
50
-112.87698324006296
51
-93.59884377611758
0
ARC
8
0
10
152.30372421252892
20
78.38212900960079
40
0.555
50
-178.4999999999999
51
-115.06505117707613
0
ARC
8
0
10
152.30372421252892
20
78.38212900960077
40
0.555
50
118.06505117707522
51
-178.50000000000134
0
ARC
8
0
10
152.4790516817826
20
77.97213560529957
40
1
50
96.59884377611829
51
115.87698324006126
0
ARC
8
0
10
152.34084678716994
20
79.1136919265228
40
0.15
50
-81.0685920288259
51
1.4999999999983684
0
ARC
8
0
10
76.39913156388786
20
76.39455966100509
40
76.14037268410976
50
2.0495441505840497
51
2.45045584941653
0
ARC
8
0
10
152.32008448211963
20
79.64212787723845
40
0.15
50
3.000000000000344
51
85.56859202883655
0
ARC
8
0
10
152.3682978604802
20
80.79100859235498
40
1
50
-111.3769832400632
51
-92.09884377612111
0
ARC
8
0
10
152.22567857905747
20
80.36852302619697
40
0.555
50
-177.00000000000006
51
-113.56505117707715
0
ARC
8
0
10
152.22567857905747
20
80.36852302619697
40
0.555
50
119.56505117707886
51
-177.00000000000006
0
ARC
8
0
10
152.41167834411732
20
79.96325965449522
40
1
50
98.09884377611979
51
117.37698324006402
0
ARC
8
0
10
152.24363834805908
20
81.100807010496
40
0.15
50
-79.5685920288268
51
3.000000000000344
0
ARC
8
0
10
76.39912503865358
20
76.39468416989075
40
76.14037268410976
50
3.5495441505780234
51
3.9504558494104938
0
ARC
8
0
10
152.2090503171663
20
81.62851838562325
40
0.15
50
4.50000000000243
51
87.06859202882798
0
ARC
8
0
10
152.22717298291468
20
82.77826748712575
40
1
50
-109.87698324006172
51
-90.5988437761168
0
ARC
8
0
10
152.09566195638385
20
82.35219335866194
40
0.555
50
-175.49999999999753
51
-112.06505117707489
0
ARC
8
0
10
152.09566195638385
20
82.3521933586619
40
0.555
50
121.06505117707457
51
-175.50000000000048
0
ARC
8
0
10
152.2922065423018
20
81.95193776683122
40
1
50
99.59884377611982
51
118.8769832400641
0
ARC
8
0
10
152.09444661101753
20
83.0846965394735
40
0.15
50
-78.06859202882353
51
4.500000000007841
0
ARC
8
0
10
76.39911525639401
20
76.39480846528254
40
76.14037268410976
50
5.049544150584871
51
5.4504558494173345
0
ARC
8
0
10
152.04605655919084
20
83.61132167199564
40
0.15
50
6.0000000000008455
51
88.5685920288252
0
ARC
8
0
10
152.03407609195727
20
84.76115117928117
40
1
50
-108.37698324006139
51
-89.09884377611749
0
ARC
8
0
10
151.9137634514068
20
84.33178049843632
40
0.555
50
-174.00000000000009
51
-110.5650511770749
0
ARC
8
0
10
151.9137634514068
20
84.3317804984363
40
0.555
50
122.56505117707573
51
-174.0000000000016
0
ARC
8
0
10
152.1207181563412
20
83.93680700166608
40
1
50
101.09884377611687
51
120.37698324006186
0
ARC
8
0
10
151.8933738246095
20
85.06400085466967
40
0.15
50
-76.5685920288203
51
6.0000000000008455
0
ARC
8
0
10
76.39910222381162
20
76.39493246202125
40
76.14037268410976
50
6.549544150584477
51
6.950455849416955
0
ARC
8
0
10
151.83121491597333
20
85.58917882202638
40
0.15
50
7.499999999995991
51
90.06859202882244
0
ARC
8
0
10
151.7891395265716
20
86.73830069938592
40
1
50
-106.87698324006008
51
-87.59884377611809
0
ARC
8
0
10
151.6801077282756
20
86.30592773537714
40
0.555
50
-172.49999999999957
51
-109.06505117707704
0
ARC
8
0
10
151.6801077282756
20
86.30592773537714
40
0.555
50
124.06505117707766
51
-172.49999999999957
0
ARC
8
0
10
151.8973307158094
20
85.91650702877273
40
1
50
102.59884377612
51
121.87698324006425
0
ARC
8
0
10
151.6405577940791
20
87.03736343977535
40
0.15
50
-75.06859202883197
51
7.500000000002789
0
ARC
8
0
10
76.39908594983935
20
76.39505607511363
40
76.14037268410976
50
8.049544150586012
51
8.450455849418463
0
ARC
8
0
10
151.5646726292445
20
87.56073431122097
40
0.15
50
9.000000000000846
51
91.56859202882818
0
ARC
8
0
10
151.4925311540448
20
88.7083610079197
40
1
50
-105.376983240062
51
-86.09884377611965
0
ARC
8
0
10
151.39485492295148
20
88.27328208757903
40
0.555
50
-171.00000000000026
51
-107.56505117707636
0
ARC
8
0
10
151.39485492295148
20
88.27328208757902
40
0.555
50
125.56505117707684
51
-171.0000000000017
0
ARC
8
0
10
151.6221973192995
20
87.8896810606407
40
1
50
104.09884377611698
51
123.37698324006172
0
ARC
8
0
10
151.33617178690506
20
89.00343185064631
40
0.15
50
-73.56859202882066
51
9.000000000000846
0
ARC
8
0
10
76.39906644562973
20
76.39517921984697
40
76.14037268410976
50
9.549544150585229
51
9.950455849417708
0
ARC
8
0
10
151.24661237377353
20
89.52463693392858
40
0.15
50
10.500000000006153
51
93.06859202882217
0
ARC
8
0
10
151.1444542549394
20
90.66998192395381
40
1
50
-103.87698324006415
51
-84.59884377612042
0
ARC
8
0
10
151.05820053345857
20
90.23249522864057
40
0.555
50
-169.49999999999974
51
-106.06505117708063
0
ARC
8
0
10
151.05820053345855
20
90.2324952286406
40
0.555
50
127.06505117708035
51
-169.49999999999633
0
ARC
8
0
10
151.2955065294983
20
89.8549767823509
40
1
50
105.59884377611534
51
124.87698324006074
0
ARC
8
0
10
150.98042441405238
20
90.9608586422011
40
0.15
50
-72.06859202881898
51
10.500000000006153
0
ARC
8
0
10
76.39904372455015
20
76.39530181182222
40
76.14037268410976
50
11.04954415058353
51
11.450455849415993
0
ARC
8
0
10
150.8772521321721
20
91.4795407293907
40
0.15
50
12.00000000000069
51
94.56859202883116
0
ARC
8
0
10
150.74514738377522
20
92.62181905049752
40
1
50
-102.37698324006324
51
-83.09884377611937
0
ARC
8
0
10
150.6703752858991
20
92.18222441173972
40
0.555
50
-167.99999999999957
51
-104.56505117707857
0
ARC
8
0
10
150.6703752858991
20
92.18222441173972
40
0.555
50
128.56505117707803
51
-167.99999999999957
0
ARC
8
0
10
150.9174822439547
20
91.81104727838436
40
1
50
107.09884377611924
51
126.37698324006315
0
ARC
8
0
10
150.57355948700044
20
92.90830229189244
40
0.15
50
-70.56859202883065
51
12.00000000000069
0
ARC
8
0
10
76.39901780217372
20
76.39542376701505
40
76.14037268410976
50
12.549544150585428
51
12.950455849417905
0
ARC
8
0
10
150.45684504549973
20
93.42410590419554
40
0.15
50
13.500000000001592
51
96.0685920288245
0
ARC
8
0
10
150.29488420553596
20
94.56253469588076
40
1
50
-100.87698324006406
51
-81.59884377612033
0
ARC
8
0
10
150.23164497632547
20
94.12113338988556
40
0.555
50
-166.49999999999991
51
-103.06505117707795
0
ARC
8
0
10
150.23164497632547
20
94.12113338988556
40
0.555
50
130.06505117707738
51
-166.49999999999991
0
ARC
8
0
10
150.48838354163112
20
93.756551955731
40
1
50
108.59884377612161
51
127.87698324006465
0
ARC
8
0
10
150.1158558506468
20
94.84442811911978
40
0.15
50
-69.06859202882669
51
13.500000000001592
0
ARC
8
0
10
76.39898869626295
20
76.39554500185827
40
76.14037268410976
50
14.049544150579507
51
14.450455849411972
0
ARC
8
0
10
149.985679239774
20
95.3569997505055
40
0.15
50
15.000000000000258
51
97.56859202882971
0
ARC
8
0
10
149.79397330811284
20
96.49079879054105
40
1
50
-99.37698324006259
51
-80.0988437761191
0
ARC
8
0
10
149.74231028857685
20
96.04789333171512
40
0.555
50
-164.99999999999773
51
-101.56505117707721
0
ARC
8
0
10
149.74231028857685
20
96.0478933317151
40
0.555
50
131.56505117707815
51
-164.99999999999912
0
ARC
8
0
10
150.0085045053442
20
95.69015746266503
40
1
50
110.09884377611931
51
129.37698324006323
0
ARC
8
0
10
149.60762719220114
20
96.76790919995281
40
0.15
50
-67.56859202882902
51
15.000000000000258
0
ARC
8
0
10
76.39895642677075
20
76.39566543324239
40
76.14037268410976
50
15.54954415058216
51
15.950455849414626
0
ARC
8
0
10
149.46407762850274
20
97.27689755942849
40
0.15
50
16.499999999997875
51
99.06859202883008
0
ARC
8
0
10
149.24275799081389
20
98.40528979858688
40
1
50
-97.87698324006246
51
-78.59884377611945
0
ARC
8
0
10
149.2027065882053
20
97.96118373220806
40
0.555
50
-163.49999999999798
51
-100.06505117707356
0
ARC
8
0
10
149.2027065882053
20
97.96118373220804
40
0.555
50
133.06505117707613
51
-163.4999999999994
0
ARC
8
0
10
149.47817402021494
20
97.61053860255781
40
1
50
111.59884377611858
51
130.87698324006266
0
ARC
8
0
10
149.04922182619924
20
98.67742727653872
40
0.15
50
-66.06859202882303
51
16.499999999997875
0
ARC
8
0
10
76.3989210158092
20
76.3957849786449
40
76.14037268410976
50
17.049544150581635
51
17.450455849414087
0
ARC
8
0
10
148.8923976913758
20
99.18248352890733
40
0.15
50
17.999999999992312
51
100.56859202883504
0
ARC
8
0
10
148.64161602908374
20
100.30469562351227
40
1
50
-96.37698324006269
51
-77.09884377611898
0
ARC
8
0
10
148.6132036926334
20
99.85969331769485
40
0.555
50
-162.0000000000009
51
-98.56505117708022
0
ARC
8
0
10
148.6132036926334
20
99.85969331769485
40
0.555
50
134.56505117707889
51
-162.0000000000009
0
ARC
8
0
10
148.89775554826727
20
99.51637924210122
40
1
50
113.09884377612185
51
132.37698324006396
0
ARC
8
0
10
148.44102245578605
20
100.5716736605704
40
0.15
50
-64.56859202883072
51
17.999999999992312
0
ARC
8
0
10
76.39888248764905
20
76.39590355612889
40
76.14037268410976
50
18.549544150582992
51
18.950455849415476
0
ARC
8
0
10
148.27103122926601
20
101.07245166550467
40
0.15
50
19.500000000001254
51
102.06859202882724
0
ARC
8
0
10
147.99095941559528
20
102.18771450744231
40
1
50
-94.87698324006233
51
-75.59884377611962
0
ARC
8
0
10
147.97420561769928
20
101.74212094453833
40
0.555
50
-160.49999999999963
51
-97.06505117707847
0
ARC
8
0
10
147.97420561769928
20
101.74212094453833
40
0.555
50
136.06505117707812
51
-160.49999999999963
0
ARC
8
0
10
148.26764687932925
20
101.40637321331978
40
1
50
114.5988437761187
51
133.87698324006297
0
ARC
8
0
10
147.78344591042983
20
102.44935013019594
40
0.15
50
-63.06859202881867
51
19.500000000001254
0
ARC
8
0
10
76.39884086869415
20
76.39602108443182
40
76.14037268410976
50
20.049544150582676
51
20.450455849415146
0
ARC
8
0
10
147.60040409570863
20
102.94550667946572
40
0.15
50
21.00000000000543
51
103.56859202882625
0
ARC
8
0
10
147.29123407789038
20
104.05305592329279
40
1
50
-93.37698324006327
51
-74.09884377611849
0
ARC
8
0
10
147.28615030076492
20
103.60717649087239
40
0.555
50
-158.99999999999875
51
-95.56505117707769
0
ARC
8
0
10
147.28615030076492
20
103.60717649087239
40
0.555
50
137.56505117707783
51
-158.99999999999875
0
ARC
8
0
10
147.58827985840796
20
103.27922520875292
40
1
50
116.09884377611692
51
135.37698324006175
0
ARC
8
0
10
147.07694286024807
20
104.3091698197551
40
0.15
50
-61.56859202882289
51
21.00000000000543
0
ARC
8
0
10
76.39879618746902
20
76.39613748300272
40
76.14037268410976
50
21.54954415058299
51
21.950455849415444
0
ARC
8
0
10
146.88097590504233
20
104.8003648724451
40
0.15
50
22.499999999997918
51
105.06859202882148
0
ARC
8
0
10
146.5429195727634
20
105.89944145923319
40
1
50
-91.87698324006084
51
-72.59884377611658
0
ARC
8
0
10
146.5495093005754
20
105.45358174078717
40
0.555
50
-157.4999999999998
51
-94.06505117707464
0
ARC
8
0
10
146.5495093005754
20
105.45358174078714
40
0.555
50
139.06505117707246
51
-157.5000000000025
0
ARC
8
0
10
146.8601200897245
20
105.13365166919402
40
1
50
117.5988437761178
51
136.87698324006192
0
ARC
8
0
10
146.32199750714074
20
106.1498581017327
40
0.15
50
-60.06859202881661
51
22.50000000000293
0
ARC
8
0
10
76.39874847459492
20
76.39625267207033
40
76.14037268410976
50
23.049544150581877
51
23.450455849414343
0
ARC
8
0
10
146.11323971741282
20
106.63575501728955
40
0.15
50
24.000000000002586
51
106.56859202883003
0
ARC
8
0
10
145.74652875759708
20
107.72560569484618
40
1
50
-90.37698324006254
51
-71.09884377611829
0
ARC
8
0
10
145.76478747407626
20
107.28007126035439
40
0.555
50
-155.99999999999793
51
-92.56505117707594
0
ARC
8
0
10
145.76478747407626
20
107.28007126035439
40
0.555
50
140.56505117707644
51
-155.99999999999793
0
ARC
8
0
10
146.08366661761175
20
106.96838166337773
40
1
50
119.09884377611485
51
138.37698324005936
0
ARC
8
0
10
145.51912725294252
20
107.97015346032475
40
0.15
50
-58.56859202883149
51
23.99999999999763
0
ARC
8
0
10
76.39869776277673
20
76.39636657267899
40
76.14037268410976
50
24.54954415058829
51
24.95045584942079
0
ARC
8
0
10
145.29772170085377
20
108.4504192292736
40
0.15
50
25.50000000000573
51
108.06859202882656
0
ARC
8
0
10
144.90260743887544
20
109.53029706838363
40
1
50
-88.8769832400614
51
-69.59884377611742
0
ARC
8
0
10
144.93252263040964
20
109.08539326489252
40
0.555
50
-154.49999999999957
51
-91.06505117708072
0
ARC
8
0
10
144.9325226304096
20
109.08539326489253
40
0.555
50
142.06505117707937
51
-154.499999999997
0
ARC
8
0
10
145.25945158449494
20
108.7821577590129
40
1
50
120.59884377611493
51
139.87698324005967
0
ARC
8
0
10
144.6688823448213
20
109.7688083560182
40
0.15
50
-57.068592028817854
51
25.50000000000573
0
ARC
8
0
10
76.39864408675808
20
76.39647910679233
40
76.14037268410976
50
26.049544150581195
51
26.450455849413665
0
ARC
8
0
10
144.43498077067775
20
110.24311382819087
40
0.15
50
26.999999999994024
51
109.56859202883267
0
ARC
8
0
10
144.0117339981156
20
111.31227873452448
40
1
50
-87.37698324006116
51
-68.09884377611871
0
ARC
8
0
10
144.05328516232674
20
110.8683104768775
40
0.555
50
-152.99999999999878
51
-89.56505117707698
0
ARC
8
0
10
144.05328516232674
20
110.8683104768775
40
0.555
50
143.56505117707724
51
-152.99999999999878
0
ARC
8
0
10
144.38803986618734
20
110.57373688456379
40
1
50
122.09884377612171
51
141.37698324006507
0
ARC
8
0
10
143.77184549816653
20
111.54459008059243
40
0.15
50
-55.5685920288292
51
26.999999999998863
0
ARC
8
0
10
76.39858748333788
20
76.39659019725937
40
76.14037268410976
50
27.549544150581923
51
27.950455849414386
0
ARC
8
0
10
143.5256082064234
20
112.0126101907103
40
0.15
50
28.49999999999886
51
111.06859202883001
0
ARC
8
0
10
143.0745189954737
20
113.07032941204666
40
1
50
-85.87698324006163
51
-66.5988437761182
0
ARC
8
0
10
143.1276776552694
20
112.62760097391092
40
0.555
50
-151.5
51
-88.0650511770771
0
ARC
8
0
10
143.1276776552694
20
112.62760097391092
40
0.555
50
145.06505117707775
51
-151.5
0
ARC
8
0
10
143.4700286847525
20
112.34189118118887
40
1
50
123.59884377611827
51
142.87698324006166
0
ARC
8
0
10
142.82863149722485
20
113.2962816019556
40
0.15
50
-54.068592028823545
51
28.49999999999886
0
ARC
8
0
10
76.39852799130553
20
76.39669976795241
40
76.14037268410976
50
29.04954415058373
51
29.450455849416194
0
ARC
8
0
10
142.5702272466221
20
113.75769559241337
40
0.15
50
30.0000000000004
51
112.56859202882309
0
ARC
8
0
10
142.0916047512976
20
114.80324422083244
40
1
50
-84.37698324006077
51
-65.09884377611704
0
ARC
8
0
10
142.15633447438776
20
114.36205902616464
40
0.555
50
-150.00000000000023
51
-86.56505117707641
0
ARC
8
0
10
142.15633447438776
20
114.36205902616463
40
0.555
50
146.56505117707553
51
-150.0000000000015
0
ARC
8
0
10
142.50604719919863
20
114.08540884425477
40
1
50
125.09884377612075
51
144.3769832400641
0
ARC
8
0
10
141.83988677375794
20
115.02268239823798
40
0.15
50
-52.56859202882529
51
30.0000000000004
0
ARC
8
0
10
76.3984656514325
20
76.39680774377985
40
76.14037268410976
50
30.549544150584367
51
30.950455849416834
0
ARC
8
0
10
141.56949266166134
20
115.47717403893472
40
0.15
50
31.50000000000804
51
114.06859202882755
0
ARC
8
0
10
141.0636649059127
20
116.50983550763291
40
1
50
-82.87698324006537
51
-63.59884377612103
0
ARC
8
0
10
141.13992132977836
20
116.07049592272779
40
0.555
50
-148.49999999999957
51
-85.06505117707736
0
ARC
8
0
10
141.13992132977836
20
116.07049592272779
40
0.555
50
148.06505117707806
51
-148.49999999999957
0
ARC
8
0
10
141.49675607428392
20
115.80309495384573
40
1
50
126.5988437761208
51
145.87698324006408
0
ARC
8
0
10
140.80628896401035
20
116.72260928056942
40
0.15
50
-51.068592028830544
51
31.49999999999774
0
ARC
8
0
10
76.39840050644447
20
76.39691405073854
40
76.14037268410976
50
32.04954415058544
51
32.45045584941791
0
ARC
8
0
10
140.52409030503782
20
117.16986708563698
40
0.15
50
32.999999999995985
51
115.56859202882004
0
ARC
8
0
10
139.99140395794208
20
118.18893366002621
40
1
50
-81.37698324006263
51
-62.09884377611879
0
ARC
8
0
10
140.07913482023955
20
117.75174078628976
40
0.555
50
-147.00000000000017
51
-83.56505117707788
0
ARC
8
0
10
140.07913482023955
20
117.75174078628976
40
0.555
50
149.56505117707758
51
-147.00000000000017
0
ARC
8
0
10
140.44284702773015
20
117.49377229370258
40
1
50
128.09884377611584
51
147.3769832400597
0
ARC
8
0
10
139.72854644429154
20
118.394897203978
40
0.15
50
-49.5685920288274
51
32.999999999995985
0
ARC
8
0
10
76.39833260098624
20
76.39701861597463
40
76.14037268410976
50
33.54954415058371
51
33.9504558494162
0
ARC
8
0
10
139.43473664330784
20
118.83461464525782
40
0.15
50
34.500000000003254
51
117.06859202882814
0
ARC
8
0
10
138.87555678147905
20
119.83938790801152
40
1
50
-79.8769832400632
51
-60.59884377611963
0
ARC
8
0
10
138.97470195585746
20
119.40464137560113
40
0.555
50
-145.49999999999832
51
-82.06505117707455
0
ARC
8
0
10
138.97470195585746
20
119.40464137560113
40
0.555
50
151.06505117707636
51
-145.49999999999832
0
ARC
8
0
10
139.345042356154
20
119.15628215802788
40
1
50
129.59884377611658
51
148.87698324005984
0
ARC
8
0
10
138.60739784549006
20
120.03840006585368
40
0.15
50
-48.06859202882448
51
34.500000000003254
0
ARC
8
0
10
76.39826198160097
20
76.39712136781779
40
76.14037268410976
50
35.04954415058505
51
35.45045584941754
0
ARC
8
0
10
138.30217826505663
20
120.47027578297586
40
0.15
50
36.000000000003574
51
118.56859202883031
0
ARC
8
0
10
137.71688812244037
20
121.46006711268929
40
1
50
-78.37698324005967
51
-59.09884377611747
0
ARC
8
0
10
137.82737965974974
20
121.0280648751622
40
0.555
50
-144.00000000000063
51
-80.56505117707682
0
ARC
8
0
10
137.82737965974974
20
121.0280648751622
40
0.555
50
152.56505117707783
51
-144.00000000000063
0
ARC
8
0
10
138.20409444004073
20
120.7894851456048
40
1
50
131.09884377611695
51
150.3769832400607
0
ARC
8
0
10
137.4436115468529
20
121.65199149142971
40
0.15
50
-46.56859202882313
51
36.00000000000797
0
ARC
8
0
10
76.39818869668154
20
76.3972222358559
40
76.14037268410976
50
36.54954415058131
51
36.95045584941378
0
ARC
8
0
10
137.12719136922414
20
122.07572949835044
40
0.15
50
37.49999999999545
51
120.06859202883506
0
ARC
8
0
10
136.51619207444833
20
123.04986054148738
40
1
50
-76.87698324006168
51
-57.59884377611834
0
ARC
8
0
10
136.63795424930805
20
122.6208986715982
40
0.555
50
-142.49999999999955
51
-79.06505117707736
0
ARC
8
0
10
136.63795424930805
20
122.62089867159821
40
0.555
50
154.06505117707968
51
-142.4999999999984
0
ARC
8
0
10
137.02078522810044
20
122.39226194068593
40
1
50
132.59884377611624
51
151.87698324006018
0
ARC
8
0
10
136.23798514937675
20
123.23456560574374
40
0.15
50
-45.06859202883019
51
37.49999999999976
0
ARC
8
0
10
76.39811279646347
20
76.39732115094583
40
76.14037268410976
50
38.049544150584836
51
38.45045584941729
0
ARC
8
0
10
135.91058123313687
20
123.64987549359918
40
0.15
50
39.00000000000177
51
121.56859202883084
0
ARC
8
0
10
135.27429153459804
20
124.60767862940163
40
1
50
-75.37698324006139
51
-56.098843776118265
0
ARC
8
0
10
135.40724089729565
20
124.18205111618884
40
0.555
50
-141.0000000000024
51
-77.5650511770764
0
ARC
8
0
10
135.40724089729565
20
124.18205111618884
40
0.555
50
155.5650511770764
51
-141.0000000000024
0
ARC
8
0
10
135.7959257013594
20
123.96351408011645
40
1
50
134.09884377611613
51
153.37698324006084
0
ARC
8
0
10
134.99134492917207
20
124.78503779154909
40
0.15
50
-43.568592028820305
51
39.000000000006
0
ARC
8
0
10
76.39803433295535
20
76.39741804530894
40
76.14037268410976
50
39.549544150583564
51
39.95045584941603
0
ARC
8
0
10
134.653181660611
20
125.19163492768737
40
0.15
50
40.50000000000118
51
123.06859202881886
0
ARC
8
0
10
133.99203763948523
20
126.1324537257294
40
1
50
-73.87698324006556
51
-54.598843776121115
0
ARC
8
0
10
134.13608307316844
20
125.71045227303
40
0.555
50
-139.49999999999824
51
-76.0650511770756
0
ARC
8
0
10
134.13608307316846
20
125.71045227302999
40
0.555
50
157.06505117707619
51
-139.50000000000125
0
ARC
8
0
10
134.53035531735412
20
125.50216470616581
40
1
50
135.59884377611786
51
154.87698324006138
0
ARC
8
0
10
133.70454527117468
20
126.30234543265748
40
0.15
50
-42.068592028821826
51
40.50000000000118
0
ARC
8
0
10
76.39795335993571
20
76.3975128525338
40
76.14037268410976
50
41.04954415058203
51
41.4504558494145
0
ARC
8
0
10
133.35585441050515
20
126.69995115571146
40
0.15
50
42.000000000001094
51
124.56859202882617
0
ARC
8
0
10
132.6703091818795
20
127.62314082578379
40
1
50
-72.3769832400634
51
-53.098843776119814
0
ARC
8
0
10
132.8253519650034
20
127.20505465231402
40
0.555
50
-137.9999999999997
51
-74.56505117707513
0
ARC
8
0
10
132.82535196500342
20
127.20505465231399
40
0.555
50
158.5650511770753
51
-138.00000000000384
0
ARC
8
0
10
133.22494143480915
20
127.0071593045522
40
1
50
137.09884377611846
51
156.3769832400634
0
ARC
8
0
10
132.37846808359313
20
127.7854486422029
40
0.15
50
-40.56859202882366
51
42.000000000001094
0
ARC
8
0
10
76.39786993290451
20
76.39760550763876
40
76.14037268410976
50
42.54954415058589
51
42.95045584941836
0
ARC
8
0
10
132.0194886061135
20
128.1737904530708
40
0.15
50
43.500000000007184
51
126.06859202883447
0
ARC
8
0
10
131.31001200844398
20
129.07871828708792
40
1
50
-70.87698324006269
51
-51.59884377612005
0
ARC
8
0
10
131.47594588242953
20
128.6648339282272
40
0.555
50
-136.49999999999892
51
-73.06505117707445
0
ARC
8
0
10
131.47594588242956
20
128.66483392822718
40
0.555
50
160.0650511770741
51
-136.50000000000307
0
ARC
8
0
10
131.8805787191927
20
128.477466427154
40
1
50
138.59884377612008
51
157.8769832400636
0
ARC
8
0
10
131.01402219349276
20
129.23333097532813
40
0.15
50
-39.068592028839795
51
43.500000000007184
0
ARC
8
0
10
76.39778410903074
20
76.39769594713133
40
76.14037268410976
50
44.04954415058637
51
44.45045584941884
0
ARC
8
0
10
130.64500012580544
20
129.61214272393093
40
0.15
50
45.00000000000768
51
127.56859202883942
0
ARC
8
0
10
129.9120783989129
20
130.49818852955755
40
1
50
-69.37698324006125
51
-50.09884377611892
0
ARC
8
0
10
130.08878964097153
20
130.08878964097147
40
0.555
50
-135.00000000000415
51
-71.56505117707707
0
ARC
8
0
10
130.0887896409715
20
130.0887896409715
40
0.555
50
161.5650511770771
51
-135
0
ARC
8
0
10
130.49818852955758
20
129.91207839891288
40
1
50
140.0988437761189
51
159.37698324006126
0
ARC
8
0
10
129.61214272393096
20
130.6450001258054
40
0.15
50
-37.56859202883941
51
44.99999999999232
0
ARC
8
0
10
76.39769594713306
20
76.39778410902906
40
76.14037268410976
50
45.549544150582946
51
45.95045584941543
0
ARC
8
0
10
129.23333097532813
20
131.01402219349274
40
0.15
50
46.49999999999283
51
129.0685920288398
0
ARC
8
0
10
128.477466427154
20
131.88057871919267
40
1
50
-67.87698324006361
51
-48.59884377612008
0
ARC
8
0
10
128.6648339282272
20
131.47594588242953
40
0.555
50
-133.50000000000108
51
-70.06505117707687
0
ARC
8
0
10
128.6648339282272
20
131.47594588242953
40
0.555
50
163.06505117707727
51
-133.50000000000108
0
ARC
8
0
10
129.07871828708792
20
131.31001200844395
40
1
50
141.59884377612005
51
160.8769832400627
0
ARC
8
0
10
128.1737904530708
20
132.01948860611347
40
0.15
50
-36.068592028834466
51
46.49999999999283
0
ARC
8
0
10
76.3976055076362
20
76.39786993290687
40
76.14037268410976
50
47.04954415057902
51
47.4504558494115
0
ARC
8
0
10
127.7854486422029
20
132.37846808359313
40
0.15
50
47.999999999998906
51
130.56859202882367
0
ARC
8
0
10
127.0071593045522
20
133.22494143480915
40
1
50
-66.3769832400634
51
-47.09884377611842
0
ARC
8
0
10
127.20505465231399
20
132.82535196500342
40
0.555
50
-131.99999999999616
51
-68.56505117707529
0
ARC
8
0
10
127.20505465231402
20
132.8253519650034
40
0.555
50
164.5650511770751
51
-132.0000000000003
0
ARC
8
0
10
127.62314082578379
20
132.6703091818795
40
1
50
143.09884377611985
51
162.3769832400634
0
ARC
8
0
10
126.69995115571146
20
133.35585441050515
40
0.15
50
-34.56859202882617
51
47.999999999998906
0
ARC
8
0
10
76.3975128525321
20
76.39795335993722
40
76.14037268410976
50
48.5495441505838
51
48.950455849416294
0
ARC
8
0
10
126.30234543265746
20
133.7045452711747
40
0.15
50
49.49999999999883
51
132.06859202882185
0
ARC
8
0
10
125.5021647061658
20
134.53035531735415
40
1
50
-64.87698324006139
51
-45.59884377611784
0
ARC
8
0
10
125.71045227302994
20
134.1360830731685
40
0.555
50
-130.49999999999463
51
-67.06505117707347
0
ARC
8
0
10
125.71045227302999
20
134.13608307316846
40
0.555
50
166.0650511770756
51
-130.49999999999986
0
ARC
8
0
10
126.13245372572939
20
133.99203763948526
40
1
50
144.59884377612113
51
163.87698324006556
0
ARC
8
0
10
125.19163492768736
20
134.65318166061104
40
0.15
50
-33.06859202881887
51
49.49999999999883
0
ARC
8
0
10
76.39741804530897
20
76.39803433295535
40
76.14037268410976
50
50.04954415058401
51
50.45045584941644
0
ARC
8
0
10
124.7850377915491
20
134.99134492917207
40
0.15
50
50.99999999999401
51
133.5685920288203
0
ARC
8
0
10
123.96351408011647
20
135.7959257013594
40
1
50
-63.37698324006083
51
-44.09884377611612
0
ARC
8
0
10
124.18205111618886
20
135.40724089729565
40
0.555
50
-128.99999999999764
51
-65.5650511770764
0
ARC
8
0
10
124.18205111618886
20
135.40724089729565
40
0.555
50
167.5650511770764
51
-128.99999999999764
0
ARC
8
0
10
124.60767862940165
20
135.27429153459804
40
1
50
146.09884377611826
51
165.3769832400614
0
ARC
8
0
10
123.6498754935992
20
135.91058123313687
40
0.15
50
-31.56859202883084
51
50.999999999998224
0
ARC
8
0
10
76.39732115094642
20
76.39811279646304
40
76.14037268410976
50
51.54954415058325
51
51.95045584941572
0
ARC
8
0
10
123.23456560574374
20
136.23798514937675
40
0.15
50
52.50000000000025
51
135.06859202883018
0
ARC
8
0
10
122.39226194068593
20
137.02078522810044
40
1
50
-61.876983240060184
51
-42.59884377611626
0
ARC
8
0
10
122.62089867159821
20
136.63795424930805
40
0.555
50
-127.5000000000016
51
-64.06505117707967
0
ARC
8
0
10
122.6208986715982
20
136.63795424930805
40
0.555
50
169.06505117707735
51
-127.50000000000044
0
ARC
8
0
10
123.04986054148738
20
136.51619207444833
40
1
50
147.59884377611834
51
166.87698324006166
0
ARC
8
0
10
122.07572949835044
20
137.12719136922414
40
0.15
50
-30.06859202883504
51
52.500000000004555
0
ARC
8
0
10
76.39722223585551
20
76.39818869668184
40
76.14037268410976
50
53.04954415058585
51
53.45045584941832
0
ARC
8
0
10
121.65199149142971
20
137.4436115468529
40
0.15
50
53.999999999992035
51
136.56859202882313
0
ARC
8
0
10
120.7894851456048
20
138.20409444004073
40
1
50
-60.37698324006072
51
-41.098843776116944
0
ARC
8
0
10
121.0280648751622
20
137.82737965974974
40
0.555
50
-125.99999999999936
51
-62.56505117707784
0
ARC
8
0
10
121.0280648751622
20
137.82737965974974
40
0.555
50
170.56505117707684
51
-125.99999999999936
0
ARC
8
0
10
121.46006711268929
20
137.71688812244037
40
1
50
149.09884377611746
51
168.3769832400597
0
ARC
8
0
10
120.47027578297586
20
138.30217826505663
40
0.15
50
-28.568592028830306
51
53.999999999996426
0
ARC
8
0
10
76.39712136781739
20
76.39826198160125
40
76.14037268410976
50
54.5495441505821
51
54.95045584941458
0
ARC
8
0
10
120.03840006585368
20
138.60739784549006
40
0.15
50
55.499999999996746
51
138.0685920288245
0
ARC
8
0
10
119.15628215802788
20
139.345042356154
40
1
50
-58.876983240059864
51
-39.598843776116574
0
ARC
8
0
10
119.40464137560113
20
138.97470195585746
40
0.555
50
-124.50000000000173
51
-61.065051177076356
0
ARC
8
0
10
119.40464137560113
20
138.97470195585746
40
0.555
50
172.06505117707457
51
-124.50000000000173
0
ARC
8
0
10
119.83938790801152
20
138.87555678147905
40
1
50
150.59884377611965
51
169.87698324006323
0
ARC
8
0
10
118.83461464525782
20
139.43473664330784
40
0.15
50
-27.06859202882815
51
55.499999999996746
0
ARC
8
0
10
76.39701861597428
20
76.39833260098646
40
76.14037268410976
50
56.04954415058349
51
56.450455849415974
0
ARC
8
0
10
118.394897203978
20
139.72854644429154
40
0.15
50
57.000000000004015
51
139.5685920288274
0
ARC
8
0
10
117.49377229370258
20
140.44284702773015
40
1
50
-57.37698324005969
51
-38.098843776115835
0
ARC
8
0
10
117.75174078628976
20
140.07913482023955
40
0.555
50
-122.99999999999983
51
-59.56505117707756
0
ARC
8
0
10
117.75174078628976
20
140.07913482023955
40
0.555
50
173.56505117707786
51
-122.99999999999983
0
ARC
8
0
10
118.18893366002621
20
139.99140395794205
40
1
50
152.09884377611738
51
171.37698324006107
0
ARC
8
0
10
117.16986708563698
20
140.52409030503782
40
0.15
50
-25.568592028820035
51
57.000000000004015
0
ARC
8
0
10
76.3969140507381
20
76.39840050644474
40
76.14037268410976
50
57.5495441505817
51
57.950455849414176
0
ARC
8
0
10
116.72260928056942
20
140.80628896401035
40
0.15
50
58.50000000000226
51
141.06859202883055
0
ARC
8
0
10
115.80309495384573
20
141.49675607428392
40
1
50
-55.87698324006408
51
-36.5988437761208
0
ARC
8
0
10
116.07049592272776
20
141.13992132977836
40
0.555
50
-121.49999999999642
51
-58.065051177075574
0
ARC
8
0
10
116.07049592272779
20
141.13992132977833
40
0.555
50
175.06505117707445
51
-121.50000000000045
0
ARC
8
0
10
116.50983550763291
20
141.0636649059127
40
1
50
153.59884377612104
51
172.87698324006539
0
ARC
8
0
10
115.47717403893472
20
141.56949266166134
40
0.15
50
-24.068592028827542
51
58.49999999999196
0
ARC
8
0
10
76.39680774377855
20
76.39846565143328
40
76.14037268410976
50
59.04954415058204
51
59.45045584941449
0
ARC
8
0
10
115.02268239823799
20
141.83988677375794
40
0.15
50
59.999999999999595
51
142.5685920288253
0
ARC
8
0
10
114.08540884425479
20
142.50604719919863
40
1
50
-54.37698324006411
51
-35.098843776120745
0
ARC
8
0
10
114.36205902616464
20
142.15633447438776
40
0.555
50
-119.9999999999985
51
-56.5650511770755
0
ARC
8
0
10
114.36205902616466
20
142.15633447438776
40
0.555
50
176.5650511770764
51
-119.99999999999976
0
ARC
8
0
10
114.80324422083245
20
142.0916047512976
40
1
50
155.09884377611704
51
174.37698324006075
0
ARC
8
0
10
113.75769559241338
20
142.5702272466221
40
0.15
50
-22.568592028823083
51
59.999999999999595
0
ARC
8
0
10
76.39669976795273
20
76.39852799130536
40
76.14037268410976
50
60.54954415058406
51
60.95045584941654
0
ARC
8
0
10
113.2962816019556
20
142.82863149722485
40
0.15
50
61.50000000000115
51
144.06859202882353
0
ARC
8
0
10
112.34189118118887
20
143.4700286847525
40
1
50
-52.87698324006166
51
-33.598843776118265
0
ARC
8
0
10
112.62760097391092
20
143.1276776552694
40
0.555
50
-118.50000000000001
51
-55.065051177077734
0
ARC
8
0
10
112.62760097391092
20
143.1276776552694
40
0.555
50
178.06505117707707
51
-118.50000000000001
0
ARC
8
0
10
113.07032941204666
20
143.0745189954737
40
1
50
156.5988437761182
51
175.87698324006163
0
ARC
8
0
10
112.0126101907103
20
143.5256082064234
40
0.15
50
-21.06859202883
51
61.50000000000115
0
ARC
8
0
10
76.39659019725889
20
76.39858748333813
40
76.14037268410976
50
62.049544150585206
51
62.450455849417665
0
ARC
8
0
10
111.54459008059243
20
143.77184549816653
40
0.15
50
63.000000000001144
51
145.5685920288292
0
ARC
8
0
10
110.57373688456379
20
144.38803986618734
40
1
50
-51.37698324006507
51
-32.098843776121726
0
ARC
8
0
10
110.8683104768775
20
144.05328516232674
40
0.555
50
-116.99999999999993
51
-53.56505117707724
0
ARC
8
0
10
110.8683104768775
20
144.05328516232674
40
0.555
50
179.56505117707698
51
-116.99999999999993
0
ARC
8
0
10
111.31227873452448
20
144.0117339981156
40
1
50
158.0988437761187
51
177.37698324006115
0
ARC
8
0
10
110.24311382819087
20
144.43498077067775
40
0.15
50
-19.568592028832676
51
63.00000000000598
0
ARC
8
0
10
76.39647910679098
20
76.39864408675875
40
76.14037268410976
50
63.549544150585206
51
63.950455849417665
0
ARC
8
0
10
109.76880835601821
20
144.6688823448213
40
0.15
50
64.49999999999427
51
147.06859202881785
0
ARC
8
0
10
108.78215775901292
20
145.25945158449494
40
1
50
-49.87698324005966
51
-30.598843776114947
0
ARC
8
0
10
109.08539326489253
20
144.9325226304096
40
0.555
50
-115.50000000000043
51
-52.065051177078196
0
ARC
8
0
10
109.08539326489253
20
144.9325226304096
40
0.555
50
-178.93494882292222
51
-115.50000000000043
0
ARC
8
0
10
109.53029706838365
20
144.90260743887544
40
1
50
159.59884377611743
51
178.8769832400614
0
ARC
8
0
10
108.45041922927362
20
145.29772170085377
40
0.15
50
-18.068592028826554
51
64.49999999999427
0
ARC
8
0
10
76.39636657267943
20
76.39869776277654
40
76.14037268410976
50
65.04954415057958
51
65.45045584941207
0
ARC
8
0
10
107.97015346032475
20
145.51912725294252
40
0.15
50
66.00000000000237
51
148.56859202883152
0
ARC
8
0
10
106.96838166337773
20
146.08366661761175
40
1
50
-48.37698324005937
51
-29.09884377611487
0
ARC
8
0
10
107.28007126035439
20
145.7647874740763
40
0.555
50
-113.99999999999955
51
-50.56505117707832
0
ARC
8
0
10
107.28007126035439
20
145.7647874740763
40
0.555
50
-177.43494882292114
51
-113.99999999999955
0
ARC
8
0
10
107.72560569484618
20
145.74652875759708
40
1
50
161.0988437761183
51
-179.62301675993746
0
ARC
8
0
10
106.63575501728955
20
146.11323971741282
40
0.15
50
-16.56859202883003
51
65.9999999999974
0
ARC
8
0
10
76.39625267206986
20
76.39874847459512
40
76.14037268410976
50
66.54954415058528
51
66.95045584941775
0
ARC
8
0
10
106.1498581017327
20
146.32199750714074
40
0.15
50
67.49999999999707
51
150.06859202881662
0
ARC
8
0
10
105.13365166919401
20
146.8601200897245
40
1
50
-46.87698324006132
51
-27.59884377611741
0
ARC
8
0
10
105.45358174078714
20
146.54950930057544
40
0.555
50
-112.49999999999504
51
-49.06505117707439
0
ARC
8
0
10
105.45358174078717
20
146.5495093005754
40
0.555
50
-175.93494882292538
51
-112.49999999999888
0
ARC
8
0
10
105.89944145923319
20
146.5429195727634
40
1
50
162.59884377611658
51
-178.1230167599392
0
ARC
8
0
10
104.8003648724451
20
146.88097590504233
40
0.15
50
-15.068592028821497
51
67.50000000000209
0
ARC
8
0
10
76.39613748300147
20
76.39879618746951
40
76.14037268410976
50
68.04954415058356
51
68.45045584941599
0
ARC
8
0
10
104.30916981975511
20
147.07694286024807
40
0.15
50
68.99999999999457
51
151.56859202882288
0
ARC
8
0
10
103.27922520875293
20
147.58827985840796
40
1
50
-45.376983240061726
51
-26.09884377611691
0
ARC
8
0
10
103.6071764908724
20
147.28615030076492
40
0.555
50
-111.00000000000126
51
-47.56505117707782
0
ARC
8
0
10
103.6071764908724
20
147.28615030076492
40
0.555
50
-174.4349488229223
51
-111.00000000000126
0
ARC
8
0
10
104.0530559232928
20
147.29123407789038
40
1
50
164.09884377611849
51
-176.62301675993672
0
ARC
8
0
10
102.94550667946574
20
147.60040409570863
40
0.15
50
-13.568592028826254
51
68.99999999999457
0
ARC
8
0
10
76.39602108443137
20
76.39884086869432
40
76.14037268410976
50
69.54954415058448
51
69.95045584941695
0
ARC
8
0
10
102.44935013019595
20
147.78344591042983
40
0.15
50
70.49999999999875
51
153.06859202881867
0
ARC
8
0
10
101.4063732133198
20
148.26764687932925
40
1
50
-43.87698324006297
51
-24.59884377611871
0
ARC
8
0
10
101.74212094453833
20
147.97420561769925
40
0.555
50
-109.49999999999899
51
-46.06505117707504
0
ARC
8
0
10
101.74212094453834
20
147.97420561769925
40
0.555
50
-172.93494882292444
51
-109.50000000000037
0
ARC
8
0
10
102.18771450744232
20
147.99095941559528
40
1
50
165.59884377611962
51
-175.12301675993768
0
ARC
8
0
10
101.07245166550469
20
148.27103122926601
40
0.15
50
-12.068592028827235
51
70.49999999999875
0
ARC
8
0
10
76.39590355612904
20
76.39888248764899
40
76.14037268410976
50
71.04954415058464
51
71.45045584941714
0
ARC
8
0
10
100.5716736605704
20
148.44102245578605
40
0.15
50
72.0000000000077
51
154.56859202883072
0
ARC
8
0
10
99.51637924210122
20
148.89775554826727
40
1
50
-42.37698324006394
51
-23.098843776121853
0
ARC
8
0
10
99.85969331769485
20
148.6132036926334
40
0.555
50
-107.99999999999913
51
-44.56505117707888
0
ARC
8
0
10
99.85969331769485
20
148.6132036926334
40
0.555
50
-171.4349488229198
51
-107.99999999999913
0
ARC
8
0
10
100.30469562351227
20
148.64161602908374
40
1
50
167.09884377611897
51
-173.62301675993731
0
ARC
8
0
10
99.18248352890733
20
148.8923976913758
40
0.15
50
-10.568592028835033
51
72.0000000000077
0
ARC
8
0
10
76.39578497864497
20
76.39892101580918
40
76.14037268410976
50
72.54954415058596
51
72.95045584941843
0
ARC
8
0
10
98.67742727653871
20
149.04922182619924
40
0.15
50
73.50000000000213
51
156.06859202882305
0
ARC
8
0
10
97.6105386025578
20
149.47817402021494
40
1
50
-40.87698324006264
51
-21.598843776118574
0
ARC
8
0
10
97.96118373220803
20
149.2027065882053
40
0.555
50
-106.50000000000061
51
-43.065051177076136
0
ARC
8
0
10
97.96118373220804
20
149.2027065882053
40
0.555
50
-169.93494882292646
51
-106.50000000000203
0
ARC
8
0
10
98.40528979858686
20
149.24275799081389
40
1
50
168.59884377611945
51
-172.12301675993754
0
ARC
8
0
10
97.27689755942848
20
149.46407762850274
40
0.15
50
-9.06859202883008
51
73.50000000000213
0
ARC
8
0
10
76.39566543324132
20
76.39895642677105
40
76.14037268410976
50
74.04954415058457
51
74.45045584941701
0
ARC
8
0
10
96.76790919995281
20
149.60762719220114
40
0.15
50
74.99999999999974
51
157.568592028829
0
ARC
8
0
10
95.69015746266503
20
150.0085045053442
40
1
50
-39.37698324006321
51
-20.098843776119306
0
ARC
8
0
10
96.0478933317151
20
149.74231028857685
40
0.555
50
-105.00000000000088
51
-41.565051177078146
0
ARC
8
0
10
96.04789333171512
20
149.74231028857685
40
0.555
50
-168.43494882292282
51
-105.00000000000229
0
ARC
8
0
10
96.49079879054105
20
149.79397330811284
40
1
50
170.09884377611914
51
-170.62301675993743
0
ARC
8
0
10
95.3569997505055
20
149.985679239774
40
0.15
50
-7.568592028829701
51
74.99999999999974
0
ARC
8
0
10
76.3955450018578
20
76.39898869626307
40
76.14037268410976
50
75.54954415058766
51
75.95045584942014
0
ARC
8
0
10
94.84442811911978
20
150.1158558506468
40
0.15
50
76.49999999999841
51
159.06859202882669
0
ARC
8
0
10
93.756551955731
20
150.48838354163112
40
1
50
-37.876983240064625
51
-18.598843776121612
0
ARC
8
0
10
94.12113338988556
20
150.23164497632547
40
0.555
50
-103.50000000000009
51
-40.065051177077386
0
ARC
8
0
10
94.12113338988556
20
150.23164497632547
40
0.555
50
-166.93494882292208
51
-103.50000000000009
0
ARC
8
0
10
94.56253469588076
20
150.29488420553596
40
1
50
171.59884377612033
51
-169.12301675993595
0
ARC
8
0
10
93.42410590419554
20
150.45684504549973
40
0.15
50
-6.068592028824502
51
76.49999999999841
0
ARC
8
0
10
76.3954237670141
20
76.39901780217393
40
76.14037268410976
50
77.04954415058135
51
77.45045584941383
0
ARC
8
0
10
92.90830229189245
20
150.57355948700044
40
0.15
50
77.9999999999993
51
160.56859202883066
0
ARC
8
0
10
91.81104727838438
20
150.9174822439547
40
1
50
-36.37698324006315
51
-17.098843776119228
0
ARC
8
0
10
92.18222441173974
20
150.6703752858991
40
0.555
50
-102.00000000000043
51
-38.56505117707804
0
ARC
8
0
10
92.18222441173974
20
150.6703752858991
40
0.555
50
-165.4349488229214
51
-102.00000000000043
0
ARC
8
0
10
92.62181905049754
20
150.74514738377522
40
1
50
173.09884377611937
51
-167.62301675993677
0
ARC
8
0
10
91.47954072939072
20
150.8772521321721
40
0.15
50
-4.568592028831165
51
77.9999999999993
0
ARC
8
0
10
76.39530181182205
20
76.3990437245502
40
76.14037268410976
50
78.54954415058386
51
78.95045584941634
0
ARC
8
0
10
90.9608586422011
20
150.98042441405238
40
0.15
50
79.49999999999385
51
162.06859202881898
0
ARC
8
0
10
89.8549767823509
20
151.2955065294983
40
1
50
-34.876983240060724
51
-15.598843776115336
0
ARC
8
0
10
90.2324952286406
20
151.05820053345855
40
0.555
50
-100.5000000000037
51
-37.06505117708035
0
ARC
8
0
10
90.23249522864057
20
151.05820053345857
40
0.555
50
-163.93494882291938
51
-100.50000000000026
0
ARC
8
0
10
90.66998192395381
20
151.1444542549394
40
1
50
174.5988437761204
51
-166.12301675993587
0
ARC
8
0
10
89.52463693392858
20
151.24661237377353
40
0.15
50
-3.0685920288221595
51
79.49999999999385
0
ARC
8
0
10
76.3951792198461
20
76.39906644562988
40
76.14037268410976
50
80.04954415058162
51
80.4504558494141
0
ARC
8
0
10
89.00343185064632
20
151.33617178690506
40
0.15
50
80.99999999999916
51
163.56859202882066
0
ARC
8
0
10
87.88968106064071
20
151.6221973192995
40
1
50
-33.37698324006172
51
-14.098843776116988
0
ARC
8
0
10
88.27328208757903
20
151.39485492295148
40
0.555
50
-98.99999999999973
51
-35.56505117707683
0
ARC
8
0
10
88.27328208757905
20
151.39485492295148
40
0.555
50
-162.43494882292367
51
-99.00000000000121
0
ARC
8
0
10
88.70836100791972
20
151.4925311540448
40
1
50
176.09884377611965
51
-164.623016759938
0
ARC
8
0
10
87.56073431122098
20
151.5646726292445
40
0.15
50
-1.5685920288281754
51
80.99999999999916
0
ARC
8
0
10
76.3950560751133
20
76.39908594983939
40
76.14037268410976
50
81.54954415058128
51
81.95045584941373
0
ARC
8
0
10
87.03736343977535
20
151.6405577940791
40
0.15
50
82.4999999999972
51
165.06859202883197
0
ARC
8
0
10
85.91650702877273
20
151.8973307158094
40
1
50
-31.876983240064245
51
-12.598843776120006
0
ARC
8
0
10
86.30592773537714
20
151.6801077282756
40
0.555
50
-97.49999999999898
51
-34.06505117707764
0
ARC
8
0
10
86.30592773537714
20
151.6801077282756
40
0.555
50
-160.93494882292296
51
-97.49999999999898
0
ARC
8
0
10
86.73830069938592
20
151.7891395265716
40
1
50
177.59884377611806
51
-163.12301675993996
0
ARC
8
0
10
85.58917882202638
20
151.83121491597333
40
0.15
50
-0.0685920288224377
51
82.50000000000401
0
ARC
8
0
10
76.39493246202075
20
76.3991022238117
40
76.14037268410976
50
83.04954415058266
51
83.45045584941514
0
ARC
8
0
10
85.06400085466967
20
151.8933738246095
40
0.15
50
83.99999999999915
51
166.5685920288203
0
ARC
8
0
10
83.93680700166608
20
152.1207181563412
40
1
50
-30.376983240061858
51
-11.098843776116869
0
ARC
8
0
10
84.3317804984363
20
151.9137634514068
40
0.555
50
-95.99999999999845
51
-32.56505117707572
0
ARC
8
0
10
84.33178049843632
20
151.9137634514068
40
0.555
50
-159.4349488229251
51
-95.99999999999991
0
ARC
8
0
10
84.76115117928117
20
152.03407609195727
40
1
50
179.09884377611746
51
-161.62301675993862
0
ARC
8
0
10
83.61132167199564
20
152.04605655919084
40
0.15
50
1.4314079711747907
51
83.99999999999915
0
ARC
8
0
10
76.39480846528201
20
76.39911525639407
40
76.14037268410976
50
84.54954415058226
51
84.95045584941474
0
ARC
8
0
10
83.0846965394735
20
152.09444661101753
40
0.15
50
85.49999999999217
51
168.06859202882353
0
ARC
8
0
10
81.95193776683122
20
152.2922065423018
40
1
50
-28.876983240064103
51
-9.598843776119818
0
ARC
8
0
10
82.3521933586619
20
152.09566195638385
40
0.555
50
-94.49999999999807
51
-31.06505117707455
0
ARC
8
0
10
82.35219335866194
20
152.09566195638385
40
0.555
50
-157.93494882292512
51
-94.50000000000098
0
ARC
8
0
10
82.77826748712575
20
152.22717298291468
40
1
50
-179.40115622388322
51
-160.12301675993828
0
ARC
8
0
10
81.62851838562325
20
152.2090503171663
40
0.15
50
2.931407971172032
51
85.49999999999757
0
ARC
8
0
10
76.39468416989014
20
76.39912503865362
40
76.14037268410976
50
86.04954415058904
51
86.45045584942152
0
ARC
8
0
10
81.10080701049601
20
152.24363834805908
40
0.15
50
86.99999999999967
51
169.5685920288268
0
ARC
8
0
10
79.96325965449523
20
152.41167834411732
40
1
50
-27.376983240064014
51
-8.09884377611979
0
ARC
8
0
10
80.36852302619698
20
152.22567857905747
40
0.555
50
-92.99999999999997
51
-29.56505117707884
0
ARC
8
0
10
80.36852302619698
20
152.22567857905747
40
0.555
50
-156.43494882292288
51
-92.99999999999997
0
ARC
8
0
10
80.791008592355
20
152.3682978604802
40
1
50
-177.9011562238789
51
-158.62301675993683
0
ARC
8
0
10
79.64212787723847
20
152.32008448211963
40
0.15
50
4.431407971163452
51
86.99999999999967
0
ARC
8
0
10
76.39455966100475
20
76.39913156388786
40
76.14037268410976
50
87.54954415058322
51
87.95045584941569
0
ARC
8
0
10
79.1136919265228
20
152.34084678716994
40
0.15
50
88.50000000000163
51
171.06859202882592
0
ARC
8
0
10
77.97213560529957
20
152.4790516817826
40
1
50
-25.876983240061257
51
-6.598843776118296
0
ARC
8
0
10
78.38212900960077
20
152.30372421252892
40
0.555
50
-91.49999999999866
51
-28.06505117707523
0
ARC
8
0
10
78.38212900960079
20
152.30372421252892
40
0.555
50
-154.93494882292387
51
-91.50000000000014
0
ARC
8
0
10
78.80073646294959
20
152.45735400471204
40
1
50
-176.40115622388242
51
-157.12301675993706
0
ARC
8
0
10
77.65351151967327
20
152.3790829567806
40
0.15
50
5.931407971175394
51
88.50000000000163
0
ARC
8
0
10
76.39443502398152
20
76.39913482762319
40
76.14037268410976
50
89.0495441505825
51
89.45045584941495
0
ARC
8
0
10
77.12471315697393
20
152.38600530654162
40
0.15
50
90
51
172.56859202882657
0
ARC
8
0
10
75.9799302362088
20
152.49428038097747
40
1
50
-24.376983240063275
51
-5.098843776118869
0
ARC
8
0
10
76.39437268410975
20
152.32974536821953
40
0.555
50
-89.99999999999854
51
-26.565051177076022
0
ARC
8
0
10
76.39437268410978
20
152.32974536821953
40
0.555
50
-153.43494882292399
51
-90.00000000000146
0
ARC
8
0
10
76.80881513201074
20
152.49428038097747
40
1
50
-174.90115622388115
51
-155.62301675993675
0
ARC
8
0
10
75.66403221124561
20
152.38600530654162
40
0.15
50
7.431407971173444
51
90
0
ARC
8
0
10
76.39431034423748
20
76.39913482762319
40
76.14037268410976
50
90.54954415058464
51
90.95045584941711
0
ARC
8
0
10
75.13523384854626
20
152.3790829567806
40
0.15
50
91.49999999999837
51
174.06859202882464
0
ARC
8
0
10
73.98800890526995
20
152.45735400471204
40
1
50
-22.87698324006295
51
-3.5988437761175756
0
ARC
8
0
10
74.40661635861875
20
152.30372421252892
40
0.555
50
-88.49999999999989
51
-25.065051177076125
0
ARC
8
0
10
74.40661635861876
20
152.30372421252892
40
0.555
50
-151.93494882292478
51
-88.50000000000135
0
ARC
8
0
10
74.81660976291997
20
152.4790516817826
40
1
50
-173.4011562238817
51
-154.12301675993876
0
ARC
8
0
10
73.67505344169673
20
152.34084678716994
40
0.15
50
8.931407971174096
51
91.49999999999837
0
ARC
8
0
10
76.39418570721448
20
76.39913156388786
40
76.14037268410976
50
92.04954415058408
51
92.45045584941654
0
ARC
8
0
10
73.1466174909811
20
152.32008448211963
40
0.15
50
93.00000000000036
51
175.56859202883655
0
ARC
8
0
10
71.99773677586457
20
152.3682978604802
40
1
50
-21.376983240063183
51
-2.098843776121107
0
ARC
8
0
10
72.42022234202258
20
152.22567857905747
40
0.555
50
-87.00000000000003
51
-23.565051177077137
0
ARC
8
0
10
72.42022234202258
20
152.22567857905747
40
0.555
50
-150.43494882292117
51
-87.00000000000003
0
ARC
8
0
10
72.82548571372433
20
152.41167834411732
40
1
50
-171.9011562238802
51
-152.623016759936
0
ARC
8
0
10
71.68793835772355
20
152.24363834805908
40
0.15
50
10.431407971173199
51
93.00000000000036
0
ARC
8
0
10
76.39406119832876
20
76.39912503865358
40
76.14037268410976
50
93.549544150578
51
93.95045584941046
0
ARC
8
0
10
71.1602269825963
20
152.2090503171663
40
0.15
50
94.50000000000243
51
177.06859202882796
0
ARC
8
0
10
70.0104778810938
20
152.22717298291468
40
1
50
-19.876983240061712
51
-0.5988437761167984
0
ARC
8
0
10
70.43655200955762
20
152.09566195638385
40
0.555
50
-85.49999999999902
51
-22.06505117707489
0
ARC
8
0
10
70.43655200955764
20
152.09566195638385
40
0.555
50
-148.93494882292543
51
-85.50000000000195
0
ARC
8
0
10
70.83680760138833
20
152.2922065423018
40
1
50
-170.4011562238802
51
-151.12301675993592
0
ARC
8
0
10
69.70404882874605
20
152.09444661101753
40
0.15
50
11.931407971176471
51
94.50000000000786
0
ARC
8
0
10
76.39393690293699
20
76.39911525639401
40
76.14037268410976
50
95.04954415058485
51
95.45045584941731
0
ARC
8
0
10
69.17742369622391
20
152.04605655919084
40
0.15
50
96.00000000000085
51
178.5685920288252
0
ARC
8
0
10
68.02759418893838
20
152.03407609195727
40
1
50
-18.376983240061396
51
0.9011562238825107
0
ARC
8
0
10
68.45696486978323
20
151.91376345140682
40
0.555
50
-84.00000000000011
51
-20.56505117707765
0
ARC
8
0
10
68.45696486978323
20
151.91376345140682
40
0.555
50
-147.43494882292103
51
-84.00000000000011
0
ARC
8
0
10
68.85193836655347
20
152.1207181563412
40
1
50
-168.90115622388313
51
-149.62301675993814
0
ARC
8
0
10
67.72474451354988
20
151.8933738246095
40
0.15
50
13.431407971179693
51
96.00000000000085
0
ARC
8
0
10
76.39381290619455
20
76.3991022238112
40
76.14037268410976
50
96.54954415058162
51
96.9504558494141
0
ARC
8
0
10
67.19956654619318
20
151.83121491597336
40
0.15
50
97.49999999999599
51
-179.93140797117758
0
ARC
8
0
10
66.05044466883365
20
151.78913952657163
40
1
50
-16.876983240060067
51
2.4011562238819177
0
ARC
8
0
10
66.48281763284243
20
151.68010772827563
40
0.555
50
-82.50000000000104
51
-19.065051177077038
0
ARC
8
0
10
66.48281763284243
20
151.68010772827563
40
0.555
50
-145.93494882292237
51
-82.50000000000104
0
ARC
8
0
10
66.87223833944684
20
151.89733071580943
40
1
50
-167.40115622388
51
-148.12301675993578
0
ARC
8
0
10
65.75138192844422
20
151.64055779407911
40
0.15
50
14.931407971168039
51
97.5000000000028
0
ARC
8
0
10
76.3936892931091
20
76.39908594983983
40
76.14037268410976
50
98.04954415058843
51
98.45045584942092
0
ARC
8
0
10
65.22801105699855
20
151.5646726292445
40
0.15
50
99.00000000000085
51
-178.43140797117184
0
ARC
8
0
10
64.08038436029982
20
151.4925311540448
40
1
50
-15.376983240062014
51
3.9011562238803523
0
ARC
8
0
10
64.51546328064049
20
151.39485492295148
40
0.555
50
-81.00000000000026
51
-17.56505117707635
0
ARC
8
0
10
64.5154632806405
20
151.39485492295148
40
0.555
50
-144.4349488229232
51
-81.0000000000017
0
ARC
8
0
10
64.89906430757883
20
151.6221973192995
40
1
50
-165.90115622388302
51
-146.62301675993828
0
ARC
8
0
10
63.78531351757322
20
151.33617178690506
40
0.15
50
16.431407971180118
51
99.00000000000352
0
ARC
8
0
10
76.39356614837293
20
76.39906644562978
40
76.14037268410976
50
99.54954415058552
51
99.95045584941799
0
ARC
8
0
10
63.26410843429095
20
151.24661237377353
40
0.15
50
100.50000000000081
51
-176.9314079711777
0
ARC
8
0
10
62.118763444265724
20
151.14445425493938
40
1
50
-13.876983240062454
51
5.401156223881249
0
ARC
8
0
10
62.55625013957897
20
151.05820053345857
40
0.555
50
-79.5000000000012
51
-16.06505117708063
0
ARC
8
0
10
62.55625013957894
20
151.05820053345857
40
0.555
50
-142.93494882291773
51
-79.4999999999983
0
ARC
8
0
10
62.93376858586863
20
151.2955065294983
40
1
50
-164.40115622388467
51
-145.12301675993902
0
ARC
8
0
10
61.82788672601843
20
150.98042441405238
40
0.15
50
17.931407971181013
51
100.50000000000081
0
ARC
8
0
10
76.39344355639777
20
76.39904372455024
40
76.14037268410976
50
101.04954415058387
51
101.45045584941633
0
ARC
8
0
10
61.30920463882885
20
150.8772521321721
40
0.15
50
102.00000000000068
51
-175.43140797117988
0
ARC
8
0
10
60.16692631772203
20
150.74514738377522
40
1
50
-12.37698324006323
51
6.90115622388226
0
ARC
8
0
10
60.60652095647983
20
150.6703752858991
40
0.555
50
-77.99999999999957
51
-14.565051177078583
0
ARC
8
0
10
60.60652095647983
20
150.6703752858991
40
0.555
50
-141.43494882292197
51
-77.99999999999957
0
ARC
8
0
10
60.97769808983519
20
150.9174822439547
40
1
50
-162.9011562238808
51
-143.62301675993686
0
ARC
8
0
10
59.88044307632712
20
150.57355948700044
40
0.15
50
19.43140797117026
51
102.00000000000068
0
ARC
8
0
10
76.39332160120111
20
76.39901780217295
40
76.14037268410976
50
102.5495441505828
51
102.95045584941528
0
ARC
8
0
10
59.364639464024016
20
150.45684504549976
40
0.15
50
103.4999999999963
51
-173.93140797117553
0
ARC
8
0
10
58.226210672338816
20
150.29488420553594
40
1
50
-10.876983240060852
51
8.40115622388301
0
ARC
8
0
10
58.667611978334016
20
150.2316449763255
40
0.555
50
-76.50000000000064
51
-13.065051177077953
0
ARC
8
0
10
58.66761197833401
20
150.2316449763255
40
0.555
50
-139.93494882292262
51
-76.49999999999991
0
ARC
8
0
10
59.03219341248858
20
150.48838354163112
40
1
50
-161.40115622388006
51
-142.12301675993714
0
ARC
8
0
10
57.94431724909978
20
150.11585585064682
40
0.15
50
20.931407971172344
51
103.4999999999963
0
ARC
8
0
10
76.39320036636398
20
76.39898869626364
40
76.14037268410976
50
104.04954415058158
51
104.4504558494141
0
ARC
8
0
10
57.43174561771405
20
149.985679239774
40
0.15
50
105.00000000000026
51
-172.43140797117067
0
ARC
8
0
10
56.29794657767849
20
149.79397330811284
40
1
50
-9.376983240062513
51
9.901156223880898
0
ARC
8
0
10
56.740852036504435
20
149.74231028857685
40
0.555
50
-75.00000000000055
51
-11.56505117707735
0
ARC
8
0
10
56.740852036504435
20
149.74231028857685
40
0.555
50
-138.43494882292185
51
-75.00000000000055
0
ARC
8
0
10
57.09858790555452
20
150.00850450534418
40
1
50
-159.90115622388225
51
-140.6230167599383
0
ARC
8
0
10
56.02083616826673
20
149.60762719220114
40
0.15
50
22.43140797117099
51
105.00000000000026
0
ARC
8
0
10
76.39307993497744
20
76.39895642677082
40
76.14037268410976
50
105.54954415058238
51
105.95045584941485
0
ARC
8
0
10
55.51184780879106
20
149.46407762850274
40
0.15
50
106.49999999999788
51
-170.93140797117036
0
ARC
8
0
10
54.383455569632666
20
149.24275799081389
40
1
50
-7.876983240062455
51
11.401156223880559
0
ARC
8
0
10
54.827561636011495
20
149.2027065882053
40
0.555
50
-73.49999999999939
51
-10.065051177073682
0
ARC
8
0
10
54.82756163601151
20
149.2027065882053
40
0.555
50
-136.93494882292438
51
-73.5000000000008
0
ARC
8
0
10
55.17820676566175
20
149.4781740202149
40
1
50
-158.4011562238831
51
-139.12301675993913
0
ARC
8
0
10
54.11131809168083
20
149.04922182619924
40
0.15
50
23.931407971176966
51
106.50000000000048
0
ARC
8
0
10
76.39296038957437
20
76.39892101580911
40
76.14037268410976
50
107.04954415058141
51
107.45045584941388
0
ARC
8
0
10
53.60626183931222
20
148.8923976913758
40
0.15
50
107.9999999999949
51
-169.431407971165
0
ARC
8
0
10
52.484049744707264
20
148.64161602908374
40
1
50
-6.376983240062683
51
12.90115622388093
0
ARC
8
0
10
52.92905205052469
20
148.61320369263336
40
0.555
50
-71.99999999999858
51
-8.565051177077322
0
ARC
8
0
10
52.92905205052469
20
148.61320369263336
40
0.555
50
-135.43494882292325
51
-71.99999999999858
0
ARC
8
0
10
53.27236612611831
20
148.89775554826727
40
1
50
-156.90115622387816
51
-137.6230167599358
0
ARC
8
0
10
52.21707170764914
20
148.44102245578605
40
0.15
50
25.431407971170447
51
107.9999999999949
0
ARC
8
0
10
76.39284181209096
20
76.39888248764915
40
76.14037268410976
50
108.54954415058324
51
108.95045584941572
0
ARC
8
0
10
51.71629370271485
20
148.27103122926601
40
0.15
50
109.49999999999613
51
-167.9314079711728
0
ARC
8
0
10
50.60103086077722
20
147.99095941559528
40
1
50
-4.876983240062349
51
14.401156223880482
0
ARC
8
0
10
51.04662442368119
20
147.97420561769925
40
0.555
50
-70.49999999999893
51
-7.065051177075468
0
ARC
8
0
10
51.046624423681216
20
147.97420561769925
40
0.555
50
-133.93494882292552
51
-70.50000000000169
0
ARC
8
0
10
51.38237215489975
20
148.26764687932925
40
1
50
-155.4011562238815
51
-136.12301675993731
0
ARC
8
0
10
50.33939523802359
20
147.78344591042983
40
0.15
50
26.931407971182555
51
109.50000000000125
0
ARC
8
0
10
76.39272428378837
20
76.39884086869439
40
76.14037268410976
50
110.04954415058322
51
110.45045584941566
0
ARC
8
0
10
49.84323868875381
20
147.60040409570863
40
0.15
50
111.00000000000037
51
-166.43140797117312
0
ARC
8
0
10
48.73568944492675
20
147.29123407789038
40
1
50
-3.3769832400632804
51
15.901156223881522
0
ARC
8
0
10
49.18156887734714
20
147.28615030076492
40
0.555
50
-68.99999999999874
51
-5.5650511770776125
0
ARC
8
0
10
49.181568877347146
20
147.28615030076492
40
0.555
50
-132.43494882292163
51
-68.99999999999942
0
ARC
8
0
10
49.509520159466625
20
147.58827985840796
40
1
50
-153.9011562238831
51
-134.62301675993828
0
ARC
8
0
10
48.47957554846444
20
147.07694286024807
40
0.15
50
28.43140797117582
51
111.00000000000037
0
ARC
8
0
10
76.39260788521581
20
76.3987961874686
40
76.14037268410976
50
111.54954415058218
51
111.95045584941462
0
ARC
8
0
10
47.988380495774436
20
146.88097590504233
40
0.15
50
112.50000000000043
51
-164.9314079711778
0
ARC
8
0
10
46.88930390898635
20
146.54291957276342
40
1
50
-1.8769832400624493
51
17.401156223881753
0
ARC
8
0
10
47.335163627432365
20
146.5495093005754
40
0.555
50
-67.49999999999979
51
-4.065051177074634
0
ARC
8
0
10
47.3351636274324
20
146.5495093005754
40
0.555
50
-130.93494882292757
51
-67.50000000000317
0
ARC
8
0
10
47.65509369902553
20
146.8601200897245
40
1
50
-152.4011562238824
51
-133.1230167599384
0
ARC
8
0
10
46.63888726648684
20
146.32199750714074
40
0.15
50
29.931407971183397
51
112.50000000000544
0
ARC
8
0
10
76.39249269614996
20
76.39874847459525
40
76.14037268410976
50
113.04954415058249
51
113.45045584941496
0
ARC
8
0
10
46.15299035092998
20
146.11323971741282
40
0.15
50
113.99999999999763
51
-163.4314079711692
0
ARC
8
0
10
45.063139673373364
20
145.74652875759705
40
1
50
-0.3769832400609155
51
18.901156223883266
0
ARC
8
0
10
45.50867410786516
20
145.7647874740763
40
0.555
50
-66.00000000000047
51
-2.565051177078867
0
ARC
8
0
10
45.50867410786516
20
145.7647874740763
40
0.555
50
-129.43494882292168
51
-66.00000000000047
0
ARC
8
0
10
45.82036370484181
20
146.08366661761175
40
1
50
-150.90115622388493
51
-131.62301675994004
0
ARC
8
0
10
44.81859190789479
20
145.51912725294252
40
0.15
50
31.431407971168515
51
113.99999999999763
0
ARC
8
0
10
76.39237879553906
20
76.39869776277604
40
76.14037268410976
50
114.54954415058705
51
114.95045584941955
0
ARC
8
0
10
44.33832613894591
20
145.29772170085377
40
0.15
50
115.50000000000574
51
-161.93140797117346
0
ARC
8
0
10
43.25844829983587
20
144.90260743887546
40
1
50
1.1230167599369578
51
20.40115622388077
0
ARC
8
0
10
43.703352103327
20
144.9325226304096
40
0.555
50
-64.49999999999957
51
-1.065051177077799
0
ARC
8
0
10
43.703352103327006
20
144.9325226304096
40
0.555
50
-127.9349488229224
51
-64.50000000000026
0
ARC
8
0
10
44.00658760920661
20
145.25945158449494
40
1
50
-149.40115622388504
51
-130.12301675994036
0
ARC
8
0
10
43.01993701220131
20
144.6688823448213
40
0.15
50
32.93140797118068
51
115.50000000000819
0
ARC
8
0
10
76.39226626142836
20
76.39864408675868
40
76.14037268410976
50
116.04954415058221
51
116.45045584941467
0
ARC
8
0
10
42.54563154002867
20
144.43498077067775
40
0.15
50
117.00000000000126
51
-160.43140797116732
0
ARC
8
0
10
41.47646663369507
20
144.0117339981156
40
1
50
2.623016759938868
51
21.901156223881436
0
ARC
8
0
10
41.92043489134205
20
144.05328516232674
40
0.555
50
-62.999999999999446
51
0.4349488229230104
0
ARC
8
0
10
41.92043489134205
20
144.05328516232674
40
0.555
50
-126.43494882292278
51
-62.999999999999446
0
ARC
8
0
10
42.21500848365577
20
144.38803986618734
40
1
50
-147.9011562238785
51
-128.62301675993558
0
ARC
8
0
10
41.244155287627116
20
143.77184549816653
40
0.15
50
34.43140797116927
51
117.00000000000126
0
ARC
8
0
10
76.39215517095973
20
76.39858748333765
40
76.14037268410976
50
117.54954415058155
51
117.95045584941403
0
ARC
8
0
10
40.77613517750922
20
143.5256082064234
40
0.15
50
118.49999999999646
51
-158.93140797117002
0
ARC
8
0
10
39.71841595617286
20
143.0745189954737
40
1
50
4.123016759938374
51
23.40115622388181
0
ARC
8
0
10
40.161144394308614
20
143.1276776552694
40
0.555
50
-61.49999999999936
51
1.934948822922931
0
ARC
8
0
10
40.16114439430862
20
143.1276776552694
40
0.555
50
-124.93494882292288
51
-61.50000000000001
0
ARC
8
0
10
40.44685418703065
20
143.4700286847525
40
1
50
-146.40115622388154
51
-127.12301675993803
0
ARC
8
0
10
39.49246376626393
20
142.82863149722485
40
0.15
50
35.93140797117646
51
118.50000000000126
0
ARC
8
0
10
76.39204560026758
20
76.3985279913058
40
76.14037268410976
50
119.04954415058415
51
119.45045584941661
0
ARC
8
0
10
39.03104977580617
20
142.5702272466221
40
0.15
50
120.00000000000274
51
-157.43140797117587
0
ARC
8
0
10
37.98550114738709
20
142.09160475129764
40
1
50
5.6230167599375775
51
24.901156223881138
0
ARC
8
0
10
38.4266863420549
20
142.15633447438776
40
0.555
50
-60.00000000000024
51
3.434948822923631
0
ARC
8
0
10
38.42668634205492
20
142.15633447438776
40
0.555
50
-123.43494882292512
51
-60.000000000002146
0
ARC
8
0
10
38.70333652396479
20
142.5060471991986
40
1
50
-144.90115622388083
51
-125.62301675993783
0
ARC
8
0
10
37.766062969981576
20
141.83988677375794
40
0.15
50
37.43140797117306
51
120.00000000000041
0
ARC
8
0
10
76.39193762443577
20
76.39846565143019
40
76.14037268410976
50
120.54954415058093
51
120.95045584941342
0
ARC
8
0
10
37.311571329284796
20
141.56949266166134
40
0.15
50
121.49999999999542
51
-155.93140797117024
0
ARC
8
0
10
36.278909860586616
20
141.06366490591267
40
1
50
7.123016759936199
51
26.401156223880427
0
ARC
8
0
10
36.71824944549175
20
141.13992132977836
40
0.555
50
-58.49999999999957
51
4.9349488229226495
0
ARC
8
0
10
36.71824944549175
20
141.13992132977836
40
0.555
50
-121.93494882292258
51
-58.49999999999957
0
ARC
8
0
10
36.98565041437381
20
141.4967560742839
40
1
50
-143.40115622388052
51
-124.12301675993719
0
ARC
8
0
10
36.066136087650115
20
140.80628896401035
40
0.15
50
38.93140797116776
51
121.49999999999542
0
ARC
8
0
10
76.3918313174801
20
76.39840050644392
40
76.14037268410976
50
122.04954415058465
51
122.45045584941714
0
ARC
8
0
10
35.61887828258255
20
140.52409030503784
40
0.15
50
123.00000000000418
51
-154.4314079711702
0
ARC
8
0
10
34.599811708193315
20
139.99140395794208
40
1
50
8.623016759937359
51
27.901156223881028
0
ARC
8
0
10
35.03700458192977
20
140.07913482023955
40
0.555
50
-57.00000000000018
51
6.434948822922212
0
ARC
8
0
10
35.03700458192978
20
140.07913482023955
40
0.555
50
-120.43494882292245
51
-57.000000000000796
0
ARC
8
0
10
35.29497307451694
20
140.44284702773015
40
1
50
-141.90115622388367
51
-122.62301675993929
0
ARC
8
0
10
34.393848164241525
20
139.72854644429154
40
0.15
50
40.4314079711726
51
122.99999999999828
0
ARC
8
0
10
76.3917267522477
20
76.39833260098808
40
76.14037268410976
50
123.54954415058624
51
123.95045584941869
0
ARC
8
0
10
33.95413072296174
20
139.43473664330784
40
0.15
50
124.50000000000104
51
-152.93140797117312
0
ARC
8
0
10
32.949357460208034
20
138.87555678147902
40
1
50
10.123016759938341
51
29.40115622388179
0
ARC
8
0
10
33.384103992618435
20
138.97470195585748
40
0.555
50
-55.50000000000116
51
7.934948822922641
0
ARC
8
0
10
33.38410399261843
20
138.97470195585748
40
0.555
50
-118.93494882292158
51
-55.500000000000554
0
ARC
8
0
10
33.63246321019166
20
139.345042356154
40
1
50
-140.4011562238829
51
-121.12301675993875
0
ARC
8
0
10
32.75034530236587
20
138.60739784549006
40
0.15
50
41.93140797117552
51
124.50000000000325
0
ARC
8
0
10
76.39162400040125
20
76.39826198160061
40
76.14037268410976
50
125.0495441505846
51
125.45045584941708
0
ARC
8
0
10
32.31846958524369
20
138.30217826505663
40
0.15
50
126.00000000000578
51
-151.431407971171
0
ARC
8
0
10
31.32867825553026
20
137.71688812244037
40
1
50
11.62301675994036
51
30.90115622388263
0
ARC
8
0
10
31.76068049305735
20
137.8273796597497
40
0.555
50
-53.999999999998906
51
9.434948822926179
0
ARC
8
0
10
31.76068049305735
20
137.82737965974974
40
0.555
50
-117.4349488229225
51
-54.00000000000063
0
ARC
8
0
10
31.99926022261474
20
138.20409444004076
40
1
50
-138.90115622388186
51
-119.62301675993814
0
ARC
8
0
10
31.13675387678982
20
137.4436115468529
40
0.15
50
43.431407971175005
51
126.00000000000686
0
ARC
8
0
10
76.39152313236436
20
76.39818869668207
40
76.14037268410976
50
126.54954415058198
51
126.95045584941442
0
ARC
8
0
10
30.713015869869107
20
137.12719136922414
40
0.15
50
127.49999999999547
51
-149.93140797116632
0
ARC
8
0
10
29.738884826732157
20
136.51619207444833
40
1
50
13.123016759938247
51
32.40115622388144
0
ARC
8
0
10
30.16784669662134
20
136.63795424930805
40
0.555
50
-52.49999999999955
51
10.934948822922578
0
ARC
8
0
10
30.167846696621325
20
136.63795424930805
40
0.555
50
-115.93494882292035
51
-52.499999999998394
0
ARC
8
0
10
30.396483427533596
20
137.02078522810044
40
1
50
-137.40115622388348
51
-118.12301675993912
0
ARC
8
0
10
29.55417976247579
20
136.23798514937675
40
0.15
50
44.93140797116982
51
127.49999999999547
0
ARC
8
0
10
76.39142421727294
20
76.39811279646288
40
76.14037268410976
50
128.0495441505841
51
128.45045584941656
0
ARC
8
0
10
29.138869874620347
20
135.91058123313687
40
0.15
50
129.0000000000007
51
-148.43140797116845
0
ARC
8
0
10
28.1810667388179
20
135.27429153459804
40
1
50
14.623016759938656
51
33.90115622388173
0
ARC
8
0
10
28.606694252030678
20
135.40724089729565
40
0.555
50
-50.999999999998806
51
12.43494882292345
0
ARC
8
0
10
28.60669425203067
20
135.40724089729565
40
0.555
50
-114.4349488229216
51
-50.999999999998245
0
ARC
8
0
10
28.825231288103087
20
135.7959257013594
40
1
50
-135.90115622388387
51
-116.62301675993936
0
ARC
8
0
10
28.003707576670458
20
134.99134492917207
40
0.15
50
46.43140797118068
51
129.000000000006
0
ARC
8
0
10
76.39132732290823
20
76.39803433295339
40
76.14037268410976
50
129.54954415058126
51
129.9504558494137
0
ARC
8
0
10
27.59711044053217
20
134.65318166061104
40
0.15
50
130.50000000000117
51
-146.93140797118042
0
ARC
8
0
10
26.656291642490157
20
133.99203763948523
40
1
50
16.123016759936117
51
35.40115622388069
0
ARC
8
0
10
27.078293095189558
20
134.13608307316846
40
0.555
50
-49.50000000000068
51
13.93494882292449
0
ARC
8
0
10
27.078293095189586
20
134.1360830731685
40
0.555
50
-112.93494882292585
51
-49.50000000000482
0
ARC
8
0
10
27.286580662053726
20
134.53035531735415
40
1
50
-134.40115622388203
51
-115.12301675993808
0
ARC
8
0
10
26.486399935562062
20
133.7045452711747
40
0.15
50
47.931407971176164
51
130.50000000000014
0
ARC
8
0
10
76.39123251568785
20
76.39795335993759
40
76.14037268410976
50
131.04954415058415
51
131.4504558494166
0
ARC
8
0
10
26.088794212508073
20
133.35585441050515
40
0.15
50
132.00000000000009
51
-145.43140797117306
0
ARC
8
0
10
25.165604542435762
20
132.6703091818795
40
1
50
17.623016759936796
51
36.901156223880804
0
ARC
8
0
10
25.583690715905526
20
132.8253519650034
40
0.555
50
-47.999999999999694
51
15.43494882292487
0
ARC
8
0
10
25.583690715905547
20
132.82535196500342
40
0.555
50
-111.43494882292505
51
-48.00000000000328
0
ARC
8
0
10
25.781586063667365
20
133.22494143480915
40
1
50
-132.90115622388245
51
-113.62301675993848
0
ARC
8
0
10
25.00329672601666
20
132.37846808359313
40
0.15
50
49.4314079711784
51
132.00000000000213
0
ARC
8
0
10
76.39113986058052
20
76.39786993290427
40
76.14037268410976
50
132.54954415058563
51
132.9504558494181
0
ARC
8
0
10
24.61495491514874
20
132.01948860611347
40
0.15
50
133.49999999999972
51
-143.93140797117672
0
ARC
8
0
10
23.710027081131635
20
131.31001200844395
40
1
50
19.123016759939055
51
38.401156223882
0
ARC
8
0
10
24.12391143999233
20
131.47594588242953
40
0.555
50
-46.49999999999918
51
16.93494882292533
0
ARC
8
0
10
24.123911439992355
20
131.47594588242956
40
0.555
50
-109.93494882292555
51
-46.50000000000306
0
ARC
8
0
10
24.311278941065527
20
131.8805787191927
40
1
50
-131.40115622388006
51
-112.1230167599364
0
ARC
8
0
10
23.55541439289143
20
131.01402219349274
40
0.15
50
50.93140797117338
51
133.49999999999872
0
ARC
8
0
10
76.39104942108642
20
76.397784109029
40
76.14037268410976
50
134.0495441505845
51
134.45045584941698
0
ARC
8
0
10
23.176602644288593
20
130.6450001258054
40
0.15
50
134.99999999999616
51
-142.4314079711717
0
ARC
8
0
10
22.29055683866198
20
129.9120783989129
40
1
50
20.623016759939027
51
39.90115622388187
0
ARC
8
0
10
22.69995572724804
20
130.0887896409715
40
0.555
50
-45
51
18.434948822925374
0
ARC
8
0
10
22.699955727248046
20
130.0887896409715
40
0.555
50
-108.434948822924
51
-45.000000000000526
0
ARC
8
0
10
22.876666969306612
20
130.49818852955758
40
1
50
-129.90115622388015
51
-110.62301675993665
0
ARC
8
0
10
22.143745242414113
20
129.61214272393096
40
0.15
50
52.43140797116275
51
134.99999999999235
0
ARC
8
0
10
76.39096125919022
20
76.3976959471328
40
76.14037268410976
50
135.54954415058268
51
135.9504558494152
0
ARC
8
0
10
21.774723174726798
20
129.23333097532813
40
0.15
50
136.49999999999656
51
-140.93140797116362
0
ARC
8
0
10
20.90816664902687
20
128.47746642715398
40
1
50
22.123016759938146
51
41.401156223881955
0
ARC
8
0
10
21.312799485789995
20
128.6648339282272
40
0.555
50
-43.50000000000008
51
19.934948822922888
0
ARC
8
0
10
21.31279948579001
20
128.6648339282272
40
0.555
50
-106.93494882292448
51
-43.50000000000108
0
ARC
8
0
10
21.478733359775543
20
129.07871828708792
40
1
50
-128.4011562238795
51
-109.12301675993578
0
ARC
8
0
10
20.76925676210604
20
128.1737904530708
40
0.15
50
53.93140797116772
51
136.49999999999656
0
ARC
8
0
10
76.39087543531673
20
76.3976055076406
40
76.14037268410976
50
137.04954415058356
51
137.45045584941596
0
ARC
8
0
10
20.41027728462643
20
127.78544864220291
40
0.15
50
137.9999999999989
51
-139.43140797117283
0
ARC
8
0
10
19.56380393341041
20
127.00715930455223
40
1
50
23.62301675993562
51
42.901156223880285
0
ARC
8
0
10
19.96339340321615
20
127.20505465231402
40
0.555
50
-42.000000000000064
51
21.43494882292321
0
ARC
8
0
10
19.963393403216163
20
127.20505465231403
40
0.555
50
-105.43494882292417
51
-42.00000000000214
0
ARC
8
0
10
20.118436186340055
20
127.6231408257838
40
1
50
-126.90115622387987
51
-107.62301675993642
0
ARC
8
0
10
19.432890957714417
20
126.69995115571147
40
0.15
50
55.43140797117272
51
137.9999999999989
0
ARC
8
0
10
76.3907920082831
20
76.39751285253298
40
76.14037268410976
50
138.54954415058467
51
138.95045584941715
0
ARC
8
0
10
19.08420009704486
20
126.30234543265749
40
0.15
50
139.50000000000207
51
-137.9314079711714
0
ARC
8
0
10
18.258390050865422
20
125.50216470616581
40
1
50
25.123016759938533
51
44.40115622388187
0
ARC
8
0
10
18.652662295051076
20
125.71045227303
40
0.555
50
-40.499999999999005
51
22.934948822922184
0
ARC
8
0
10
18.652662295051076
20
125.71045227303
40
0.555
50
-103.93494882292191
51
-40.499999999999005
0
ARC
8
0
10
18.796707728734336
20
126.13245372572939
40
1
50
-125.4011562238802
51
-106.12301675993643
0
ARC
8
0
10
18.135563707608522
20
125.19163492768739
40
0.15
50
56.93140797117249
51
139.50000000000207
0
ARC
8
0
10
76.39071103526241
20
76.39741804530681
40
76.14037268410976
50
140.04954415058188
51
140.45045584941434
0
ARC
8
0
10
17.797400439047475
20
124.78503779154913
40
0.15
50
140.99999999999994
51
-136.431407971172
0
ARC
8
0
10
16.992819666860115
20
123.96351408011651
40
1
50
26.623016759937084
51
45.901156223881145
0
ARC
8
0
10
17.3815044709239
20
124.18205111618887
40
0.555
50
-38.9999999999997
51
24.434948822923744
0
ARC
8
0
10
17.3815044709239
20
124.18205111618887
40
0.555
50
-102.43494882292326
51
-38.9999999999997
0
ARC
8
0
10
17.51445383362151
20
124.60767862940166
40
1
50
-123.90115622388174
51
-104.62301675993803
0
ARC
8
0
10
16.878164135082688
20
123.64987549359921
40
0.15
50
58.43140797117264
51
140.99999999999994
0
ARC
8
0
10
76.39063257175658
20
76.39732115094651
40
76.14037268410976
50
141.54954415058333
51
141.95045584941582
0
ARC
8
0
10
16.550760218842754
20
123.23456560574373
40
0.15
50
142.49999999999613
51
-134.93140797116885
0
ARC
8
0
10
15.767960140119053
20
122.39226194068593
40
1
50
28.12301675993876
51
47.401156223882225
0
ARC
8
0
10
16.150791118911464
20
122.62089867159818
40
0.555
50
-37.50000000000001
51
25.934948822922298
0
ARC
8
0
10
16.15079111891147
20
122.62089867159818
40
0.555
50
-100.934948822923
51
-37.50000000000045
0
ARC
8
0
10
16.272553293771185
20
123.04986054148738
40
1
50
-122.4011562238814
51
-103.12301675993776
0
ARC
8
0
10
15.661553998995384
20
122.07572949835041
40
0.15
50
59.931407971171204
51
142.49999999999736
0
ARC
8
0
10
76.39055667153563
20
76.39722223585275
40
76.14037268410976
50
143.04954415058327
51
143.45045584941573
0
ARC
8
0
10
15.34513382136663
20
121.65199149142974
40
0.15
50
143.99999999999963
51
-133.43140797117263
0
ARC
8
0
10
14.584650928178785
20
120.78948514560481
40
1
50
29.623016759938842
51
48.90115622388222
0
ARC
8
0
10
14.961365708469815
20
121.0280648751622
40
0.555
50
-36.00000000000034
51
27.43494882292431
0
ARC
8
0
10
14.96136570846982
20
121.02806487516222
40
0.555
50
-99.43494882292353
51
-36.00000000000185
0
ARC
8
0
10
15.071857245779139
20
121.4600671126893
40
1
50
-120.90115622388139
51
-101.62301675993753
0
ARC
8
0
10
14.486567103162905
20
120.47027578297588
40
0.15
50
61.431407971170295
51
143.99999999999883
0
ARC
8
0
10
76.39048338661951
20
76.39712136781914
40
76.14037268410976
50
144.5495441505837
51
144.95045584941616
0
ARC
8
0
10
14.181347522729496
20
120.03840006585371
40
0.15
50
145.49999999999753
51
-131.93140797117297
0
ARC
8
0
10
13.443703012065543
20
119.15628215802792
40
1
50
31.12301675993945
51
50.4011562238826
0
ARC
8
0
10
13.814043412362095
20
119.40464137560114
40
0.555
50
-34.500000000001194
51
28.934948822924753
0
ARC
8
0
10
13.814043412362102
20
119.40464137560116
40
0.555
50
-97.93494882292417
51
-34.50000000000282
0
ARC
8
0
10
13.91318858674052
20
119.83938790801156
40
1
50
-119.40115622388005
51
-100.12301675993658
0
ARC
8
0
10
13.354008724911713
20
118.83461464525784
40
0.15
50
62.93140797116883
51
145.49999999999636
0
ARC
8
0
10
76.3904127672335
20
76.3970186159749
40
76.14037268410976
50
146.04954415058404
51
146.45045584941653
0
ARC
8
0
10
13.060198923927995
20
118.394897203978
40
0.15
50
147.00000000000145
51
-130.43140797117104
0
ARC
8
0
10
12.34589834048936
20
117.49377229370259
40
1
50
32.623016759939134
51
51.90115622388246
0
ARC
8
0
10
12.709610547979992
20
117.75174078628974
40
0.555
50
-33.00000000000022
51
30.434948822924177
0
ARC
8
0
10
12.709610547979993
20
117.75174078628974
40
0.555
50
-96.43494882292322
51
-33.00000000000033
0
ARC
8
0
10
12.797341410277461
20
118.18893366002621
40
1
50
-117.90115622388193
51
-98.62301675993815
0
ARC
8
0
10
12.264655063181696
20
117.16986708563698
40
0.15
50
64.43140797117385
51
147.0000000000022
0
ARC
8
0
10
76.39034486177663
20
76.396914050741
40
76.14037268410976
50
147.5495441505843
51
147.95045584941676
0
ARC
8
0
10
11.982456404209186
20
116.72260928056942
40
0.15
50
148.49999999999943
51
-128.93140797117104
0
ARC
8
0
10
11.291989293935643
20
115.80309495384572
40
1
50
34.1230167599374
51
53.40115622388132
0
ARC
8
0
10
11.648824038441182
20
116.07049592272777
40
0.555
50
-31.499999999998717
51
31.93494882292327
0
ARC
8
0
10
11.648824038441193
20
116.07049592272779
40
0.555
50
-94.93494882292393
51
-31.50000000000054
0
ARC
8
0
10
11.72508046230686
20
116.50983550763291
40
1
50
-116.40115622387952
51
-97.12301675993585
0
ARC
8
0
10
11.219252706558208
20
115.47717403893473
40
0.15
50
65.93140797117024
51
148.4999999999991
0
ARC
8
0
10
76.390279716787
20
76.39680774377979
40
76.14037268410976
50
149.04954415058313
51
149.4504558494156
0
ARC
8
0
10
10.948858594461601
20
115.02268239823798
40
0.15
50
149.99999999999926
51
-127.43140797117472
0
ARC
8
0
10
10.282698169020936
20
114.08540884425476
40
1
50
35.62301675993715
51
54.90115622388106
0
ARC
8
0
10
10.632410893831775
20
114.36205902616464
40
0.555
50
-30.000000000000494
51
33.434948822922465
0
ARC
8
0
10
10.63241089383177
20
114.36205902616464
40
0.555
50
-93.43494882292158
51
-30.00000000000022
0
ARC
8
0
10
10.69714061692193
20
114.80324422083244
40
1
50
-114.90115622388242
51
-95.62301675993852
0
ARC
8
0
10
10.218518121597448
20
113.75769559241338
40
0.15
50
67.43140797117294
51
150.0000000000043
0
ARC
8
0
10
76.39021737691317
20
76.39669976795093
40
76.14037268410976
50
150.54954415058253
51
150.950455849415
0
ARC
8
0
10
9.960113870994697
20
113.29628160195563
40
0.15
50
151.49999999999983
51
-125.93140797117314
0
ARC
8
0
10
9.318716683467073
20
112.34189118118891
40
1
50
37.12301675993812
51
56.401156223881806
0
ARC
8
0
10
9.66106771295016
20
112.62760097391094
40
0.555
50
-28.500000000001467
51
34.93494882292237
0
ARC
8
0
10
9.66106771295016
20
112.62760097391094
40
0.555
50
-91.93494882292254
51
-28.500000000001467
0
ARC
8
0
10
9.714226372745834
20
113.07032941204669
40
1
50
-113.40115622388144
51
-94.12301675993757
0
ARC
8
0
10
9.26313716179614
20
112.01261019071033
40
0.15
50
68.93140797117063
51
151.4999999999992
0
ARC
8
0
10
76.39015788488076
20
76.39659019725765
40
76.14037268410976
50
152.04954415058413
51
152.4504558494166
0
ARC
8
0
10
9.016899870053015
20
111.54459008059243
40
0.15
50
153.00000000000207
51
-124.43140797117474
0
ARC
8
0
10
8.400705502032224
20
110.57373688456376
40
1
50
38.62301675993678
51
57.901156223880875
0
ARC
8
0
10
8.735460205892801
20
110.86831047687748
40
0.555
50
-26.999999999997687
51
36.43494882292373
0
ARC
8
0
10
8.735460205892808
20
110.8683104768775
40
0.555
50
-90.43494882292374
51
-26.999999999999325
0
ARC
8
0
10
8.777011370103912
20
111.31227873452448
40
1
50
-111.90115622388073
51
-92.62301675993702
0
ARC
8
0
10
8.353764597541788
20
110.24311382819087
40
0.15
50
70.43140797117371
51
153.00000000000722
0
ARC
8
0
10
76.39010128145972
20
76.39647910678886
40
76.14037268410976
50
153.54954415058344
51
153.9504558494159
0
ARC
8
0
10
8.119863023398228
20
109.76880835601821
40
0.15
50
154.50000000000193
51
-122.93140797117466
0
ARC
8
0
10
7.529293783724551
20
108.78215775901293
40
1
50
40.12301675993818
51
59.40115622388178
0
ARC
8
0
10
7.856222737809923
20
109.0853932648925
40
0.555
50
-25.499999999999453
51
37.93494882292393
0
ARC
8
0
10
7.856222737809925
20
109.08539326489252
40
0.555
50
-88.93494882292323
51
-25.500000000000853
0
ARC
8
0
10
7.886137929344089
20
109.53029706838363
40
1
50
-110.40115622388261
51
-91.1230167599387
0
ARC
8
0
10
7.49102366736575
20
108.4504192292736
40
0.15
50
71.93140797117249
51
154.49999999999616
0
ARC
8
0
10
76.39004760544587
20
76.39636657268565
40
76.14037268410976
50
155.04954415058475
51
155.45045584941724
0
ARC
8
0
10
7.2696181152770505
20
107.97015346032477
40
0.15
50
156.00000000000225
51
-121.43140797117226
0
ARC
8
0
10
6.705078750607764
20
106.96838166337777
40
1
50
41.62301675993854
51
60.901156223882076
0
ARC
8
0
10
7.023957894143274
20
107.28007126035439
40
0.555
50
-23.999999999998565
51
39.43494882292405
0
ARC
8
0
10
7.023957894143277
20
107.2800712603544
40
0.555
50
-87.43494882292343
51
-24.00000000000002
0
ARC
8
0
10
7.042216610622467
20
107.7256056948462
40
1
50
-108.90115622388149
51
-89.62301675993761
0
ARC
8
0
10
6.67550565080673
20
106.63575501728957
40
0.15
50
73.43140797117225
51
155.99999999999687
0
ARC
8
0
10
76.389996893623
20
76.39625267206664
40
76.14037268410976
50
156.54954415058262
51
156.95045584941508
0
ARC
8
0
10
6.4667478610787965
20
106.14985810173273
40
0.15
50
157.50000000000233
51
-119.93140797117304
0
ARC
8
0
10
5.928625278495051
20
105.13365166919404
40
1
50
43.123016759937705
51
62.40115622388145
0
ARC
8
0
10
6.239236067644112
20
105.45358174078717
40
0.555
50
-22.49999999999876
51
40.9349488229244
0
ARC
8
0
10
6.239236067644117
20
105.45358174078719
40
0.555
50
-85.9349488229239
51
-22.500000000000327
0
ARC
8
0
10
6.245825795456143
20
105.8994414592332
40
1
50
-107.40115622388295
51
-88.12301675993908
0
ARC
8
0
10
5.907769463177205
20
104.80036487244513
40
0.15
50
74.93140797117415
51
157.50000000000787
0
ARC
8
0
10
76.38994918075026
20
76.39613748300208
40
76.14037268410976
50
158.04954415058404
51
158.45045584941653
0
ARC
8
0
10
5.711802507971459
20
104.3091698197551
40
0.15
50
159.00000000000037
51
-118.43140797117184
0
ARC
8
0
10
5.200465509811539
20
103.27922520875292
40
1
50
44.6230167599369
51
63.90115622388081
0
ARC
8
0
10
5.5025950674546165
20
103.60717649087238
40
0.555
50
-20.99999999999973
51
42.43494882292329
0
ARC
8
0
10
5.502595067454621
20
103.60717649087238
40
0.555
50
-84.4349488229236
51
-20.999999999999897
0
ARC
8
0
10
5.497511290329155
20
104.05305592329277
40
1
50
-105.90115622388103
51
-86.62301675993727
0
ARC
8
0
10
5.188341272510913
20
102.94550667946572
40
0.15
50
76.43140797117083
51
159.00000000000014
0
ARC
8
0
10
76.38990449952435
20
76.39602108442901
40
76.14037268410976
50
159.54954415058262
51
159.95045584941505
0
ARC
8
0
10
5.005299457789692
20
102.44935013019597
40
0.15
50
160.49999999999784
51
-116.93140797117256
0
ARC
8
0
10
4.52109848889029
20
101.40637321331981
40
1
50
46.123016759936625
51
65.40115622388065
0
ARC
8
0
10
4.814539750520282
20
101.74212094453834
40
0.555
50
-19.500000000000377
51
43.93494882292414
0
ARC
8
0
10
4.814539750520289
20
101.74212094453836
40
0.555
50
-82.93494882292435
51
-19.500000000002007
0
ARC
8
0
10
4.797785952624254
20
102.18771450744232
40
1
50
-104.40115622388117
51
-85.12301675993726
0
ARC
8
0
10
4.51771413895351
20
101.0724516655047
40
0.15
50
77.93140797117145
51
160.49999999999764
0
ARC
8
0
10
76.38986288057048
20
76.3959035561289
40
76.14037268410976
50
161.04954415058452
51
161.45045584941698
0
ARC
8
0
10
4.347722912433471
20
100.57167366057041
40
0.15
50
162.00000000000117
51
-115.43140797117314
0
ARC
8
0
10
3.8909898199522863
20
99.51637924210124
40
1
50
47.623016759936306
51
66.90115622388032
0
ARC
8
0
10
4.175541675586176
20
99.85969331769486
40
0.555
50
-18.000000000001027
51
45.43494882292237
0
ARC
8
0
10
4.175541675586178
20
99.85969331769486
40
0.555
50
-81.43494882292251
51
-18.000000000001087
0
ARC
8
0
10
4.147129339135816
20
100.30469562351229
40
1
50
-102.90115622388169
51
-83.62301675993783
0
ARC
8
0
10
3.8963476768437557
20
99.18248352890733
40
0.15
50
79.43140797117414
51
162.00000000000136
0
ARC
8
0
10
76.38982435240969
20
76.39578497864274
40
76.14037268410976
50
162.54954415058418
51
162.95045584941667
0
ARC
8
0
10
3.7395235420202977
20
98.67742727653871
40
0.15
50
163.50000000000128
51
-113.93140797117356
0
ARC
8
0
10
3.3105713480046144
20
97.6105386025578
40
1
50
49.123016759937684
51
68.40115622388143
0
ARC
8
0
10
3.586038780014225
20
97.96118373220803
40
0.555
50
-16.500000000000327
51
46.934948822922664
0
ARC
8
0
10
3.5860387800142264
20
97.96118373220803
40
0.555
50
-79.93494882292276
51
-16.50000000000037
0
ARC
8
0
10
3.5459873774056714
20
98.40528979858686
40
1
50
-101.40115622388097
51
-82.12301675993722
0
ARC
8
0
10
3.3246677397168183
20
97.27689755942848
40
0.15
50
80.93140797117177
51
163.500000000001
0
ARC
8
0
10
76.38978894144786
20
76.39566543323902
40
76.14037268410976
50
164.04954415058273
51
164.45045584941522
0
ARC
8
0
10
3.1811181760184164
20
96.76790919995283
40
0.15
50
164.99999999999983
51
-112.43140797117194
0
ARC
8
0
10
2.7802408628753477
20
95.69015746266504
40
1
50
50.623016759937144
51
69.90115622388092
0
ARC
8
0
10
3.0464350796427113
20
96.04789333171512
40
0.555
50
-14.999999999999606
51
48.43494882292275
0
ARC
8
0
10
3.0464350796427144
20
96.04789333171513
40
0.555
50
-78.43494882292326
51
-15.000000000001105
0
ARC
8
0
10
2.994772060106703
20
96.49079879054106
40
1
50
-99.90115622388045
51
-80.62301675993668
0
ARC
8
0
10
2.803066128445568
20
95.35699975050551
40
0.15
50
82.43140797117181
51
164.9999999999998
0
ARC
8
0
10
76.38975667195514
20
76.39554500185265
40
76.14037268410976
50
165.54954415058364
51
165.95045584941613
0
ARC
8
0
10
2.672889517572716
20
94.84442811911978
40
0.15
50
166.49999999999832
51
-110.93140797117317
0
ARC
8
0
10
2.300361826588421
20
93.75655195573098
40
1
50
52.12301675993651
51
71.40115622388039
0
ARC
8
0
10
2.55710039189406
20
94.12113338988554
40
0.555
50
-13.499999999998478
51
49.93494882292356
0
ARC
8
0
10
2.5571003918940636
20
94.12113338988556
40
0.555
50
-76.93494882292312
51
-13.499999999999988
0
ARC
8
0
10
2.4938611626835696
20
94.56253469588076
40
1
50
-98.40115622388029
51
-79.12301675993663
0
ARC
8
0
10
2.331900322719781
20
93.42410590419554
40
0.15
50
83.93140797117198
51
166.4999999999982
0
ARC
8
0
10
76.38972756604618
20
76.39542376701662
40
76.14037268410976
50
167.04954415058333
51
167.4504558494158
0
ARC
8
0
10
2.2151858812191074
20
92.90830229189244
40
0.15
50
168.00000000000034
51
-109.43140797117177
0
ARC
8
0
10
1.871263124264836
20
91.81104727838436
40
1
50
53.62301675993729
51
72.90115622388112
0
ARC
8
0
10
2.118370082320448
20
92.18222441173971
40
0.555
50
-11.999999999998881
51
51.434948822923744
0
ARC
8
0
10
2.1183700823204505
20
92.18222441173972
40
0.555
50
-75.43494882292329
51
-12.000000000000373
0
ARC
8
0
10
2.043597984444311
20
92.62181905049752
40
1
50
-96.9011562238806
51
-77.62301675993677
0
ARC
8
0
10
1.9114932360474504
20
91.4795407293907
40
0.15
50
85.43140797117196
51
168.0000000000003
0
ARC
8
0
10
76.38970164366944
20
76.39530181182255
40
76.14037268410976
50
168.54954415058427
51
168.95045584941673
0
ARC
8
0
10
1.8083209541671563
20
90.96085864220112
40
0.15
50
169.4999999999938
51
-107.93140797117255
0
ARC
8
0
10
1.4932388387212014
20
89.85497678235093
40
1
50
55.12301675993821
51
74.40115622388191
0
ARC
8
0
10
1.7305448347609882
20
90.23249522864059
40
0.555
50
-10.500000000000473
51
52.93494882292214
0
ARC
8
0
10
1.7305448347609877
20
90.23249522864059
40
0.555
50
-73.93494882292175
51
-10.500000000000464
0
ARC
8
0
10
1.6442911132801237
20
90.66998192395383
40
1
50
-95.40115622387908
51
-76.1230167599353
0
ARC
8
0
10
1.5421329944459916
20
89.52463693392859
40
0.15
50
86.93140797117199
51
169.4999999999938
0
ARC
8
0
10
76.38967892259008
20
76.39517921984861
40
76.14037268410976
50
170.04954415058356
51
170.45045584941604
0
ARC
8
0
10
1.4525735813144842
20
89.00343185064632
40
0.15
50
170.99999999999923
51
-106.4314079711725
0
ARC
8
0
10
1.1665480489200362
20
87.88968106064073
40
1
50
56.623016759937094
51
75.90115622388095
0
ARC
8
0
10
1.3938904452680503
20
88.27328208757905
40
0.555
50
-8.999999999999883
51
54.434948822921605
0
ARC
8
0
10
1.3938904452680492
20
88.27328208757905
40
0.555
50
-72.43494882292167
51
-8.999999999999865
0
ARC
8
0
10
1.2962142141747504
20
88.70836100791972
40
1
50
-93.90115622388147
51
-74.62301675993787
0
ARC
8
0
10
1.2240727389750188
20
87.56073431122098
40
0.15
50
88.43140797117277
51
170.99999999999926
0
ARC
8
0
10
76.38965941838036
20
76.39505607511484
40
76.14037268410976
50
171.54954415058248
51
171.95045584941494
0
ARC
8
0
10
1.148187574140467
20
87.03736343977535
40
0.15
50
172.49999999999793
51
-104.93140797117255
0
ARC
8
0
10
0.8914146524101343
20
85.91650702877273
40
1
50
58.12301675993572
51
77.40115622387978
0
ARC
8
0
10
1.1086376399439415
20
86.30592773537714
40
0.555
50
-7.500000000000497
51
55.93494882292276
0
ARC
8
0
10
1.1086376399439413
20
86.30592773537714
40
0.555
50
-70.93494882292286
51
-7.500000000000494
0
ARC
8
0
10
0.9996058416479497
20
86.73830069938592
40
1
50
-92.4011562238841
51
-73.12301675994044
0
ARC
8
0
10
0.9575304522461682
20
85.58917882202638
40
0.15
50
89.93140797117286
51
172.50000000000335
0
ARC
8
0
10
76.38964314440788
20
76.39493246202126
40
76.14037268410976
50
173.04954415058307
51
173.45045584941556
0
ARC
8
0
10
0.8953715436100144
20
85.06400085466969
40
0.15
50
173.99999999999935
51
-103.43140797117304
0
ARC
8
0
10
0.6680272118782936
20
83.9368070016661
40
1
50
59.6230167599372
51
78.90115622388099
0
ARC
8
0
10
0.8749819168127299
20
84.33178049843632
40
0.555
50
-5.999999999998453
51
57.43494882292421
0
ARC
8
0
10
0.8749819168127313
20
84.33178049843633
40
0.555
50
-69.43494882292399
51
-5.999999999999928
0
ARC
8
0
10
0.7546692762622624
20
84.76115117928119
40
1
50
-90.90115622388221
51
-71.62301675993861
0
ARC
8
0
10
0.7426888090286909
20
83.61132167199565
40
0.15
50
91.43140797117235
51
173.99999999999935
0
ARC
8
0
10
76.38963011182555
20
76.3948084652829
40
76.14037268410976
50
174.54954415058293
51
174.9504558494154
0
ARC
8
0
10
0.6942987572020027
20
83.08469653947353
40
0.15
50
175.49999999999747
51
-101.93140797117162
0
ARC
8
0
10
0.4965388259177306
20
81.95193776683124
40
1
50
61.12301675993615
51
80.40115622388014
0
ARC
8
0
10
0.6930834118356768
20
82.35219335866192
40
0.555
50
-4.499999999999437
51
58.934948822924454
0
ARC
8
0
10
0.6930834118356789
20
82.35219335866195
40
0.555
50
-67.93494882292455
51
-4.5000000000023785
0
ARC
8
0
10
0.5615723853048404
20
82.77826748712576
40
1
50
-89.40115622388133
51
-70.12301675993754
0
ARC
8
0
10
0.5796950510532671
20
81.62851838562327
40
0.15
50
92.93140797117233
51
175.49999999999747
0
ARC
8
0
10
76.38962032956557
20
76.39468416988495
40
76.14037268410976
50
176.04954415058512
51
176.4504558494176
0
ARC
8
0
10
0.545107020160449
20
81.100807010496
40
0.15
50
176.99999999999983
51
-100.43140797117212
0
ARC
8
0
10
0.37706702410220216
20
79.96325965449522
40
1
50
62.62301675993565
51
81.90115622387971
0
ARC
8
0
10
0.5630667891620593
20
80.36852302619697
40
0.555
50
-3.000000000000015
51
60.43494882292146
0
ARC
8
0
10
0.5630667891620594
20
80.36852302619697
40
0.555
50
-66.43494882292181
51
-3.0000000000000164
0
ARC
8
0
10
0.4204475077393471
20
80.79100859235498
40
1
50
-87.90115622388072
51
-68.6230167599369
0
ARC
8
0
10
0.468660886099911
20
79.64212787723845
40
0.15
50
94.43140797117258
51
176.99999999999983
0
ARC
8
0
10
76.38961380433165
20
76.39455966100466
40
76.14037268410976
50
177.5495441505832
51
177.95045584941565
0
ARC
8
0
10
0.4478985810495909
20
79.11369192652283
40
0.15
50
178.50000000000162
51
-98.9314079711727
0
ARC
8
0
10
0.30969368643694795
20
77.9721356052996
40
1
50
64.12301675993945
51
83.40115622388305
0
ARC
8
0
10
0.48502115569060655
20
78.38212900960082
40
0.555
50
-1.5000000000001374
51
61.93494882292268
0
ARC
8
0
10
0.48502115569060644
20
78.38212900960082
40
0.555
50
-64.9349488229226
51
-1.5000000000001368
0
ARC
8
0
10
0.3313913635074798
20
78.80073646294962
40
1
50
-86.40115622388004
51
-67.12301675993625
0
ARC
8
0
10
0.4096624114389658
20
77.6535115196733
40
0.15
50
95.93140797117255
51
178.50000000000162
0
ARC
8
0
10
76.38961054059638
20
76.39443502398214
40
76.14037268410976
50
179.04954415058293
51
179.45045584941542
0
ARC
8
0
10
0.4027400616779385
20
77.12471315697394
40
0.15
50
180
51
-97.43140797117285
0
ARC
8
0
10
0.2944649872420688
20
75.97993023620882
40
1
50
65.62301675993626
51
84.90115622388004
0
ARC
8
0
10
0.45900000000001007
20
76.39437268410978
40
0.555
50
0
51
63.434948822922834
0
ARC
8
0
10
0.45900000000000996
20
76.39437268410978
40
0.555
50
-63.43494882292283
51
0
0
ARC
8
0
10
0.2944649872420684
20
76.80881513201075
40
1
50
-84.90115622388001
51
-65.62301675993623
0
ARC
8
0
10
0.40274006167793874
20
75.66403221124563
40
0.15
50
97.43140797117289
51
180
0
ARC
8
0
10
76.38961054059638
20
76.3943103442369
40
76.14037268410976
50
-179.4504558494158
51
-179.04954415058333
0
ARC
8
0
10
0.40966241143896587
20
75.13523384854626
40
0.15
50
-178.50000000000162
51
-95.93140797117253
0
ARC
8
0
10
0.33139136350748
20
73.98800890526995
40
1
50
67.12301675993625
51
86.40115622388004
0
ARC
8
0
10
0.485021155690606
20
74.40661635861875
40
0.555
50
1.4999999999986693
51
64.93494882292256
0
ARC
8
0
10
0.4850211556906062
20
74.40661635861875
40
0.555
50
-61.93494882292265
51
1.4999999999986697
0
ARC
8
0
10
0.30969368643694833
20
74.81660976291997
40
1
50
-83.40115622388305
51
-64.12301675993946
0
ARC
8
0
10
0.44789858104959124
20
73.67505344169673
40
0.15
50
98.93140797117272
51
-178.50000000000162
0
ARC
8
0
10
76.38961380433167
20
76.39418570721412
40
76.14037268410976
50
-177.95045584941622
51
-177.54954415058376
0
ARC
8
0
10
0.4686608860999102
20
73.1466174909811
40
0.15
50
-176.99999999999983
51
-94.43140797117252
0
ARC
8
0
10
0.42044750773934775
20
71.99773677586457
40
1
50
68.62301675993693
51
87.90115622388079
0
ARC
8
0
10
0.5630667891620594
20
72.42022234202258
40
0.555
50
3.0000000000000164
51
66.43494882292181
0
ARC
8
0
10
0.5630667891620595
20
72.42022234202258
40
0.555
50
-60.43494882292148
51
3.0000000000000164
0
ARC
8
0
10
0.3770670241022021
20
72.82548571372433
40
1
50
-81.90115622387965
51
-62.62301675993565
0
ARC
8
0
10
0.5451070201604497
20
71.68793835772355
40
0.15
50
100.43140797117215
51
-176.99999999999983
0
ARC
8
0
10
76.38962032956562
20
76.39406119833407
40
76.14037268410976
50
-176.450455849418
51
-176.04954415058555
0
ARC
8
0
10
0.5796950510532666
20
71.1602269825963
40
0.15
50
-175.49999999999747
51
-92.93140797117233
0
ARC
8
0
10
0.5615723853048411
20
70.0104778810938
40
1
50
70.12301675993758
51
89.4011562238814
0
ARC
8
0
10
0.6930834118356777
20
70.43655200955762
40
0.555
50
4.500000000000907
51
67.93494882292444
0
ARC
8
0
10
0.6930834118356759
20
70.43655200955764
40
0.555
50
-58.934948822924376
51
4.499999999997967
0
ARC
8
0
10
0.49653882591773074
20
70.83680760138833
40
1
50
-80.40115622388011
51
-61.12301675993616
0
ARC
8
0
10
0.6942987572020033
20
69.70404882874604
40
0.15
50
101.93140797117162
51
-175.49999999999747
0
ARC
8
0
10
76.38963011182558
20
76.39393690293635
40
76.14037268410976
50
-174.95045584941565
51
-174.5495441505832
0
ARC
8
0
10
0.7426888090286903
20
69.17742369622394
40
0.15
50
-173.99999999999935
51
-91.43140797117229
0
ARC
8
0
10
0.7546692762622632
20
68.02759418893841
40
1
50
71.62301675993865
51
90.90115622388228
0
ARC
8
0
10
0.8749819168127166
20
68.45696486978326
40
0.555
50
5.999999999999923
51
69.43494882292258
0
ARC
8
0
10
0.8749819168127166
20
68.45696486978326
40
0.555
50
-57.43494882292227
51
5.999999999999923
0
ARC
8
0
10
0.668027211878294
20
68.8519383665535
40
1
50
-78.90115622388099
51
-59.62301675993722
0
ARC
8
0
10
0.8953715436100146
20
67.72474451354991
40
0.15
50
103.43140797117304
51
-173.99999999999935
0
ARC
8
0
10
76.38964314440824
20
76.39381290619532
40
76.14037268410976
50
-173.4504558494178
51
-173.04954415058532
0
ARC
8
0
10
0.9575304522461537
20
67.19956654619318
40
0.15
50
-172.50000000000335
51
-89.93140797117282
0
ARC
8
0
10
0.9996058416479353
20
66.05044466883365
40
1
50
73.12301675994043
51
92.4011562238841
0
ARC
8
0
10
1.108637639943927
20
66.48281763284243
40
0.555
50
7.500000000000494
51
70.93494882292286
0
ARC
8
0
10
1.108637639943927
20
66.48281763284243
40
0.555
50
-55.93494882292274
51
7.500000000000494
0
ARC
8
0
10
0.8914146524101196
20
66.87223833944684
40
1
50
-77.40115622387977
51
-58.12301675993571
0
ARC
8
0
10
1.1481875741404528
20
65.75138192844422
40
0.15
50
104.93140797117255
51
-172.49999999999793
0
ARC
8
0
10
76.38965941838048
20
76.3936892931038
40
76.14037268410976
50
-171.95045584941562
51
-171.54954415058316
0
ARC
8
0
10
1.224072738975004
20
65.22801105699857
40
0.15
50
-170.99999999999926
51
-88.43140797117267
0
ARC
8
0
10
1.2962142141747353
20
64.08038436029983
40
1
50
74.62301675993783
51
93.90115622388144
0
ARC
8
0
10
1.3938904452680498
20
64.5154632806405
40
0.555
50
8.999999999999876
51
72.43494882292313
0
ARC
8
0
10
1.393890445268049
20
64.5154632806405
40
0.555
50
-54.434948822922685
51
8.999999999999861
0
ARC
8
0
10
1.1665480489200215
20
64.89906430757883
40
1
50
-75.90115622388089
51
-56.623016759937066
0
ARC
8
0
10
1.4525735813144705
20
63.78531351757323
40
0.15
50
106.4314079711725
51
-170.99999999999923
0
ARC
8
0
10
76.38967892259005
20
76.39356614837101
40
76.14037268410976
50
-170.45045584941596
51
-170.0495441505835
0
ARC
8
0
10
1.5421329944459774
20
63.26410843429098
40
0.15
50
-169.49999999999923
51
-86.93140797117219
0
ARC
8
0
10
1.6442911132801517
20
62.11876344426576
40
1
50
76.12301675993774
51
95.40115622388156
0
ARC
8
0
10
1.7305448347609858
20
62.556250139579
40
0.555
50
10.499999999999705
51
73.93494882292318
0
ARC
8
0
10
1.7305448347609853
20
62.556250139579
40
0.555
50
-52.934948822923076
51
10.499999999999698
0
ARC
8
0
10
1.4932388387211697
20
62.93376858586865
40
1
50
-74.40115622388092
51
-55.12301675993715
0
ARC
8
0
10
1.8083209541671448
20
61.827886726018455
40
0.15
50
107.93140797117252
51
-169.50000000000202
0
ARC
8
0
10
76.38970164366933
20
76.3934435563976
40
76.14037268410976
50
-168.95045584941627
51
-168.5495441505838
0
ARC
8
0
10
1.9114932360474515
20
61.30920463882886
40
0.15
50
-168.0000000000004
51
-85.43140797117279
0
ARC
8
0
10
2.0435979844443115
20
60.16692631772204
40
1
50
77.6230167599368
51
96.90115622388065
0
ARC
8
0
10
2.1183700823204488
20
60.60652095647983
40
0.555
50
12.000000000000334
51
75.4349488229233
0
ARC
8
0
10
2.1183700823204465
20
60.60652095647984
40
0.555
50
-51.434948822923175
51
11.999999999998852
0
ARC
8
0
10
1.871263124264836
20
60.977698089835194
40
1
50
-72.90115622388109
51
-53.62301675993729
0
ARC
8
0
10
2.2151858812191088
20
59.880443076327126
40
0.15
50
109.43140797117297
51
-168.00000000000045
0
ARC
8
0
10
76.38972756604659
20
76.3933216012011
40
76.14037268410976
50
-167.4504558494172
51
-167.04954415058472
0
ARC
8
0
10
2.3319003227197843
20
59.364639464023966
40
0.15
50
-166.50000000000384
51
-83.93140797117331
0
ARC
8
0
10
2.4938611626836114
20
58.226210672338766
40
1
50
79.12301675993898
51
98.40115622388278
0
ARC
8
0
10
2.5571003918940636
20
58.66761197833396
40
0.555
50
13.5000000000007
51
76.93494882292329
0
ARC
8
0
10
2.5571003918940614
20
58.667611978333966
40
0.555
50
-49.93494882292319
51
13.499999999999934
0
ARC
8
0
10
2.300361826588437
20
59.03219341248854
40
1
50
-71.40115622388126
51
-52.12301675993749
0
ARC
8
0
10
2.6728895175727176
20
57.94431724909973
40
0.15
50
110.93140797117282
51
-166.50000000000375
0
ARC
8
0
10
76.38975667195521
20
76.39320036636664
40
76.14037268410976
50
-165.95045584941633
51
-165.54954415058387
0
ARC
8
0
10
2.8030661284455554
20
57.431745617714085
40
0.15
50
-164.99999999999997
51
-82.43140797117285
0
ARC
8
0
10
2.9947720601067096
20
56.29794657767852
40
1
50
80.62301675993793
51
99.90115622388164
0
ARC
8
0
10
3.0464350796427
20
56.74085203650447
40
0.555
50
15.000000000000396
51
78.4349488229231
0
ARC
8
0
10
3.0464350796426984
20
56.74085203650448
40
0.555
50
-48.43494882292334
51
14.99999999999964
0
ARC
8
0
10
2.780240862875348
20
57.09858790555455
40
1
50
-69.90115622388169
51
-50.62301675993805
0
ARC
8
0
10
3.181118176018402
20
56.02083616826677
40
0.15
50
112.43140797117178
51
-164.99999999999983
0
ARC
8
0
10
76.38978894144846
20
76.39307993497837
40
76.14037268410976
50
-164.45045584941693
51
-164.04954415058447
0
ARC
8
0
10
3.3246677397168036
20
55.51184780879108
40
0.15
50
-163.49999999999838
51
-80.93140797117219
0
ARC
8
0
10
3.545987377405657
20
54.38345556963269
40
1
50
82.12301675993722
51
101.401156223881
0
ARC
8
0
10
3.586038780014212
20
54.827561636011524
40
0.555
50
16.50000000000037
51
79.93494882292276
0
ARC
8
0
10
3.586038780014211
20
54.827561636011524
40
0.555
50
-46.934948822922664
51
16.500000000000327
0
ARC
8
0
10
3.3105713480046144
20
55.17820676566177
40
1
50
-68.40115622388228
51
-49.12301675993883
0
ARC
8
0
10
3.7395235420202826
20
54.11131809168085
40
0.15
50
113.93140797117294
51
-163.49999999999844
0
ARC
8
0
10
76.38982435240963
20
76.39296038957698
40
76.14037268410976
50
-162.95045584941656
51
-162.54954415058404
0
ARC
8
0
10
3.8963476768437535
20
53.6062618393122
40
0.15
50
-162.0000000000011
51
-79.4314079711728
0
ARC
8
0
10
4.1471293391357955
20
52.484049744707235
40
1
50
83.62301675993668
51
102.90115622388046
0
ARC
8
0
10
4.1755416755861745
20
52.92905205052466
40
0.555
50
18.000000000000274
51
81.43494882292214
0
ARC
8
0
10
4.1755416755861745
20
52.92905205052466
40
0.555
50
-45.43494882292224
51
18.000000000000274
0
ARC
8
0
10
3.8909898199523005
20
53.2723661261183
40
1
50
-66.90115622388123
51
-47.62301675993745
0
ARC
8
0
10
4.347722912433471
20
52.21707170764912
40
0.15
50
115.43140797117314
51
-162.00000000000117
0
ARC
8
0
10
76.38986288057012
20
76.39284181209172
40
76.14037268410976
50
-161.45045584941613
51
-161.0495441505837
0
ARC
8
0
10
4.5177141389535
20
51.7162937027149
40
0.15
50
-160.50000000000077
51
-77.93140797117367
0
ARC
8
0
10
4.79778595262424
20
50.601030860777264
40
1
50
85.1230167599373
51
104.40115622388107
0
ARC
8
0
10
4.81453975052027
20
51.04662442368123
40
0.555
50
19.50000000000113
51
82.9349488229239
0
ARC
8
0
10
4.8145397505202645
20
51.04662442368125
40
0.555
50
-43.934948822923886
51
19.499999999998874
0
ARC
8
0
10
4.521098488890276
20
51.382372154899784
40
1
50
-65.40115622388065
51
-46.123016759936625
0
ARC
8
0
10
5.00529945778968
20
50.33939523802363
40
0.15
50
116.93140797117316
51
-160.50000000000063
0
ARC
8
0
10
76.38990449952465
20
76.39272428378972
40
76.14037268410976
50
-159.95045584941576
51
-159.54954415058324
0
ARC
8
0
10
5.18834127251093
20
49.84323868875379
40
0.15
50
-159.00000000000048
51
-76.43140797117279
0
ARC
8
0
10
5.497511290329168
20
48.735689444926734
40
1
50
86.62301675993724
51
105.90115622388103
0
ARC
8
0
10
5.502595067454623
20
49.181568877347125
40
0.555
50
21.000000000001332
51
84.4349488229224
0
ARC
8
0
10
5.502595067454621
20
49.18156887734713
40
0.555
50
-42.43494882292207
51
21.00000000000058
0
ARC
8
0
10
5.200465509811553
20
49.5095201594666
40
1
50
-63.90115622388081
51
-44.6230167599369
0
ARC
8
0
10
5.711802507971475
20
48.479575548464425
40
0.15
50
118.43140797117371
51
-159.00000000000063
0
ARC
8
0
10
76.38994918075062
20
76.39260788521658
40
76.14037268410976
50
-158.4504558494172
51
-158.04954415058478
0
ARC
8
0
10
5.9077694631771855
20
47.98838049577448
40
0.15
50
-157.4999999999996
51
-74.93140797117287
0
ARC
8
0
10
6.245825795456108
20
46.88930390898639
40
1
50
88.12301675993793
51
107.4011562238817
0
ARC
8
0
10
6.239236067644103
20
47.33516362743241
40
0.555
50
22.500000000000327
51
85.9349488229239
0
ARC
8
0
10
6.239236067644096
20
47.33516362743242
40
0.555
50
-40.934948822923715
51
22.499999999998693
0
ARC
8
0
10
5.928625278495035
20
47.655093699025564
40
1
50
-62.401156223881316
51
-43.12301675993763
0
ARC
8
0
10
6.4667478610787805
20
46.63888726648687
40
0.15
50
119.93140797117216
51
-157.49999999999946
0
ARC
8
0
10
76.3899968936243
20
76.39249269614993
40
76.14037268410976
50
-156.95045584941758
51
-156.5495441505851
0
ARC
8
0
10
6.675505650806704
20
46.152990350930004
40
0.15
50
-155.99999999999977
51
-73.43140797117323
0
ARC
8
0
10
7.042216610622459
20
45.06313967337338
40
1
50
89.62301675993878
51
108.90115622388261
0
ARC
8
0
10
7.023957894143249
20
45.508674107865176
40
0.555
50
24.00000000000002
51
87.43494882292343
0
ARC
8
0
10
7.023957894143245
20
45.50867410786518
40
0.555
50
-39.434948822923424
51
23.9999999999992
0
ARC
8
0
10
6.705078750607722
20
45.8203637048418
40
1
50
-60.90115622388137
51
-41.623016759937734
0
ARC
8
0
10
7.269618115277022
20
44.81859190789481
40
0.15
50
121.43140797117341
51
-155.99999999999977
0
ARC
8
0
10
76.3900476054448
20
76.3923787955362
40
76.14037268410976
50
-155.45045584941533
51
-155.04954415058285
0
ARC
8
0
10
7.491023667365767
20
44.33832613894591
40
0.15
50
-154.5000000000015
51
-71.9314079711726
0
ARC
8
0
10
7.886137929344083
20
43.25844829983588
40
1
50
91.12301675993753
51
110.40115622388124
0
ARC
8
0
10
7.856222737809939
20
43.703352103327006
40
0.555
50
25.500000000000195
51
88.9349488229232
0
ARC
8
0
10
7.856222737809935
20
43.70335210332701
40
0.555
50
-37.934948822923175
51
25.499999999999336
0
ARC
8
0
10
7.529293783724565
20
44.00658760920659
40
1
50
-59.40115622388178
51
-40.12301675993818
0
ARC
8
0
10
8.119863023398237
20
43.019937012201304
40
0.15
50
122.93140797117147
51
-154.49999999999864
0
ARC
8
0
10
76.39010128146
20
76.39226626143011
40
76.14037268410976
50
-153.95045584941636
51
-153.54954415058396
0
ARC
8
0
10
8.353764597541765
20
42.54563154002872
40
0.15
50
-152.99999999999602
51
-70.43140797117142
0
ARC
8
0
10
8.777011370103898
20
41.47646663369511
40
1
50
92.62301675993703
51
111.90115622388088
0
ARC
8
0
10
8.735460205892785
20
41.92043489134209
40
0.555
50
27.00000000000023
51
90.43494882292285
0
ARC
8
0
10
8.735460205892782
20
41.9204348913421
40
0.555
50
-36.434948822922806
51
26.99999999999941
0
ARC
8
0
10
8.40070550203222
20
42.215008483655836
40
1
50
-57.90115622388138
51
-38.623016759937485
0
ARC
8
0
10
9.016899870052995
20
41.24415528762716
40
0.15
50
124.43140797117152
51
-152.99999999999872
0
ARC
8
0
10
76.39015788488139
20
76.3921551709607
40
76.14037268410976
50
-152.45045584941766
51
-152.04954415058515
0
ARC
8
0
10
9.263137161796129
20
40.77613517750923
40
0.15
50
-151.49999999999983
51
-68.93140797117287
0
ARC
8
0
10
9.71422637274582
20
39.71841595617287
40
1
50
94.12301675993757
51
113.40115622388144
0
ARC
8
0
10
9.661067712950157
20
40.16114439430862
40
0.555
50
28.500000000000004
51
91.93494882292367
0
ARC
8
0
10
9.66106771295015
20
40.161144394308636
40
0.555
50
-34.934948822923786
51
28.499999999998366
0
ARC
8
0
10
9.31871668346706
20
40.44685418703066
40
1
50
-56.40115622388202
51
-37.123016759938444
0
ARC
8
0
10
9.960113870994679
20
39.49246376626394
40
0.15
50
125.93140797117206
51
-151.49999999999682
0
ARC
8
0
10
76.39021737691428
20
76.39204560026664
40
76.14037268410976
50
-150.95045584941667
51
-150.5495441505842
0
ARC
8
0
10
10.218518121597441
20
39.03104977580614
40
0.15
50
-149.99999999999827
51
-67.43140797117044
0
ARC
8
0
10
10.69714061692191
20
37.98550114738707
40
1
50
95.62301675993739
51
114.90115622388105
0
ARC
8
0
10
10.632410893831787
20
38.42668634205488
40
0.555
50
30.000000000000405
51
93.43494882292345
0
ARC
8
0
10
10.632410893831784
20
38.426686342054886
40
0.555
50
-33.43494882292359
51
29.999999999999584
0
ARC
8
0
10
10.282698169020955
20
38.703336523964786
40
1
50
-54.901156223882204
51
-35.6230167599388
0
ARC
8
0
10
10.948858594461598
20
37.766062969981554
40
0.15
50
127.43140797117199
51
-149.99999999999858
0
ARC
8
0
10
76.39027971678789
20
76.39193762443821
40
76.14037268410976
50
-149.45045584941693
51
-149.04954415058444
0
ARC
8
0
10
11.219252706558198
20
37.3115713292848
40
0.15
50
-148.4999999999998
51
-65.93140797117259
0
ARC
8
0
10
11.725080462306865
20
36.27890986058662
40
1
50
97.12301675993697
51
116.40115622388069
0
ARC
8
0
10
11.648824038441179
20
36.71824944549175
40
0.555
50
31.50000000000054
51
94.93494882292393
0
ARC
8
0
10
11.64882403844117
20
36.718249445491765
40
0.555
50
-31.934948822923992
51
31.499999999998813
0
ARC
8
0
10
11.291989293935638
20
36.98565041437382
40
1
50
-53.401156223881735
51
-34.123016759938025
0
ARC
8
0
10
11.982456404209172
20
36.06613608765013
40
0.15
50
128.93140797117275
51
-148.49999999999713
0
ARC
8
0
10
76.3903448617758
20
76.3918313174798
40
76.14037268410976
50
-147.95045584941562
51
-147.54954415058316
0
ARC
8
0
10
12.2646550631817
20
35.61887828258256
40
0.15
50
-146.99999999999915
51
-64.43140797117262
0
ARC
8
0
10
12.79734141027745
20
34.59981170819332
40
1
50
98.62301675993716
51
117.90115622388085
0
ARC
8
0
10
12.709610547979997
20
35.03700458192978
40
0.555
50
33.00000000000013
51
96.43494882292276
0
ARC
8
0
10
12.709610547979995
20
35.03700458192978
40
0.555
50
-30.434948822922724
51
33.00000000000003
0
ARC
8
0
10
12.345898340489367
20
35.29497307451694
40
1
50
-51.90115622388221
51
-32.6230167599388
0
ARC
8
0
10
13.060198923927999
20
34.39384816424154
40
0.15
50
130.43140797117178
51
-146.99999999999616
0
ARC
8
0
10
76.39041276723282
20
76.39172675224566
40
76.14037268410976
50
-146.45045584941562
51
-146.04954415058313
0
ARC
8
0
10
13.354008724911713
20
33.95413072296172
40
0.15
50
-145.50000000000014
51
-62.931407971172476
0
ARC
8
0
10
13.91318858674053
20
32.94935746020801
40
1
50
100.12301675993764
51
119.40115622388136
0
ARC
8
0
10
13.814043412362082
20
33.384103992618414
40
0.555
50
34.49999999999967
51
97.934948822923
0
ARC
8
0
10
13.814043412362079
20
33.384103992618414
40
0.555
50
-28.93494882292303
51
34.49999999999946
0
ARC
8
0
10
13.443703012065518
20
33.63246321019163
40
1
50
-50.401156223881564
51
-31.12301675993788
0
ARC
8
0
10
14.181347522729489
20
32.750345302365844
40
0.15
50
131.93140797117118
51
-145.49999999999977
0
ARC
8
0
10
76.3904833866198
20
76.39162400039999
40
76.14037268410976
50
-144.95045584941658
51
-144.54954415058413
0
ARC
8
0
10
14.486567103162898
20
32.31846958524368
40
0.15
50
-143.99999999999883
51
-61.431407971170295
0
ARC
8
0
10
15.071857245779132
20
31.32867825553025
40
1
50
101.62301675993744
51
120.90115622388119
0
ARC
8
0
10
14.96136570846981
20
31.760680493057347
40
0.555
50
36.000000000000746
51
99.43494882292323
0
ARC
8
0
10
14.961365708469804
20
31.760680493057354
40
0.555
50
-27.434948822923484
51
35.99999999999983
0
ARC
8
0
10
14.58465092817877
20
31.999260222614733
40
1
50
-48.901156223881564
51
-29.623016759937883
0
ARC
8
0
10
15.345133821366622
20
31.13675387678981
40
0.15
50
133.4314079711712
51
-143.9999999999992
0
ARC
8
0
10
76.39055667153588
20
76.39152313236647
40
76.14037268410976
50
-143.45045584941604
51
-143.04954415058356
0
ARC
8
0
10
15.661553998995394
20
30.713015869869114
40
0.15
50
-142.50000000000034
51
-59.931407971172376
0
ARC
8
0
10
16.272553293771193
20
29.738884826732153
40
1
50
103.12301675993781
51
122.40115622388153
0
ARC
8
0
10
16.150791118911474
20
30.16784669662134
40
0.555
50
37.50000000000023
51
100.93494882292258
0
ARC
8
0
10
16.15079111891147
20
30.167846696621343
40
0.555
50
-25.934948822922628
51
37.49999999999971
0
ARC
8
0
10
15.767960140119053
20
30.39648342753358
40
1
50
-47.40115622388151
51
-28.12301675993767
0
ARC
8
0
10
16.55076021884277
20
29.5541797624758
40
0.15
50
134.93140797117366
51
-142.49999999999883
0
ARC
8
0
10
76.39063257175731
20
76.39142421727209
40
76.14037268410976
50
-141.95045584941673
51
-141.5495441505842
0
ARC
8
0
10
16.87816413508268
20
29.13886987462033
40
0.15
50
-140.99999999999994
51
-58.43140797117264
0
ARC
8
0
10
17.51445383362149
20
28.181066738817876
40
1
50
104.62301675993743
51
123.90115622388112
0
ARC
8
0
10
17.381504470923893
20
28.606694252030657
40
0.555
50
39.00000000000027
51
102.43494882292309
0
ARC
8
0
10
17.38150447092389
20
28.606694252030664
40
0.555
50
-24.434948822922927
51
38.99999999999947
0
ARC
8
0
10
16.99281966686011
20
28.825231288103037
40
1
50
-45.90115622388129
51
-26.623016759937354
0
ARC
8
0
10
17.79740043904747
20
28.003707576670422
40
0.15
50
136.431407971173
51
-140.99999999999994
0
ARC
8
0
10
76.39071103526419
20
76.39132732291058
40
76.14037268410976
50
-140.45045584941644
51
-140.04954415058398
0
ARC
8
0
10
18.1355637076085
20
27.597110440532163
40
0.15
50
-139.50000000000003
51
-56.93140797117322
0
ARC
8
0
10
18.79670772873433
20
26.656291642490164
40
1
50
106.1230167599372
51
125.4011562238811
0
ARC
8
0
10
18.65266229505107
20
27.078293095189554
40
0.555
50
40.50000000000032
51
103.93494882292335
0
ARC
8
0
10
18.652662295051062
20
27.07829309518956
40
0.555
50
-22.934948822923484
51
40.49999999999928
0
ARC
8
0
10
18.258390050865394
20
27.28658066205372
40
1
50
-44.401156223881145
51
-25.123016759937443
0
ARC
8
0
10
19.08420009704484
20
26.48639993556206
40
0.15
50
137.93140797117243
51
-139.50000000000003
0
ARC
8
0
10
76.39079200828272
20
76.39123251568697
40
76.14037268410976
50
-138.95045584941676
51
-138.54954415058427
0
ARC
8
0
10
19.432890957714395
20
26.088794212508073
40
0.15
50
-137.99999999999991
51
-55.43140797117195
0
ARC
8
0
10
20.118436186340052
20
25.165604542435766
40
1
50
107.62301675993764
51
126.90115622388142
0
ARC
8
0
10
19.963393403216138
20
25.583690715905522
40
0.555
50
42.00000000000059
51
105.43494882292372
0
ARC
8
0
10
19.96339340321613
20
25.58369071590553
40
0.555
50
-21.434948822923342
51
41.99999999999955
0
ARC
8
0
10
19.563803933410398
20
25.781586063667348
40
1
50
-42.90115622388144
51
-23.623016759937542
0
ARC
8
0
10
20.41027728462641
20
25.003296726016654
40
0.15
50
139.43140797117283
51
-137.99999999999991
0
ARC
8
0
10
76.39087543531727
20
76.39113986057833
40
76.14037268410976
50
-137.4504558494166
51
-137.04954415058415
0
ARC
8
0
10
20.76925676210604
20
24.614954915148736
40
0.15
50
-136.49999999999943
51
-53.93140797117152
0
ARC
8
0
10
21.478733359775557
20
23.710027081131624
40
1
50
109.12301675993695
51
128.4011562238808
0
ARC
8
0
10
21.31279948578999
20
24.123911439992327
40
0.555
50
43.50000000000084
51
106.93494882292312
0
ARC
8
0
10
21.312799485789984
20
24.123911439992334
40
0.555
50
-19.934948822923108
51
43.4999999999998
0
ARC
8
0
10
20.90816664902686
20
24.311278941065552
40
1
50
-41.40115622388182
51
-22.123016759937876
0
ARC
8
0
10
21.7747231747268
20
23.55541439289143
40
0.15
50
140.93140797117252
51
-136.50000000000034
0
ARC
8
0
10
76.39096125919079
20
76.39104942108615
40
76.14037268410976
50
-135.95045584941582
51
-135.54954415058333
0
ARC
8
0
10
22.143745242414113
20
23.176602644288597
40
0.15
50
-134.99999999999903
51
-52.43140797117035
0
ARC
8
0
10
22.876666969306612
20
22.290556838661967
40
1
50
110.62301675993741
51
129.90115622388103
0
ARC
8
0
10
22.699955727248025
20
22.699955727248035
40
0.555
50
45.00000000000026
51
108.43494882292282
0
ARC
8
0
10
22.69995572724802
20
22.69995572724804
40
0.555
50
-18.434948822922824
51
44.99999999999975
0
ARC
8
0
10
22.290556838661953
20
22.876666969306626
40
1
50
-39.90115622388104
51
-20.623016759937407
0
ARC
8
0
10
23.176602644288582
20
22.143745242414127
40
0.15
50
142.43140797117036
51
-135.00000000000097
0
ARC
8
0
10
76.39104942108598
20
76.39096125919096
40
76.14037268410976
50
-134.45045584941653
51
-134.04954415058404
0
ARC
8
0
10
23.555414392891414
20
21.774723174726823
40
0.15
50
-133.49999999999966
51
-50.93140797117252
0
ARC
8
0
10
24.311278941065538
20
20.90816664902688
40
1
50
112.1230167599379
51
131.40115622388183
0
ARC
8
0
10
24.12391143999232
20
21.312799485790006
40
0.555
50
46.500000000000206
51
109.9349488229231
0
ARC
8
0
10
24.123911439992312
20
21.31279948579001
40
0.555
50
-16.934948822922767
51
46.499999999999424
0
ARC
8
0
10
23.71002708113161
20
21.47873335977558
40
1
50
-38.401156223880825
51
-19.123016759936935
0
ARC
8
0
10
24.614954915148722
20
20.76925676210606
40
0.15
50
143.93140797117152
51
-133.5000000000006
0
ARC
8
0
10
76.39113986057872
20
76.39087543531694
40
76.14037268410976
50
-132.95045584941624
51
-132.5495441505838
0
ARC
8
0
10
25.00329672601664
20
20.41027728462643
40
0.15
50
-132.00000000000009
51
-49.43140797117281
0
ARC
8
0
10
25.781586063667334
20
19.56380393341042
40
1
50
113.62301675993754
51
132.90115622388146
0
ARC
8
0
10
25.58369071590551
20
19.96339340321615
40
0.555
50
47.999999999999936
51
111.43494882292288
0
ARC
8
0
10
25.583690715905508
20
19.963393403216152
40
0.555
50
-15.434948822923007
51
47.999999999999424
0
ARC
8
0
10
25.165604542435748
20
20.118436186340073
40
1
50
-36.90115622388129
51
-17.62301675993757
0
ARC
8
0
10
26.08879421250806
20
19.432890957714417
40
0.15
50
145.43140797117195
51
-132.00000000000009
0
ARC
8
0
10
76.39123251568819
20
76.39079200828166
40
76.14037268410976
50
-131.45045584941698
51
-131.04954415058452
0
ARC
8
0
10
26.486399935562016
20
19.084200097044874
40
0.15
50
-130.5
51
-47.931407971172426
0
ARC
8
0
10
27.286580662053677
20
18.25839005086543
40
1
50
115.12301675993744
51
134.40115622388115
0
ARC
8
0
10
27.07829309518952
20
18.652662295051098
40
0.555
50
49.50000000000072
51
112.93494882292349
0
ARC
8
0
10
27.07829309518951
20
18.652662295051105
40
0.555
50
-13.934948822923335
51
49.49999999999969
0
ARC
8
0
10
26.65629164249012
20
18.796707728734365
40
1
50
-35.401156223881095
51
-16.123016759937208
0
ARC
8
0
10
27.59711044053212
20
18.135563707608537
40
0.15
50
146.93140797117323
51
-130.5
0
ARC
8
0
10
76.39132732290975
20
76.39071103526487
40
76.14037268410976
50
-129.95045584941525
51
-129.5495441505827
0
ARC
8
0
10
28.003707576670465
20
17.797400439047447
40
0.15
50
-129.00000000000006
51
-46.431407971173016
0
ARC
8
0
10
28.82523128810308
20
16.99281966686009
40
1
50
116.62301675993736
51
135.9011562238813
0
ARC
8
0
10
28.606694252030707
20
17.38150447092387
40
0.555
50
51.00000000000053
51
114.43494882292292
0
ARC
8
0
10
28.6066942520307
20
17.381504470923872
40
0.555
50
-12.434948822923094
51
50.99999999999974
0
ARC
8
0
10
28.18106673881792
20
17.51445383362147
40
1
50
-33.90115622388112
51
-14.623016759937421
0
ARC
8
0
10
29.138869874620372
20
16.87816413508266
40
0.15
50
148.43140797117263
51
-129.00000000000006
0
ARC
8
0
10
76.39142421727388
20
76.3906325717559
40
76.14037268410976
50
-128.45045584941744
51
-128.04954415058504
0
ARC
8
0
10
29.55417976247578
20
16.550760218842782
40
0.15
50
-127.50000000000117
51
-44.93140797117365
0
ARC
8
0
10
30.396483427533557
20
15.767960140119067
40
1
50
118.1230167599377
51
137.40115622388151
0
ARC
8
0
10
30.16784669662133
20
16.15079111891149
40
0.555
50
52.500000000001094
51
115.93494882292345
0
ARC
8
0
10
30.16784669662132
20
16.150791118911496
40
0.555
50
-10.934948822923367
51
52.500000000000064
0
ARC
8
0
10
29.738884826732132
20
16.272553293771207
40
1
50
-32.40115622388151
51
-13.123016759937803
0
ARC
8
0
10
30.713015869869093
20
15.661553998995409
40
0.15
50
149.93140797117238
51
-127.49999999999967
0
ARC
8
0
10
76.39152313236703
20
76.39055667153546
40
76.14037268410976
50
-126.95045584941698
51
-126.54954415058451
0
ARC
8
0
10
31.136753876789797
20
15.345133821366629
40
0.15
50
-126.00000000000078
51
-43.43140797117073
0
ARC
8
0
10
31.999260222614716
20
14.584650928178775
40
1
50
119.62301675993767
51
138.9011562238813
0
ARC
8
0
10
31.760680493057336
20
14.96136570846981
40
0.555
50
54.000000000000576
51
117.43494882292308
0
ARC
8
0
10
31.760680493057333
20
14.961365708469812
40
0.555
50
-9.434948822922681
51
54.00000000000017
0
ARC
8
0
10
31.328678255530235
20
15.071857245779139
40
1
50
-30.901156223881188
51
-11.623016759937444
0
ARC
8
0
10
32.31846958524367
20
14.486567103162905
40
0.15
50
151.4314079711703
51
-126.00000000000121
0
ARC
8
0
10
76.3916240004003
20
76.39048338661958
40
76.14037268410976
50
-125.45045584941622
51
-125.04954415058374
0
ARC
8
0
10
32.75034530236585
20
14.181347522729482
40
0.15
50
-124.50000000000024
51
-41.93140797117118
0
ARC
8
0
10
33.63246321019164
20
13.44370301206551
40
1
50
121.12301675993788
51
140.40115622388157
0
ARC
8
0
10
33.38410399261842
20
13.814043412362071
40
0.555
50
55.50000000000053
51
118.93494882292303
0
ARC
8
0
10
33.38410399261842
20
13.814043412362075
40
0.555
50
-7.934948822923002
51
55.50000000000033
0
ARC
8
0
10
32.94935746020802
20
13.913188586740523
40
1
50
-29.40115622388135
51
-10.123016759937641
0
ARC
8
0
10
33.95413072296173
20
13.354008724911706
40
0.15
50
152.9314079711725
51
-124.49999999999987
0
ARC
8
0
10
76.39172675224609
20
76.39041276723253
40
76.14037268410976
50
-123.95045584941724
51
-123.5495441505848
0
ARC
8
0
10
34.39384816424155
20
13.060198923927992
40
0.15
50
-123.00000000000387
51
-40.43140797117178
0
ARC
8
0
10
35.29497307451694
20
12.34589834048935
40
1
50
122.62301675993784
51
141.90115622388154
0
ARC
8
0
10
35.03700458192979
20
12.709610547979988
40
0.555
50
56.99999999999998
51
120.43494882292273
0
ARC
8
0
10
35.037004581929786
20
12.709610547979993
40
0.555
50
-6.434948822923123
51
56.99999999999906
0
ARC
8
0
10
34.59981170819333
20
12.797341410277442
40
1
50
-27.901156223880754
51
-8.623016759937057
0
ARC
8
0
10
35.618878282582564
20
12.264655063181692
40
0.15
50
154.43140797117263
51
-123.00000000000085
0
ARC
8
0
10
76.39183131747859
20
76.39034486177658
40
76.14037268410976
50
-122.45045584941576
51
-122.04954415058327
0
ARC
8
0
10
36.06613608765015
20
11.982456404209172
40
0.15
50
-121.5000000000029
51
-38.931407971172746
0
ARC
8
0
10
36.98565041437384
20
11.291989293935638
40
1
50
124.12301675993804
51
143.40115622388174
0
ARC
8
0
10
36.71824944549177
20
11.648824038441163
40
0.555
50
58.49999999999957
51
121.93494882292235
0
ARC
8
0
10
36.71824944549177
20
11.648824038441164
40
0.555
50
-4.934948822922467
51
58.49999999999947
0
ARC
8
0
10
36.278909860586644
20
11.725080462306865
40
1
50
-26.401156223880697
51
-7.123016759936957
0
ARC
8
0
10
37.311571329284824
20
11.219252706558198
40
0.15
50
155.9314079711726
51
-121.50000000000023
0
ARC
8
0
10
76.39193762443887
20
76.39027971678753
40
76.14037268410976
50
-120.95045584941607
51
-120.54954415058369
0
ARC
8
0
10
37.766062969981526
20
10.948858594461626
40
0.15
50
-120.00000000000142
51
-37.43140797117198
0
ARC
8
0
10
38.70333652396476
20
10.282698169020984
40
1
50
125.6230167599388
51
144.9011562238822
0
ARC
8
0
10
38.42668634205484
20
10.632410893831803
40
0.555
50
59.99999999999887
51
123.43494882292187
0
ARC
8
0
10
38.42668634205485
20
10.632410893831802
40
0.555
50
-3.434948822921984
51
59.999999999999595
0
ARC
8
0
10
37.98550114738704
20
10.697140616921939
40
1
50
-24.901156223881046
51
-5.623016759937375
0
ARC
8
0
10
39.03104977580611
20
10.21851812159747
40
0.15
50
157.43140797117044
51
-120.00000000000175
0
ARC
8
0
10
76.39204560026812
20
76.39021737691345
40
76.14037268410976
50
-119.4504558494171
51
-119.04954415058461
0
ARC
8
0
10
39.49246376626392
20
9.960113870994693
40
0.15
50
-118.50000000000318
51
-35.93140797117207
0
ARC
8
0
10
40.44685418703064
20
9.318716683467073
40
1
50
127.12301675993845
51
146.40115622388205
0
ARC
8
0
10
40.1611443943086
20
9.661067712950157
40
0.555
50
61.50000000000001
51
124.93494882292218
0
ARC
8
0
10
40.1611443943086
20
9.661067712950157
40
0.555
50
-1.934948822922198
51
61.50000000000001
0
ARC
8
0
10
39.71841595617285
20
9.714226372745834
40
1
50
-23.401156223881436
51
-4.123016759937562
0
ARC
8
0
10
40.77613517750921
20
9.263137161796143
40
0.15
50
158.9314079711729
51
-118.50000000000016
0
ARC
8
0
10
76.39215517096316
20
76.39015788488008
40
76.14037268410976
50
-117.95045584941695
51
-117.54954415058447
0
ARC
8
0
10
41.2441552876271
20
9.01689987005301
40
0.15
50
-117.00000000000126
51
-34.43140797117151
0
ARC
8
0
10
42.21500848365578
20
8.400705502032235
40
1
50
128.62301675993749
51
147.90115622388137
0
ARC
8
0
10
41.92043489134205
20
8.735460205892803
40
0.555
50
63.00000000000158
51
126.43494882292384
0
ARC
8
0
10
41.92043489134203
20
8.735460205892812
40
0.555
50
-0.43494882292429404
51
62.99999999999986
0
ARC
8
0
10
41.476466633695054
20
8.77701137010391
40
1
50
-21.90115622388087
51
-2.6230167599370375
0
ARC
8
0
10
42.545631540028666
20
8.35376459754178
40
0.15
50
160.43140797117206
51
-117.00000000000402
0
ARC
8
0
10
76.3922662614298
20
76.39010128146013
40
76.14037268410976
50
-116.45045584941587
51
-116.04954415058337
0
ARC
8
0
10
43.01993701220132
20
8.119863023398223
40
0.15
50
-115.50000000000139
51
-32.93140797117147
0
ARC
8
0
10
44.006587609206605
20
7.529293783724551
40
1
50
130.1230167599382
51
149.40115622388177
0
ARC
8
0
10
43.70335210332703
20
7.8562227378099205
40
0.555
50
64.50000000000067
51
127.93494882292319
0
ARC
8
0
10
43.70335210332702
20
7.856222737809925
40
0.555
50
1.0650511770767905
51
64.49999999999982
0
ARC
8
0
10
43.25844829983589
20
7.886137929344069
40
1
50
-20.401156223881248
51
-1.1230167599375174
0
ARC
8
0
10
44.338326138945924
20
7.491023667365753
40
0.15
50
161.93140797117263
51
-115.49999999999848
0
ARC
8
0
10
76.39237879553531
20
76.39004760544522
40
76.14037268410976
50
-114.95045584941643
51
-114.54954415058396
0
ARC
8
0
10
44.81859190789479
20
7.269618115277035
40
0.15
50
-114.00000000000024
51
-31.4314079711734
0
ARC
8
0
10
45.82036370484178
20
6.705078750607737
40
1
50
131.62301675993777
51
150.90115622388146
0
ARC
8
0
10
45.50867410786517
20
7.023957894143262
40
0.555
50
66.0000000000007
51
129.43494882292416
0
ARC
8
0
10
45.508674107865154
20
7.023957894143266
40
0.555
50
2.56505117707621
51
65.99999999999916
0
ARC
8
0
10
45.06313967337336
20
7.042216610622473
40
1
50
-18.90115622388259
51
0.3769832400612208
0
ARC
8
0
10
46.15299035092998
20
6.675505650806718
40
0.15
50
163.43140797117326
51
-114.00000000000024
0
ARC
8
0
10
76.39249269615084
20
76.3899968936239
40
76.14037268410976
50
-113.45045584941569
51
-113.0495441505832
0
ARC
8
0
10
46.63888726648684
20
6.466747861078794
40
0.15
50
-112.50000000000055
51
-29.93140797117216
0
ARC
8
0
10
47.655093699025535
20
5.928625278495051
40
1
50
133.12301675993768
51
152.40115622388146
0
ARC
8
0
10
47.33516362743239
20
6.2392360676441
40
0.555
50
67.50000000000045
51
130.93494882292254
0
ARC
8
0
10
47.33516362743238
20
6.239236067644102
40
0.555
50
4.065051177077652
51
67.4999999999997
0
ARC
8
0
10
46.88930390898636
20
6.245825795456122
40
1
50
-17.401156223881706
51
1.8769832400620938
0
ARC
8
0
10
47.98838049577445
20
5.9077694631772
40
0.15
50
164.93140797117292
51
-112.50000000000043
0
ARC
8
0
10
76.39260788521818
20
76.38994918074998
40
76.14037268410976
50
-111.95045584941654
51
-111.54954415058411
0
ARC
8
0
10
48.47957554846441
20
5.711802507971475
40
0.15
50
-110.99999999999939
51
-28.43140797117373
0
ARC
8
0
10
49.50952015946658
20
5.200465509811553
40
1
50
134.62301675993692
51
153.9011562238808
0
ARC
8
0
10
49.181568877347125
20
5.502595067454629
40
0.555
50
69.00000000000102
51
132.43494882292316
0
ARC
8
0
10
49.18156887734711
20
5.502595067454635
40
0.555
50
5.5650511770763345
51
68.99999999999942
0
ARC
8
0
10
48.73568944492672
20
5.497511290329168
40
1
50
-15.901156223880982
51
3.3769832400627724
0
ARC
8
0
10
49.84323868875378
20
5.188341272510931
40
0.15
50
166.43140797117277
51
-110.99999999999952
0
ARC
8
0
10
76.39272428379041
20
76.38990449952439
40
76.14037268410976
50
-110.45045584941732
51
-110.04954415058485
0
ARC
8
0
10
50.33939523802357
20
5.005299457789694
40
0.15
50
-109.49999999999937
51
-26.93140797117316
0
ARC
8
0
10
51.38237215489973
20
4.52109848889029
40
1
50
136.1230167599366
51
155.40115622388066
0
ARC
8
0
10
51.046624423681195
20
4.814539750520279
40
0.555
50
70.50000000000114
51
133.9349488229239
0
ARC
8
0
10
51.04662442368117
20
4.814539750520284
40
0.555
50
7.065051177076105
51
70.49999999999888
0
ARC
8
0
10
50.60103086077721
20
4.7977859526242534
40
1
50
-14.401156223881022
51
4.876983240062755
0
ARC
8
0
10
51.71629370271484
20
4.517714138953513
40
0.15
50
167.93140797117334
51
-109.49999999999926
0
ARC
8
0
10
76.39284181209084
20
76.38986288057042
40
76.14037268410976
50
-108.95045584941563
51
-108.54954415058316
0
ARC
8
0
10
52.21707170764913
20
4.347722912433471
40
0.15
50
-107.99999999999883
51
-25.431407971173144
0
ARC
8
0
10
53.272366126118314
20
3.890989819952301
40
1
50
137.62301675993746
51
156.90115622388126
0
ARC
8
0
10
52.929052050524675
20
4.1755416755861745
40
0.555
50
71.99999999999973
51
135.43494882292222
0
ARC
8
0
10
52.929052050524675
20
4.175541675586175
40
0.555
50
8.565051177077777
51
71.99999999999972
0
ARC
8
0
10
52.48404974470725
20
4.147129339135795
40
1
50
-12.901156223880434
51
6.37698324006339
0
ARC
8
0
10
53.60626183931221
20
3.8963476768437535
40
0.15
50
169.43140797117297
51
-107.99999999999889
0
ARC
8
0
10
76.39296038957711
20
76.38982435240959
40
76.14037268410976
50
-107.45045584941606
51
-107.04954415058359
0
ARC
8
0
10
54.11131809168083
20
3.739523542020296
40
0.15
50
-106.50000000000153
51
-23.93140797117309
0
ARC
8
0
10
55.17820676566175
20
3.31057134800463
40
1
50
139.1230167599389
51
158.40115622388242
0
ARC
8
0
10
54.8275616360115
20
3.5860387800142233
40
0.555
50
73.50000000000043
51
136.93494882292254
0
ARC
8
0
10
54.8275616360115
20
3.586038780014224
40
0.555
50
10.065051177077468
51
73.5000000000004
0
ARC
8
0
10
54.383455569632666
20
3.5459873774056705
40
1
50
-11.401156223880959
51
7.876983240062833
0
ARC
8
0
10
55.51184780879106
20
3.32466773971682
40
0.15
50
170.93140797117303
51
-106.49999999999879
0
ARC
8
0
10
76.39307993498099
20
76.38978894144772
40
76.14037268410976
50
-105.95045584941764
51
-105.54954415058515
0
ARC
8
0
10
56.02083616826675
20
3.181118176018402
40
0.15
50
-105.00000000000017
51
-22.431407971171772
0
ARC
8
0
10
57.09858790555453
20
2.7802408628753494
40
1
50
140.6230167599381
51
159.90115622388177
0
ARC
8
0
10
56.74085203650446
20
3.046435079642699
40
0.555
50
75.00000000000036
51
138.43494882292336
0
ARC
8
0
10
56.74085203650445
20
3.0464350796427
40
0.555
50
11.5650511770769
51
74.99999999999962
0
ARC
8
0
10
56.2979465776785
20
2.9947720601067096
40
1
50
-9.901156223881625
51
9.376983240062087
0
ARC
8
0
10
57.431745617714064
20
2.8030661284455554
40
0.15
50
172.43140797117286
51
-105.00000000000004
0
ARC
8
0
10
76.39320036636661
20
76.38975667195521
40
76.14037268410976
50
-104.45045584941612
51
-104.04954415058363
0
ARC
8
0
10
57.94431724909978
20
2.672889517572704
40
0.15
50
-103.49999999999623
51
-20.93140797117282
0
ARC
8
0
10
59.03219341248859
20
2.3003618265884227
40
1
50
142.1230167599375
51
161.40115622388123
0
ARC
8
0
10
58.667611978334016
20
2.557100391894046
40
0.555
50
76.50000000000081
51
139.9349488229231
0
ARC
8
0
10
58.66761197833401
20
2.5571003918940476
40
0.555
50
13.065051177076894
51
76.50000000000007
0
ARC
8
0
10
58.226210672338816
20
2.493861162683597
40
1
50
-8.40115622388276
51
10.876983240061026
0
ARC
8
0
10
59.364639464024016
20
2.3319003227197705
40
0.15
50
173.93140797117331
51
-103.49999999999619
0
ARC
8
0
10
76.39332160120307
20
76.38972756604613
40
76.14037268410976
50
-102.9504558494168
51
-102.54954415058435
0
ARC
8
0
10
59.88044307632707
20
2.2151858812191083
40
0.15
50
-101.99999999999956
51
-19.431407971172977
0
ARC
8
0
10
60.97769808983514
20
1.871263124264836
40
1
50
143.6230167599373
51
162.90115622388112
0
ARC
8
0
10
60.606520956479784
20
2.118370082320448
40
0.555
50
78.0000000000004
51
141.43494882292327
0
ARC
8
0
10
60.60652095647977
20
2.1183700823204505
40
0.555
50
14.565051177076535
51
77.9999999999989
0
ARC
8
0
10
60.16692631772198
20
2.043597984444311
40
1
50
-6.901156223880592
51
12.37698324006323
0
ARC
8
0
10
61.3092046388288
20
1.9114932360474517
40
0.15
50
175.43140797117272
51
-101.99999999999959
0
ARC
8
0
10
76.39344355639612
20
76.38970164366961
40
76.14037268410976
50
-101.45045584941512
51
-101.04954415058262
0
ARC
8
0
10
61.8278867260184
20
1.8083209541671588
40
0.15
50
-100.49999999999802
51
-17.93140797117251
0
ARC
8
0
10
62.93376858586859
20
1.4932388387211843
40
1
50
145.12301675993717
51
164.40115622388097
0
ARC
8
0
10
62.556250139578935
20
1.730544834760987
40
0.555
50
79.49999999999955
51
142.93494882292163
0
ARC
8
0
10
62.55625013957895
20
1.7305448347609849
40
0.555
50
16.065051177078537
51
79.50000000000104
0
ARC
8
0
10
62.1187634442657
20
1.6442911132801659
40
1
50
-5.40115622388154
51
13.876983240062259
0
ARC
8
0
10
63.264108434290925
20
1.542132994445992
40
0.15
50
176.93140797117218
51
-100.50000000000077
0
ARC
8
0
10
76.39356614837064
20
76.38967892259012
40
76.14037268410976
50
-99.95045584941626
51
-99.54954415058377
0
ARC
8
0
10
63.785313517573215
20
1.452573581314484
40
0.15
50
-99.00000000000077
51
-16.431407971172433
0
ARC
8
0
10
64.89906430757881
20
1.1665480489200362
40
1
50
146.6230167599371
51
165.90115622388097
0
ARC
8
0
10
64.51546328064049
20
1.3938904452680503
40
0.555
50
81.00000000000011
51
144.4349488229216
0
ARC
8
0
10
64.51546328064049
20
1.3938904452680492
40
0.555
50
17.565051177078338
51
81.00000000000014
0
ARC
8
0
10
64.08038436029982
20
1.296214214174749
40
1
50
-3.901156223881418
51
15.376983240062208
0
ARC
8
0
10
65.22801105699855
20
1.2240727389750183
40
0.15
50
178.43140797117277
51
-99.00000000000072
0
ARC
8
0
10
76.39368929310471
20
76.38965941838035
40
76.14037268410976
50
-98.45045584941757
51
-98.04954415058512
0
ARC
8
0
10
65.75138192844419
20
1.1481875741404663
40
0.15
50
-97.50000000000212
51
-14.931407971172549
0
ARC
8
0
10
66.87223833944681
20
0.8914146524101347
40
1
50
148.12301675993575
51
167.40115622387987
0
ARC
8
0
10
66.4828176328424
20
1.1086376399439413
40
0.555
50
82.49999999999952
51
145.93494882292276
0
ARC
8
0
10
66.4828176328424
20
1.1086376399439413
40
0.555
50
19.065051177077123
51
82.49999999999952
0
ARC
8
0
10
66.05044466883362
20
0.9996058416479496
40
1
50
-2.401156223884104
51
16.876983240059566
0
ARC
8
0
10
67.19956654619315
20
0.9575304522461681
40
0.15
50
179.93140797117283
51
-97.49999999999669
0
ARC
8
0
10
76.3938129061978
20
76.38964314440794
40
76.14037268410976
50
-96.95045584941657
51
-96.54954415058408
0
ARC
8
0
10
67.72474451354988
20
0.8953715436100144
40
0.15
50
-96.00000000000065
51
-13.431407971173012
0
ARC
8
0
10
68.85193836655347
20
0.668027211878293
40
1
50
149.6230167599372
51
168.90115622388095
0
ARC
8
0
10
68.45696486978323
20
0.8749819168127166
40
0.555
50
84.00000000000007
51
147.4349488229223
0
ARC
8
0
10
68.45696486978323
20
0.8749819168127165
40
0.555
50
20.565051177077443
51
84.00000000000007
0
ARC
8
0
10
68.02759418893838
20
0.7546692762622629
40
1
50
-0.9011562238822562
51
18.37698324006137
0
ARC
8
0
10
69.17742369622391
20
0.7426888090286906
40
0.15
50
-178.5685920288276
51
-96.00000000000068
0
ARC
8
0
10
76.39393690293736
20
76.38963011182548
40
76.14037268410976
50
-95.4504558494176
51
-95.04954415058518
0
ARC
8
0
10
69.70404882874598
20
0.694298757202003
40
0.15
50
-94.50000000000254
51
-11.931407971171613
0
ARC
8
0
10
70.83680760138827
20
0.49653882591773074
40
1
50
151.12301675993615
51
170.40115622388012
0
ARC
8
0
10
70.43655200955759
20
0.693083411835676
40
0.555
50
85.50000000000205
51
148.93494882292438
0
ARC
8
0
10
70.43655200955756
20
0.6930834118356778
40
0.555
50
22.065051177075556
51
85.49999999999909
0
ARC
8
0
10
70.01047788109375
20
0.5615723853048405
40
1
50
0.5988437761186493
51
19.876983240062447
0
ARC
8
0
10
71.16022698259624
20
0.5796950510532669
40
0.15
50
-177.06859202882768
51
-94.50000000000254
0
ARC
8
0
10
76.39406119833464
20
76.38962032956557
40
76.14037268410976
50
-93.95045584941494
51
-93.54954415058246
0
ARC
8
0
10
71.6879383577235
20
0.5451070201604492
40
0.15
50
-93.00000000000017
51
-10.431407971172158
0
ARC
8
0
10
72.82548571372428
20
0.37706702410220216
40
1
50
152.62301675993567
51
171.90115622387967
0
ARC
8
0
10
72.42022234202253
20
0.5630667891620595
40
0.555
50
86.99999999999997
51
150.43494882292148
0
ARC
8
0
10
72.42022234202253
20
0.5630667891620594
40
0.555
50
23.565051177078185
51
86.99999999999997
0
ARC
8
0
10
71.99773677586451
20
0.4204475077393474
40
1
50
2.0988437761192507
51
21.376983240063083
0
ARC
8
0
10
73.14661749098104
20
0.4686608860999107
40
0.15
50
-175.56859202882742
51
-93.00000000000017
0
ARC
8
0
10
76.39418570721459
20
76.38961380433166
40
76.14037268410976
50
-92.45045584941667
51
-92.04954415058417
0
ARC
8
0
10
73.6750534416967
20
0.44789858104959057
40
0.15
50
-91.49999999999838
51
-8.93140797117269
0
ARC
8
0
10
74.81660976291994
20
0.30969368643694867
40
1
50
154.12301675993947
51
173.40115622388308
0
ARC
8
0
10
74.40661635861872
20
0.4850211556906066
40
0.555
50
88.49999999999986
51
151.93494882292268
0
ARC
8
0
10
74.40661635861872
20
0.48502115569060644
40
0.555
50
25.06505117707739
51
88.49999999999986
0
ARC
8
0
10
73.98800890526992
20
0.3313913635074801
40
1
50
3.598843776119927
51
22.876983240063737
0
ARC
8
0
10
75.13523384854624
20
0.40966241143896537
40
0.15
50
-174.06859202882745
51
-91.49999999999838
0
ARC
8
0
10
76.39431034423741
20
76.38961054059638
40
76.14037268410976
50
-90.95045584941707
51
-90.5495441505846
0
ARC
8
0
10
75.6640322112456
20
0.40274006167793797
40
0.15
50
-90
51
-7.431407971172835
0
ARC
8
0
10
76.80881513201072
20
0.29446498724206965
40
1
50
155.6230167599363
51
174.9011562238801
0
ARC
8
0
10
76.39437268410975
20
0.45900000000000996
40
0.555
50
90
51
153.43494882292282
0
ARC
8
0
10
76.39437268410975
20
0.45900000000000996
40
0.555
50
26.565051177077173
51
90
0
ARC
8
0
10
75.97993023620879
20
0.2944649872420691
40
1
50
5.098843776119954
51
24.37698324006372
0
ARC
8
0
10
77.12471315697391
20
0.4027400616779385
40
0.15
50
-172.5685920288272
51
-90
0
ARC
8
0
10
76.39443502398274
20
76.38961054059638
40
76.14037268410976
50
-89.45045584941587
51
-89.04954415058343
0
ARC
8
0
10
77.65351151967327
20
0.4096624114389651
40
0.15
50
-88.50000000000163
51
-5.9314079711725265
0
ARC
8
0
10
78.80073646294959
20
0.3313913635074797
40
1
50
157.12301675993623
51
176.40115622388006
0
ARC
8
0
10
78.38212900960079
20
0.48502115569060633
40
0.555
50
91.50000000000014
51
154.9349488229226
0
ARC
8
0
10
78.38212900960079
20
0.48502115569060655
40
0.555
50
28.065051177077326
51
91.50000000000014
0
ARC
8
0
10
77.97213560529957
20
0.3096936864369484
40
1
50
6.598843776116935
51
25.876983240060536
0
ARC
8
0
10
79.1136919265228
20
0.4478985810495908
40
0.15
50
-171.06859202882737
51
-88.50000000000163
0
ARC
8
0
10
76.39455966100537
20
76.38961380433167
40
76.14037268410976
50
-87.95045584941617
51
-87.54954415058369
0
ARC
8
0
10
79.64212787723847
20
0.46866088609991097
40
0.15
50
-86.99999999999984
51
-4.431407971172542
0
ARC
8
0
10
80.791008592355
20
0.42044750773934736
40
1
50
158.62301675993692
51
177.90115622388075
0
ARC
8
0
10
80.36852302619698
20
0.5630667891620593
40
0.555
50
93.00000000000001
51
156.4349488229218
0
ARC
8
0
10
80.36852302619698
20
0.5630667891620595
40
0.555
50
29.565051177078523
51
93.00000000000001
0
ARC
8
0
10
79.96325965449523
20
0.3770670241022018
40
1
50
8.098843776120328
51
27.376983240064366
0
ARC
8
0
10
81.10080701049601
20
0.545107020160449
40
0.15
50
-169.56859202882788
51
-86.99999999999983
0
ARC
8
0
10
76.39468416988485
20
76.38962032956557
40
76.14037268410976
50
-86.45045584941752
51
-86.0495441505851
0
ARC
8
0
10
81.62851838562321
20
0.579695051053267
40
0.15
50
-85.49999999999748
51
-2.9314079711723706
0
ARC
8
0
10
82.7782674871257
20
0.5615723853048409
40
1
50
160.12301675993757
51
179.40115622388137
0
ARC
8
0
10
82.35219335866188
20
0.6930834118356642
40
0.555
50
94.50000000000091
51
157.9349488229226
0
ARC
8
0
10
82.35219335866188
20
0.6930834118356634
40
0.555
50
31.0650511770775
51
94.50000000000091
0
ARC
8
0
10
81.95193776683118
20
0.4965388259177304
40
1
50
9.59884377611989
51
28.87698324006387
0
ARC
8
0
10
83.08469653947347
20
0.6942987572020028
40
0.15
50
-168.06859202882842
51
-85.49999999999744
0
ARC
8
0
10
76.39480846528356
20
76.38963011182561
40
76.14037268410976
50
-84.95045584941593
51
-84.54954415058347
0
ARC
8
0
10
83.6113216719956
20
0.7426888090286896
40
0.15
50
-83.99999999999932
51
-1.4314079711722472
0
ARC
8
0
10
84.76115117928113
20
0.7546692762622631
40
1
50
161.62301675993865
51
-179.0988437761177
0
ARC
8
0
10
84.33178049843627
20
0.8749819168127165
40
0.555
50
95.99999999999993
51
159.43494882292256
0
ARC
8
0
10
84.33178049843627
20
0.8749819168127166
40
0.555
50
32.565051177077706
51
95.99999999999993
0
ARC
8
0
10
83.93680700166604
20
0.6680272118782931
40
1
50
11.098843776119054
51
30.376983240062813
0
ARC
8
0
10
85.06400085466963
20
0.8953715436100141
40
0.15
50
-166.56859202882703
51
-83.99999999999935
0
ARC
8
0
10
76.39493246202314
20
76.38964314440811
40
76.14037268410976
50
-83.45045584941698
51
-83.04954415058445
0
ARC
8
0
10
85.58917882202641
20
0.9575304522461676
40
0.15
50
-82.50000000000333
51
0.06859202882722973
0
ARC
8
0
10
86.73830069938595
20
0.9996058416479499
40
1
50
163.12301675994044
51
-177.59884377611587
0
ARC
8
0
10
86.30592773537717
20
1.1086376399439395
40
0.555
50
97.49999999999902
51
160.9349488229227
0
ARC
8
0
10
86.30592773537717
20
1.1086376399439397
40
0.555
50
34.0650511770774
51
97.49999999999902
0
ARC
8
0
10
85.91650702877276
20
0.8914146524101335
40
1
50
12.59884377612026
51
31.87698324006432
0
ARC
8
0
10
87.03736343977538
20
1.148187574140467
40
0.15
50
-165.06859202882745
51
-82.4999999999979
0
ARC
8
0
10
76.39505607511632
20
76.38965941838057
40
76.14037268410976
50
-81.95045584941602
51
-81.5495441505836
0
ARC
8
0
10
87.56073431122095
20
1.2240727389750041
40
0.15
50
-80.99999999999928
51
1.568592028827243
0
ARC
8
0
10
88.70836100791969
20
1.296214214174735
40
1
50
164.6230167599378
51
-176.09884377611857
0
ARC
8
0
10
88.27328208757902
20
1.39389044526805
40
0.555
50
98.99999999999989
51
162.43494882292316
0
ARC
8
0
10
88.27328208757902
20
1.393890445268049
40
0.555
50
35.565051177077315
51
98.99999999999986
0
ARC
8
0
10
87.8896810606407
20
1.1665480489200228
40
1
50
14.098843776119011
51
33.37698324006287
0
ARC
8
0
10
89.0034318506463
20
1.4525735813144698
40
0.15
50
-163.56859202882754
51
-80.99999999999923
0
ARC
8
0
10
76.39517921984944
20
76.3896789225902
40
76.14037268410976
50
-80.45045584941667
51
-80.04954415058418
0
ARC
8
0
10
89.52463693392858
20
1.542132994445977
40
0.15
50
-79.4999999999938
51
3.068592028828088
0
ARC
8
0
10
90.66998192395381
20
1.6442911132801101
40
1
50
166.12301675993535
51
-174.5988437761209
0
ARC
8
0
10
90.23249522864059
20
1.7305448347609884
40
0.555
50
100.50000000000192
51
163.93494882292362
0
ARC
8
0
10
90.23249522864057
20
1.7305448347609864
40
0.555
50
37.065051177076846
51
100.50000000000044
0
ARC
8
0
10
89.85497678235092
20
1.4932388387211877
40
1
50
15.598843776118066
51
34.87698324006177
0
ARC
8
0
10
90.9608586422011
20
1.808320954167142
40
0.15
50
-162.06859202882757
51
-79.4999999999938
0
ARC
8
0
10
76.39530181182192
20
76.38970164366931
40
76.14037268410976
50
-78.95045584941624
51
-78.54954415058383
0
ARC
8
0
10
91.47954072939065
20
1.9114932360474362
40
0.15
50
-78.0000000000003
51
4.5685920288280375
0
ARC
8
0
10
92.62181905049746
20
2.0435979844442973
40
1
50
167.62301675993677
51
-173.09884377611937
0
ARC
8
0
10
92.18222441173967
20
2.1183700823204363
40
0.555
50
102.00000000000038
51
165.4349488229233
0
ARC
8
0
10
92.18222441173965
20
2.1183700823204337
40
0.555
50
38.56505117707623
51
101.99999999999888
0
ARC
8
0
10
91.81104727838431
20
1.8712631242648206
40
1
50
17.098843776118983
51
36.37698324006275
0
ARC
8
0
10
92.90830229189238
20
2.215185881219093
40
0.15
50
-160.56859202882842
51
-78.00000000000034
0
ARC
8
0
10
76.39542376701708
20
76.38972756604628
40
76.14037268410976
50
-77.45045584941619
51
-77.04954415058371
0
ARC
8
0
10
93.42410590419549
20
2.331900322719767
40
0.15
50
-76.49999999999822
51
6.068592028828044
0
ARC
8
0
10
94.5625346958807
20
2.493861162683555
40
1
50
169.1230167599366
51
-171.59884377611976
0
ARC
8
0
10
94.1211333898855
20
2.5571003918940494
40
0.555
50
103.49999999999999
51
166.93494882292313
0
ARC
8
0
10
94.12113338988549
20
2.557100391894046
40
0.555
50
40.06505117707645
51
103.4999999999985
0
ARC
8
0
10
93.75655195573093
20
2.300361826588407
40
1
50
18.598843776119566
51
37.87698324006347
0
ARC
8
0
10
94.84442811911973
20
2.6728895175727017
40
0.15
50
-159.06859202882669
51
-76.49999999999832
0
ARC
8
0
10
76.39554500185363
20
76.3897566719554
40
76.14037268410976
50
-75.95045584941694
51
-75.54954415058441
0
ARC
8
0
10
95.35699975050552
20
2.8030661284455674
40
0.15
50
-74.99999999999979
51
7.568592028828355
0
ARC
8
0
10
96.49079879054108
20
2.9947720601067034
40
1
50
170.6230167599367
51
-170.09884377611954
0
ARC
8
0
10
96.04789333171514
20
3.0464350796427184
40
0.555
50
105.00000000000263
51
168.43494882292367
0
ARC
8
0
10
96.04789333171513
20
3.0464350796427144
40
0.555
50
41.56505117707702
51
105.00000000000111
0
ARC
8
0
10
95.69015746266506
20
2.7802408628753486
40
1
50
20.09884377611904
51
39.37698324006283
0
ARC
8
0
10
96.76790919995284
20
3.1811181760184164
40
0.15
50
-157.56859202882805
51
-74.99999999999983
0
ARC
8
0
10
76.39566543324051
20
76.38978894144827
40
76.14037268410976
50
-74.45045584941636
51
-74.04954415058394
0
ARC
8
0
10
97.27689755942846
20
3.3246677397168036
40
0.15
50
-73.50000000000097
51
9.068592028828236
0
ARC
8
0
10
98.40528979858685
20
3.5459873774056567
40
1
50
172.12301675993723
51
-168.59884377611905
0
ARC
8
0
10
97.96118373220801
20
3.5860387800142126
40
0.555
50
106.50000000000038
51
169.93494882292282
0
ARC
8
0
10
97.96118373220801
20
3.586038780014211
40
0.555
50
43.065051177077336
51
106.50000000000033
0
ARC
8
0
10
97.61053860255778
20
3.3105713480045993
40
1
50
21.598843776118645
51
40.876983240062366
0
ARC
8
0
10
98.6774272765387
20
3.739523542020284
40
0.15
50
-156.06859202882646
51
-73.50000000000125
0
ARC
8
0
10
76.39578497864268
20
76.38982435240968
40
76.14037268410976
50
-72.95045584941666
51
-72.54954415058418
0
ARC
8
0
10
99.1824835289073
20
3.8963476768437415
40
0.15
50
-72.00000000000138
51
10.568592028825698
0
ARC
8
0
10
100.30469562351226
20
4.147129339135802
40
1
50
173.6230167599378
51
-167.09884377611826
0
ARC
8
0
10
99.85969331769483
20
4.175541675586174
40
0.555
50
107.99999999999956
51
171.43494882292353
0
ARC
8
0
10
99.85969331769482
20
4.175541675586169
40
0.555
50
44.565051177076086
51
107.99999999999802
0
ARC
8
0
10
99.51637924210118
20
3.890989819952301
40
1
50
23.098843776117842
51
42.376983240061385
0
ARC
8
0
10
100.57167366057037
20
4.347722912433457
40
0.15
50
-154.56859202882686
51
-72.00000000000117
0
ARC
8
0
10
76.3959035561281
20
76.38986288057022
40
76.14037268410976
50
-71.4504558494164
51
-71.04954415058391
0
ARC
8
0
10
101.07245166550467
20
4.51771413895351
40
0.15
50
-70.49999999999761
51
12.06859202882856
0
ARC
8
0
10
102.1877145074423
20
4.797785952624254
40
1
50
175.1230167599373
51
-165.59884377611883
0
ARC
8
0
10
101.74212094453833
20
4.814539750520269
40
0.555
50
109.50000000000041
51
172.93494882292228
0
ARC
8
0
10
101.74212094453833
20
4.814539750520268
40
0.555
50
46.06505117707793
51
109.50000000000037
0
ARC
8
0
10
101.40637321331978
20
4.52109848889029
40
1
50
24.598843776119356
51
43.87698324006337
0
ARC
8
0
10
102.44935013019594
20
5.005299457789692
40
0.15
50
-153.06859202882745
51
-70.49999999999784
0
ARC
8
0
10
76.39602108443069
20
76.38990449952497
40
76.14037268410976
50
-69.95045584941641
51
-69.54954415058398
0
ARC
8
0
10
102.94550667946568
20
5.188341272510899
40
0.15
50
-69.00000000000014
51
13.568592028829176
0
ARC
8
0
10
104.05305592329273
20
5.49751129032914
40
1
50
176.62301675993723
51
-164.09884377611905
0
ARC
8
0
10
103.60717649087233
20
5.502595067454592
40
0.555
50
110.99999999999986
51
174.43494882292202
0
ARC
8
0
10
103.60717649087233
20
5.5025950674545925
40
0.555
50
47.56505117707739
51
110.9999999999999
0
ARC
8
0
10
103.27922520875288
20
5.200465509811525
40
1
50
26.09884377611919
51
45.37698324006309
0
ARC
8
0
10
104.30916981975506
20
5.711802507971444
40
0.15
50
-151.56859202882845
51
-69.00000000000038
0
ARC
8
0
10
76.39613748300096
20
76.38994918074982
40
76.14037268410976
50
-68.45045584941563
51
-68.04954415058313
0
ARC
8
0
10
104.80036487244513
20
5.907769463177219
40
0.15
50
-67.50000000000787
51
15.068592028825858
0
ARC
8
0
10
105.8994414592332
20
6.245825795456157
40
1
50
178.12301675993908
51
-162.59884377611706
0
ARC
8
0
10
105.45358174078719
20
6.239236067644116
40
0.555
50
112.50000000000028
51
175.93494882292237
0
ARC
8
0
10
105.45358174078719
20
6.239236067644117
40
0.555
50
49.06505117707733
51
112.50000000000033
0
ARC
8
0
10
105.13365166919404
20
5.9286252784950655
40
1
50
27.598843776118553
51
46.8769832400623
0
ARC
8
0
10
106.14985810173273
20
6.466747861078811
40
0.15
50
-150.06859202882697
51
-67.50000000000234
0
ARC
8
0
10
76.39625267206955
20
76.38999689362429
40
76.14037268410976
50
-66.95045584941748
51
-66.549544150585
0
ARC
8
0
10
106.63575501728958
20
6.67550565080673
40
0.15
50
-65.99999999999686
51
16.56859202882775
0
ARC
8
0
10
107.72560569484621
20
7.042216610622467
40
1
50
179.6230167599376
51
-161.0988437761185
0
ARC
8
0
10
107.28007126035442
20
7.023957894143277
40
0.555
50
114.00000000000003
51
177.43494882292345
0
ARC
8
0
10
107.2800712603544
20
7.023957894143273
40
0.555
50
50.56505117707602
51
113.99999999999852
0
ARC
8
0
10
106.96838166337778
20
6.705078750607764
40
1
50
29.098843776117924
51
48.37698324006146
0
ARC
8
0
10
107.97015346032478
20
7.2696181152770505
40
0.15
50
-148.56859202882774
51
-66.00000000000223
0
ARC
8
0
10
76.39636657268628
20
76.39004760544617
40
76.14037268410976
50
-65.45045584941772
51
-65.04954415058529
0
ARC
8
0
10
108.45041922927359
20
7.491023667365736
40
0.15
50
-64.49999999999618
51
18.068592028827524
0
ARC
8
0
10
109.53029706838362
20
7.886137929344075
40
1
50
-178.87698324006135
51
-159.59884377611738
0
ARC
8
0
10
109.0853932648925
20
7.856222737809918
40
0.555
50
115.5000000000025
51
178.93494882292396
0
ARC
8
0
10
109.08539326489249
20
7.856222737809913
40
0.555
50
52.065051177075794
51
115.50000000000098
0
ARC
8
0
10
108.78215775901292
20
7.529293783724537
40
1
50
30.598843776118233
51
49.87698324006182
0
ARC
8
0
10
109.7688083560182
20
8.119863023398215
40
0.15
50
-147.06859202882475
51
-64.50000000000195
0
ARC
8
0
10
76.39647910678787
20
76.39010128145924
40
76.14037268410976
50
-63.950455849415086
51
-63.549544150582605
0
ARC
8
0
10
110.24311382819086
20
8.353764597541788
40
0.15
50
-63.00000000000721
51
19.568592028826284
0
ARC
8
0
10
111.31227873452447
20
8.777011370103914
40
1
50
-177.37698324006288
51
-158.0988437761192
0
ARC
8
0
10
110.86831047687748
20
8.735460205892801
40
0.555
50
117.00000000000097
51
-179.56505117707698
0
ARC
8
0
10
110.86831047687747
20
8.735460205892798
40
0.555
50
53.56505117707649
51
116.99999999999949
0
ARC
8
0
10
110.57373688456374
20
8.400705502032222
40
1
50
32.09884377611931
51
51.37698324006329
0
ARC
8
0
10
111.54459008059241
20
9.016899870053017
40
0.15
50
-145.56859202882526
51
-63.00000000000206
0
ARC
8
0
10
76.39659019725887
20
76.3901578848814
40
76.14037268410976
50
-62.450455849417665
51
-62.04954415058524
0
ARC
8
0
10
112.01261019071025
20
9.263137161796097
40
0.15
50
-61.499999999999204
51
21.068592028829368
0
ARC
8
0
10
113.0703294120466
20
9.714226372745792
40
1
50
-175.87698324006243
51
-156.59884377611857
0
ARC
8
0
10
112.62760097391086
20
9.661067712950125
40
0.555
50
118.49999999999983
51
-178.06505117707675
0
ARC
8
0
10
112.62760097391084
20
9.661067712950121
40
0.555
50
55.065051177076214
51
118.49999999999835
0
ARC
8
0
10
112.34189118118883
20
9.31871668346703
40
1
50
33.5988437761182
51
52.87698324006188
0
ARC
8
0
10
113.29628160195554
20
9.960113870994654
40
0.15
50
-144.06859202882683
51
-61.49999999999986
0
ARC
8
0
10
76.39669976795275
20
76.39021737691421
40
76.14037268410976
50
-60.95045584941663
51
-60.54954415058409
0
ARC
8
0
10
113.7576955924134
20
10.218518121597448
40
0.15
50
-60.00000000000431
51
22.568592028827048
0
ARC
8
0
10
114.80324422083245
20
10.69714061692193
40
1
50
-174.3769832400615
51
-155.0988437761176
0
ARC
8
0
10
114.36205902616466
20
10.632410893831784
40
0.555
50
120.00000000000023
51
-176.56505117707695
0
ARC
8
0
10
114.36205902616464
20
10.632410893831782
40
0.555
50
56.56505117707591
51
119.99999999999886
0
ARC
8
0
10
114.08540884425477
20
10.282698169020936
40
1
50
35.09884377611895
51
54.37698324006284
0
ARC
8
0
10
115.02268239823799
20
10.948858594461601
40
0.15
50
-142.5685920288253
51
-59.999999999999275
0
ARC
8
0
10
76.39680774377877
20
76.39027971678638
40
76.14037268410976
50
-59.45045584941468
51
-59.0495441505822
0
ARC
8
0
10
115.47717403893475
20
11.219252706558223
40
0.15
50
-58.49999999999907
51
24.068592028829755
0
ARC
8
0
10
116.50983550763293
20
11.725080462306874
40
1
50
-172.87698324006413
51
-153.5988437761205
0
ARC
8
0
10
116.0704959227278
20
11.648824038441193
40
0.555
50
121.50000000000053
51
-175.06505117707752
0
ARC
8
0
10
116.0704959227278
20
11.64882403844119
40
0.555
50
58.06505117707837
51
121.50000000000034
0
ARC
8
0
10
115.80309495384573
20
11.291989293935657
40
1
50
36.59884377611868
51
55.87698324006261
0
ARC
8
0
10
116.72260928056943
20
11.9824564042092
40
0.15
50
-141.06859202882896
51
-58.49999999999943
0
ARC
8
0
10
76.39691405074093
20
76.39034486177657
40
76.14037268410976
50
-57.95045584941667
51
-57.549544150584246
0
ARC
8
0
10
117.16986708563695
20
12.264655063181689
40
0.15
50
-57.00000000000217
51
25.56859202882616
0
ARC
8
0
10
118.18893366002618
20
12.797341410277454
40
1
50
-171.37698324006186
51
-152.09884377611806
0
ARC
8
0
10
117.75174078628972
20
12.709610547979986
40
0.555
50
123.00000000000034
51
-173.5650511770768
0
ARC
8
0
10
117.75174078628972
20
12.709610547979985
40
0.555
50
59.56505117707582
51
123.00000000000023
0
ARC
8
0
10
117.49377229370258
20
12.34589834048935
40
1
50
38.09884377611821
51
57.37698324006161
0
ARC
8
0
10
118.39489720397798
20
13.06019892392799
40
0.15
50
-139.56859202882896
51
-57.00000000000143
0
ARC
8
0
10
76.39701861597638
20
76.39041276723448
40
76.14037268410976
50
-56.45045584941789
51
-56.04954415058542
0
ARC
8
0
10
118.83461464525779
20
13.354008724911678
40
0.15
50
-55.49999999999636
51
27.06859202883117
0
ARC
8
0
10
119.8393879080115
20
13.913188586740484
40
1
50
-169.87698324006342
51
-150.59884377611996
0
ARC
8
0
10
119.4046413756011
20
13.814043412362057
40
0.555
50
124.50000000000108
51
-172.06505117707673
0
ARC
8
0
10
119.40464137560109
20
13.814043412362054
40
0.555
50
61.06505117707551
51
124.49999999999969
0
ARC
8
0
10
119.15628215802786
20
13.443703012065507
40
1
50
39.598843776117405
51
58.87698324006055
0
ARC
8
0
10
120.03840006585365
20
14.18134752272946
40
0.15
50
-138.06859202882703
51
-55.49999999999751
0
ARC
8
0
10
76.3971213678194
20
76.39048338661969
40
76.14037268410976
50
-54.95045584941646
51
-54.54954415058397
0
ARC
8
0
10
120.47027578297585
20
14.48656710316289
40
0.15
50
-53.99999999999882
51
28.568592028829713
0
ARC
8
0
10
121.46006711268927
20
15.071857245779125
40
1
50
-168.37698324006237
51
-149.09884377611863
0
ARC
8
0
10
121.02806487516219
20
14.961365708469806
40
0.555
50
126.00000000000185
51
-170.5650511770763
0
ARC
8
0
10
121.02806487516217
20
14.9613657084698
40
0.555
50
62.565051177075695
51
126.00000000000036
0
ARC
8
0
10
120.78948514560479
20
14.58465092817877
40
1
50
41.09884377611794
51
60.37698324006121
0
ARC
8
0
10
121.65199149142971
20
15.345133821366616
40
0.15
50
-136.56859202882785
51
-53.999999999999616
0
ARC
8
0
10
76.39722223585409
20
76.39055667153663
40
76.14037268410976
50
-53.450455849417004
51
-53.049544150584516
0
ARC
8
0
10
122.07572949835043
20
15.661553998995391
40
0.15
50
-52.49999999999735
51
30.0685920288288
0
ARC
8
0
10
123.04986054148739
20
16.272553293771193
40
1
50
-166.87698324006226
51
-147.5988437761186
0
ARC
8
0
10
122.6208986715982
20
16.150791118911478
40
0.555
50
127.50000000000044
51
-169.065051177077
0
ARC
8
0
10
122.6208986715982
20
16.15079111891147
40
0.555
50
64.0650511770777
51
127.5
0
ARC
8
0
10
122.39226194068594
20
15.76796014011906
40
1
50
42.59884377611779
51
61.87698324006124
0
ARC
8
0
10
123.23456560574374
20
16.55076021884276
40
0.15
50
-135.06859202883115
51
-52.49999999999612
0
ARC
8
0
10
76.39732115094621
20
76.39063257175634
40
76.14037268410976
50
-51.950455849415526
51
-51.54954415058307
0
ARC
8
0
10
123.6498754935992
20
16.87816413508268
40
0.15
50
-50.999999999999936
51
31.568592028827375
0
ARC
8
0
10
124.60767862940165
20
17.5144538336215
40
1
50
-165.37698324006237
51
-146.09884377611846
0
ARC
8
0
10
124.18205111618887
20
17.381504470923886
40
0.555
50
128.99999999999926
51
-167.56505117707815
0
ARC
8
0
10
124.18205111618887
20
17.381504470923886
40
0.555
50
65.56505117707789
51
128.99999999999926
0
ARC
8
0
10
123.9635140801165
20
16.992819666860107
40
1
50
44.09884377611886
51
63.37698324006291
0
ARC
8
0
10
124.78503779154912
20
17.79740043904747
40
0.15
50
-133.56859202882796
51
-50.999999999999936
0
ARC
8
0
10
76.39741804530865
20
76.39071103526395
40
76.14037268410976
50
-50.45045584941616
51
-50.049544150583685
0
ARC
8
0
10
125.1916349276874
20
18.135563707608522
40
0.15
50
-49.500000000002075
51
33.068592028827524
0
ARC
8
0
10
126.1324537257294
20
18.796707728734336
40
1
50
-163.87698324006357
51
-144.59884377611982
0
ARC
8
0
10
125.71045227303001
20
18.652662295051087
40
0.555
50
130.50000000000085
51
-166.065051177077
0
ARC
8
0
10
125.71045227303001
20
18.65266229505108
40
0.555
50
67.06505117707768
51
130.50000000000034
0
ARC
8
0
10
125.50216470616583
20
18.258390050865422
40
1
50
45.59884377611813
51
64.87698324006148
0
ARC
8
0
10
126.3023454326575
20
19.08420009704486
40
0.15
50
-132.0685920288286
51
-49.500000000002075
0
ARC
8
0
10
76.3975128525318
20
76.39079200828206
40
76.14037268410976
50
-48.95045584941596
51
-48.549544150583536
0
ARC
8
0
10
126.69995115571142
20
19.432890957714374
40
0.15
50
-47.999999999998906
51
34.56859202882728
0
ARC
8
0
10
127.62314082578374
20
20.118436186340013
40
1
50
-162.37698324006334
51
-143.09884377611965
0
ARC
8
0
10
127.20505465231398
20
19.96339340321611
40
0.555
50
132.0000000000003
51
-164.56505117707692
0
ARC
8
0
10
127.20505465231398
20
19.963393403216102
40
0.555
50
68.56505117707829
51
131.99999999999983
0
ARC
8
0
10
127.00715930455218
20
19.563803933410366
40
1
50
47.09884377611972
51
66.37698324006439
0
ARC
8
0
10
127.78544864220285
20
20.41027728462639
40
0.15
50
-130.5685920288272
51
-47.999999999998906
0
ARC
8
0
10
76.39760550764231
20
76.3908754353183
40
76.14037268410976
50
-47.45045584941778
51
-47.0495441505853
0
ARC
8
0
10
128.1737904530708
20
20.769256762106032
40
0.15
50
-46.49999999999656
51
36.06859202883228
0
ARC
8
0
10
129.07871828708792
20
21.478733359775532
40
1
50
-160.87698324006442
51
-141.5988437761207
0
ARC
8
0
10
128.6648339282272
20
21.31279948579
40
0.555
50
133.50000000000134
51
-163.06505117707587
0
ARC
8
0
10
128.6648339282272
20
21.312799485789984
40
0.555
50
70.06505117707725
51
133.5000000000003
0
ARC
8
0
10
128.47746642715398
20
20.908166649026864
40
1
50
48.59884377611805
51
67.87698324006186
0
ARC
8
0
10
129.23333097532813
20
21.77472317472679
40
0.15
50
-129.06859202883638
51
-46.49999999999656
0
ARC
8
0
10
76.39769594713162
20
76.39096125918908
40
76.14037268410976
50
-45.95045584941395
51
-45.549544150581475
0
ARC
8
0
10
129.61214272393093
20
22.1437452424141
40
0.15
50
-44.99999999999232
51
37.56859202883726
0
ARC
8
0
10
130.49818852955755
20
22.876666969306598
40
1
50
-159.37698324006337
51
-140.09884377611988
0
ARC
8
0
10
130.0887896409715
20
22.69995572724801
40
0.555
50
134.99999999999898
51
-161.56505117707903
0
ARC
8
0
10
130.0887896409715
20
22.699955727248017
40
0.555
50
71.56505117707765
51
134.9999999999995
0
ARC
8
0
10
129.91207839891288
20
22.290556838661967
40
1
50
50.098843776118144
51
69.37698324006098
0
ARC
8
0
10
130.64500012580538
20
23.17660264428858
40
0.15
50
-127.56859202882832
51
-44.99999999999616
0
ARC
8
0
10
76.39778410902932
20
76.39104942108676
40
76.14037268410976
50
-44.45045584941733
51
-44.04954415058484
0
ARC
8
0
10
131.0140221934927
20
23.555414392891414
40
0.15
50
-43.49999999999872
51
39.068592028826636
0
ARC
8
0
10
131.88057871919267
20
24.31127894106551
40
1
50
-157.87698324006396
51
-138.59884377612008
0
ARC
8
0
10
131.47594588242953
20
24.12391143999232
40
0.555
50
136.49999999999946
51
-160.06505117707687
0
ARC
8
0
10
131.47594588242953
20
24.123911439992312
40
0.555
50
73.06505117707758
51
136.49999999999892
0
ARC
8
0
10
131.31001200844392
20
23.71002708113162
40
1
50
51.59884377611801
51
70.87698324006095
0
ARC
8
0
10
132.01948860611344
20
24.614954915148726
40
0.15
50
-126.0685920288233
51
-43.49999999999971
0
ARC
8
0
10
76.39786993290522
20
76.39113986058156
40
76.14037268410976
50
-42.950455849419164
51
-42.54954415058668
0
ARC
8
0
10
132.37846808359313
20
25.003296726016668
40
0.15
50
-42.00000000000211
51
40.56859202882159
0
ARC
8
0
10
133.22494143480915
20
25.78158606366737
40
1
50
-156.37698324006172
51
-137.0988437761177
0
ARC
8
0
10
132.82535196500342
20
25.583690715905533
40
0.555
50
137.9999999999997
51
-158.565051177077
0
ARC
8
0
10
132.82535196500342
20
25.583690715905526
40
0.555
50
74.56505117707816
51
137.99999999999915
0
ARC
8
0
10
132.6703091818795
20
25.16560454243577
40
1
50
53.09884377611921
51
72.37698324006321
0
ARC
8
0
10
133.35585441050515
20
26.08879421250808
40
0.15
50
-124.56859202882694
51
-42.00000000000009
0
ARC
8
0
10
76.39795335993742
20
76.39123251568766
40
76.14037268410976
50
-41.45045584941643
51
-41.049544150584
0
ARC
8
0
10
133.70454527117465
20
26.486399935562012
40
0.15
50
-40.500000000000135
51
42.06859202882384
0
ARC
8
0
10
134.5303553173541
20
27.286580662053677
40
1
50
-154.87698324006195
51
-135.598843776118
0
ARC
8
0
10
134.13608307316844
20
27.078293095189515
40
0.555
50
139.50000000000125
51
-157.06505117707619
0
ARC
8
0
10
134.13608307316844
20
27.078293095189505
40
0.555
50
76.06505117707844
51
139.50000000000043
0
ARC
8
0
10
133.99203763948518
20
26.656291642490107
40
1
50
54.59884377611931
51
73.8769832400639
0
ARC
8
0
10
134.653181660611
20
27.597110440532106
40
0.15
50
-123.06859202883169
51
-40.49999999999705
0
ARC
8
0
10
76.39803433295324
20
76.39132732290804
40
76.14037268410976
50
-39.950455849413565
51
-39.5495441505811
0
ARC
8
0
10
134.99134492917204
20
28.003707576670415
40
0.15
50
-39.000000000006
51
43.56859202881932
0
ARC
8
0
10
135.79592570135938
20
28.825231288103044
40
1
50
-153.37698324006064
51
-134.09884377611613
0
ARC
8
0
10
135.40724089729562
20
28.60669425203063
40
0.555
50
140.99999999999827
51
-155.56505117707843
0
ARC
8
0
10
135.40724089729562
20
28.606694252030636
40
0.555
50
77.56505117707655
51
140.9999999999988
0
ARC
8
0
10
135.274291534598
20
28.181066738817858
40
1
50
56.098843776118265
51
75.37698324006135
0
ARC
8
0
10
135.91058123313684
20
29.138869874620305
40
0.15
50
-121.56859202883155
51
-39.000000000000725
0
ARC
8
0
10
76.398112796464
20
76.39142421727435
40
76.14037268410976
50
-38.45045584941796
51
-38.049544150585476
0
ARC
8
0
10
136.23798514937675
20
29.55417976247577
40
0.15
50
-37.49999999999545
51
45.06859202883019
0
ARC
8
0
10
137.02078522810044
20
30.396483427533575
40
1
50
-151.8769832400609
51
-132.59884377611655
0
ARC
8
0
10
136.63795424930805
20
30.167846696621304
40
0.555
50
142.4999999999984
51
-154.06505117707968
0
ARC
8
0
10
136.63795424930805
20
30.167846696621318
40
0.555
50
79.06505117707742
51
142.49999999999955
0
ARC
8
0
10
136.51619207444833
20
29.738884826732136
40
1
50
57.59884377611855
51
76.87698324006176
0
ARC
8
0
10
137.12719136922414
20
30.713015869869082
40
0.15
50
-120.06859202883437
51
-37.49999999999437
0
ARC
8
0
10
76.39818869668238
20
76.39152313236474
40
76.14037268410976
50
-36.95045584941483
51
-36.54954415058237
0
ARC
8
0
10
137.4436115468529
20
31.1367538767898
40
0.15
50
-36.00000000000687
51
46.568592028824995
0
ARC
8
0
10
138.20409444004076
20
31.99926022261472
40
1
50
-150.37698324006186
51
-131.09884377611817
0
ARC
8
0
10
137.82737965974974
20
31.760680493057325
40
0.555
50
144.00000000000094
51
-152.56505117707783
0
ARC
8
0
10
137.82737965974974
20
31.760680493057325
40
0.555
50
80.56505117707678
51
144.00000000000094
0
ARC
8
0
10
137.71688812244037
20
31.32867825553024
40
1
50
59.09884377611737
51
78.37698324005964
0
ARC
8
0
10
138.30217826505663
20
32.31846958524367
40
0.15
50
-118.56859202882902
51
-36.00000000000577
0
ARC
8
0
10
76.39826198159899
20
76.39162400039896
40
76.14037268410976
50
-35.45045584941497
51
-35.0495441505825
0
ARC
8
0
10
138.60739784549003
20
32.75034530236585
40
0.15
50
-34.500000000003254
51
48.06859202882448
0
ARC
8
0
10
139.34504235615398
20
33.63246321019164
40
1
50
-148.87698324006126
51
-129.59884377611706
0
ARC
8
0
10
138.97470195585746
20
33.38410399261841
40
0.555
50
145.50000000000057
51
-151.06505117707843
0
ARC
8
0
10
138.97470195585746
20
33.384103992618414
40
0.555
50
82.06505117707736
51
145.50000000000117
0
ARC
8
0
10
138.875556781479
20
32.94935746020802
40
1
50
60.59884377611802
51
79.87698324006158
0
ARC
8
0
10
139.43473664330782
20
33.95413072296172
40
0.15
50
-117.06859202882691
51
-34.500000000001016
0
ARC
8
0
10
76.39833260098867
20
76.39172675224857
40
76.14037268410976
50
-33.95045584941952
51
-33.549544150587025
0
ARC
8
0
10
139.72854644429154
20
34.39384816424154
40
0.15
50
-32.999999999998266
51
49.5685920288274
0
ARC
8
0
10
140.44284702773015
20
35.29497307451695
40
1
50
-147.3769832400607
51
-128.09884377611635
0
ARC
8
0
10
140.07913482023955
20
35.03700458192979
40
0.555
50
147.00000000000017
51
-149.56505117707758
0
ARC
8
0
10
140.07913482023955
20
35.037004581929786
40
0.555
50
83.56505117707779
51
146.99999999999955
0
ARC
8
0
10
139.99140395794208
20
34.59981170819333
40
1
50
62.09884377611898
51
81.37698324006263
0
ARC
8
0
10
140.52409030503784
20
35.618878282582564
40
0.15
50
-115.56859202882983
51
-33.00000000000418
0
ARC
8
0
10
76.39840050644443
20
76.39183131748094
40
76.14037268410976
50
-32.45045584941786
51
-32.049544150585376
0
ARC
8
0
10
140.80628896401035
20
36.06613608765012
40
0.15
50
-31.499999999995428
51
51.068592028832256
0
ARC
8
0
10
141.4967560742839
20
36.985650414373815
40
1
50
-145.87698324006286
51
-126.59884377611951
0
ARC
8
0
10
141.13992132977836
20
36.71824944549176
40
0.555
50
148.49999999999957
51
-148.06505117707746
0
ARC
8
0
10
141.13992132977836
20
36.71824944549176
40
0.555
50
85.06505117707736
51
148.49999999999957
0
ARC
8
0
10
141.06366490591267
20
36.27890986058662
40
1
50
63.59884377611958
51
82.8769832400638
0
ARC
8
0
10
141.56949266166134
20
37.31157132928482
40
0.15
50
-114.06859202882755
51
-31.500000000005723
0
ARC
8
0
10
76.39846565143257
20
76.3919376244398
40
76.14037268410976
50
-30.950455849416933
51
-30.549544150584502
0
ARC
8
0
10
141.8398867737579
20
37.766062969981526
40
0.15
50
-30.0000000000004
51
52.56859202882695
0
ARC
8
0
10
142.50604719919858
20
38.70333652396474
40
1
50
-144.37698324006283
51
-125.09884377611942
0
ARC
8
0
10
142.15633447438776
20
38.42668634205485
40
0.555
50
150.00000000000023
51
-146.56505117707897
0
ARC
8
0
10
142.15633447438776
20
38.42668634205485
40
0.555
50
86.56505117707928
51
150.00000000000023
0
ARC
8
0
10
142.0916047512976
20
37.98550114738704
40
1
50
65.09884377611887
51
84.37698324006242
0
ARC
8
0
10
142.57022724662207
20
39.03104977580612
40
0.15
50
-112.56859202882414
51
-30.000000000002746
0
ARC
8
0
10
76.39852799130479
20
76.39204560026582
40
76.14037268410976
50
-29.450455849415114
51
-29.049544150582623
0
ARC
8
0
10
142.82863149722482
20
39.49246376626391
40
0.15
50
-28.49999999999886
51
54.068592028823545
0
ARC
8
0
10
143.47002868475246
20
40.44685418703063
40
1
50
-142.87698324006197
51
-123.59884377611849
0
ARC
8
0
10
143.12767765526937
20
40.1611443943086
40
0.555
50
151.5
51
-145.06505117707712
0
ARC
8
0
10
143.12767765526937
20
40.16114439430859
40
0.555
50
88.06505117707705
51
151.49999999999935
0
ARC
8
0
10
143.07451899547368
20
39.71841595617284
40
1
50
66.5988437761182
51
85.87698324006163
0
ARC
8
0
10
143.52560820642339
20
40.7761351775092
40
0.15
50
-111.06859202883001
51
-28.499999999996476
0
ARC
8
0
10
76.39858748333933
20
76.39215517096292
40
76.14037268410976
50
-27.950455849416763
51
-27.549544150584282
0
ARC
8
0
10
143.77184549816653
20
41.2441552876271
40
0.15
50
-27.00000000000128
51
55.56859202883073
0
ARC
8
0
10
144.38803986618734
20
42.21500848365576
40
1
50
-141.37698324006442
51
-122.09884377612151
0
ARC
8
0
10
144.05328516232674
20
41.92043489134206
40
0.555
50
153.00000000000338
51
-143.56505117707488
0
ARC
8
0
10
144.05328516232672
20
41.92043489134203
40
0.555
50
89.56505117707407
51
152.99999999999943
0
ARC
8
0
10
144.0117339981156
20
41.476466633695054
40
1
50
68.09884377611856
51
87.37698324006114
0
ARC
8
0
10
144.43498077067775
20
42.54563154002866
40
0.15
50
-109.56859202883267
51
-27.00000000000128
0
ARC
8
0
10
76.39864408675814
20
76.39226626142728
40
76.14037268410976
50
-26.45045584941375
51
-26.049544150581276
0
ARC
8
0
10
144.6688823448213
20
43.019937012201325
40
0.15
50
-25.50000000000818
51
57.068592028819324
0
ARC
8
0
10
145.25945158449494
20
44.006587609206626
40
1
50
-139.87698324005967
51
-120.59884377611493
0
ARC
8
0
10
144.9325226304096
20
43.70335210332699
40
0.555
50
154.499999999997
51
-142.06505117707997
0
ARC
8
0
10
144.93252263040964
20
43.70335210332701
40
0.555
50
91.06505117708073
51
154.50000000000023
0
ARC
8
0
10
144.90260743887546
20
43.258448299835884
40
1
50
69.59884377611924
51
88.87698324006305
0
ARC
8
0
10
145.29772170085377
20
44.338326138945924
40
0.15
50
-108.06859202882656
51
-25.50000000000573
0
ARC
8
0
10
76.39869776277693
20
76.39237879554096
40
76.14037268410976
50
-24.950455849421136
51
-24.54954415058864
0
ARC
8
0
10
145.51912725294252
20
44.81859190789478
40
0.15
50
-23.99999999999763
51
58.56859202883149
0
ARC
8
0
10
146.08366661761175
20
45.820363704841796
40
1
50
-138.37698324005999
51
-119.09884377611507
0
ARC
8
0
10
145.7647874740763
20
45.508674107865154
40
0.555
50
156.00000000000048
51
-140.56505117707775
0
ARC
8
0
10
145.76478747407626
20
45.50867410786515
40
0.555
50
92.56505117707594
51
155.9999999999986
0
ARC
8
0
10
145.74652875759705
20
45.06313967337335
40
1
50
71.09884377611674
51
90.37698324006091
0
ARC
8
0
10
146.11323971741282
20
46.15299035092997
40
0.15
50
-106.5685920288308
51
-23.99999999999763
0
ARC
8
0
10
76.39874847459481
20
76.39249269614893
40
76.14037268410976
50
-23.450455849414126
51
-23.049544150581642
0
ARC
8
0
10
146.32199750714074
20
46.638887266486854
40
0.15
50
-22.500000000005443
51
60.06859202881661
0
ARC
8
0
10
146.8601200897245
20
47.65509369902554
40
1
50
-136.87698324006163
51
-117.5988437761176
0
ARC
8
0
10
146.54950930057544
20
47.335163627432394
40
0.555
50
157.50000000000114
51
-139.06505117707604
0
ARC
8
0
10
146.54950930057544
20
47.33516362743238
40
0.555
50
94.06505117707756
51
157.4999999999998
0
ARC
8
0
10
146.54291957276342
20
46.88930390898636
40
1
50
72.59884377611824
51
91.87698324006246
0
ARC
8
0
10
146.88097590504233
20
47.98838049577445
40
0.15
50
-105.06859202882221
51
-22.500000000000426
0
ARC
8
0
10
76.39879618746978
20
76.39260788521875
40
76.14037268410976
50
-21.950455849417
51
-21.549544150584566
0
ARC
8
0
10
147.07694286024807
20
48.4795755484644
40
0.15
50
-21.00000000000036
51
61.568592028824185
0
ARC
8
0
10
147.58827985840796
20
49.50952015946659
40
1
50
-135.37698324006175
51
-116.09884377611692
0
ARC
8
0
10
147.28615030076492
20
49.18156887734711
40
0.555
50
158.99999999999943
51
-137.56505117707835
0
ARC
8
0
10
147.28615030076492
20
49.181568877347104
40
0.555
50
95.5650511770776
51
158.99999999999875
0
ARC
8
0
10
147.29123407789038
20
48.73568944492671
40
1
50
74.09884377611849
51
93.37698324006327
0
ARC
8
0
10
147.60040409570863
20
49.84323868875377
40
0.15
50
-103.5685920288269
51
-21.00000000000036
0
ARC
8
0
10
76.39884086869421
20
76.39272428378784
40
76.14037268410976
50
-20.45045584941527
51
-20.049544150582797
0
ARC
8
0
10
147.78344591042983
20
50.33939523802358
40
0.15
50
-19.500000000001254
51
63.06859202881744
0
ARC
8
0
10
148.26764687932925
20
51.382372154899734
40
1
50
-133.87698324006269
51
-114.59884377611854
0
ARC
8
0
10
147.97420561769925
20
51.0466244236812
40
0.555
50
160.5000000000017
51
-136.0650511770745
0
ARC
8
0
10
147.97420561769925
20
51.04662442368117
40
0.555
50
97.06505117707547
51
160.49999999999895
0
ARC
8
0
10
147.99095941559528
20
50.60103086077721
40
1
50
75.59884377611952
51
94.87698324006236
0
ARC
8
0
10
148.27103122926601
20
51.716293702714836
40
0.15
50
-102.06859202882724
51
-19.499999999996135
0
ARC
8
0
10
76.39888248764943
20
76.39284181209175
40
76.14037268410976
50
-18.95045584941636
51
-18.549544150583884
0
ARC
8
0
10
148.44102245578605
20
52.21707170764912
40
0.15
50
-17.999999999994895
51
64.56859202882956
0
ARC
8
0
10
148.89775554826727
20
53.272366126118285
40
1
50
-132.37698324006422
51
-113.09884377612185
0
ARC
8
0
10
148.61320369263336
20
52.92905205052467
40
0.555
50
161.9999999999993
51
-134.56505117707678
0
ARC
8
0
10
148.61320369263336
20
52.92905205052467
40
0.555
50
98.56505117707734
51
161.9999999999993
0
ARC
8
0
10
148.64161602908374
20
52.48404974470724
40
1
50
77.09884377611907
51
96.37698324006269
0
ARC
8
0
10
148.8923976913758
20
53.6062618393122
40
0.15
50
-100.56859202883504
51
-17.999999999994895
0
ARC
8
0
10
76.39892101580908
20
76.39296038957426
40
76.14037268410976
50
-17.450455849413803
51
-17.04954415058133
0
ARC
8
0
10
149.04922182619924
20
54.11131809168082
40
0.15
50
-16.500000000000476
51
66.06859202882303
0
ARC
8
0
10
149.4781740202149
20
55.17820676566174
40
1
50
-130.8769832400609
51
-111.59884377611692
0
ARC
8
0
10
149.2027065882053
20
54.8275616360115
40
0.555
50
163.50000000000009
51
-133.06505117707565
0
ARC
8
0
10
149.2027065882053
20
54.82756163601149
40
0.555
50
100.06505117707368
51
163.49999999999866
0
ARC
8
0
10
149.24275799081389
20
54.38345556963266
40
1
50
78.59884377611945
51
97.87698324006246
0
ARC
8
0
10
149.46407762850274
20
55.51184780879105
40
0.15
50
-99.06859202882966
51
-16.500000000000476
0
ARC
8
0
10
76.39895642677067
20
76.39307993497684
40
76.14037268410976
50
-15.950455849414384
51
-15.549544150581902
0
ARC
8
0
10
149.60762719220114
20
56.02083616826675
40
0.15
50
-15.000000000000258
51
67.56859202882902
0
ARC
8
0
10
150.00850450534418
20
57.09858790555453
40
1
50
-129.3769832400617
51
-110.09884377611777
0
ARC
8
0
10
149.74231028857685
20
56.74085203650445
40
0.555
50
165.00000000000057
51
-131.56505117707815
0
ARC
8
0
10
149.74231028857685
20
56.74085203650445
40
0.555
50
101.56505117707735
51
165.00000000000057
0
ARC
8
0
10
149.79397330811284
20
56.2979465776785
40
1
50
80.0988437761191
51
99.37698324006253
0
ARC
8
0
10
149.985679239774
20
57.431745617714064
40
0.15
50
-97.56859202882934
51
-15.000000000000258
0
ARC
8
0
10
76.39898869626352
20
76.39320036636349
40
76.14037268410976
50
-14.450455849413679
51
-14.049544150581248
0
ARC
8
0
10
150.1158558506468
20
57.94431724909971
40
0.15
50
-13.499999999996312
51
69.06859202882767
0
ARC
8
0
10
150.4883835416311
20
59.03219341248851
40
1
50
-127.87698324006283
51
-108.59884377611994
0
ARC
8
0
10
150.23164497632547
20
58.66761197833394
40
0.555
50
166.49999999999991
51
-130.06505117707738
0
ARC
8
0
10
150.23164497632547
20
58.667611978333944
40
0.555
50
103.06505117707795
51
166.50000000000065
0
ARC
8
0
10
150.2948842055359
20
58.226210672338745
40
1
50
81.598843776117
51
100.87698324006087
0
ARC
8
0
10
150.45684504549973
20
59.364639464023945
40
0.15
50
-96.0685920288245
51
-13.499999999996312
0
ARC
8
0
10
76.39901780217383
20
76.39332160120497
40
76.14037268410976
50
-12.950455849418304
51
-12.549544150585827
0
ARC
8
0
10
150.57355948700044
20
59.88044307632706
40
0.15
50
-12.00000000000069
51
70.56859202882974
0
ARC
8
0
10
150.9174822439547
20
60.97769808983513
40
1
50
-126.37698324006315
51
-107.09884377611924
0
ARC
8
0
10
150.6703752858991
20
60.60652095647977
40
0.555
50
167.99999999999957
51
-128.56505117707803
0
ARC
8
0
10
150.6703752858991
20
60.60652095647977
40
0.555
50
104.56505117707857
51
167.99999999999957
0
ARC
8
0
10
150.74514738377522
20
60.16692631772197
40
1
50
83.09884377611775
51
102.37698324006324
0
ARC
8
0
10
150.8772521321721
20
61.309204638828795
40
0.15
50
-94.56859202882013
51
-12.00000000000069
0
ARC
8
0
10
76.39904372455022
20
76.39344355639766
40
76.14037268410976
50
-11.450455849416283
51
-11.049544150583815
0
ARC
8
0
10
150.98042441405238
20
61.8278867260184
40
0.15
50
-10.500000000003483
51
72.06859202881898
0
ARC
8
0
10
151.2955065294983
20
62.9337685858686
40
1
50
-124.87698324006097
51
-105.59884377611534
0
ARC
8
0
10
151.05820053345855
20
62.556250139578914
40
0.555
50
169.49999999999704
51
-127.06505117707991
0
ARC
8
0
10
151.05820053345857
20
62.55625013957894
40
0.555
50
106.06505117708063
51
169.50000000000048
0
ARC
8
0
10
151.14445425493938
20
62.118763444265696
40
1
50
84.59884377611877
51
103.87698324006246
0
ARC
8
0
10
151.24661237377353
20
63.26410843429092
40
0.15
50
-93.06859202882231
51
-10.500000000000815
0
ARC
8
0
10
76.39906644562983
20
76.3935661483731
40
76.14037268410976
50
-9.95045584941813
51
-9.549544150585655
0
ARC
8
0
10
151.33617178690506
20
63.78531351757321
40
0.15
50
-9.000000000003528
51
73.5685920288199
0
ARC
8
0
10
151.6221973192995
20
64.89906430757881
40
1
50
-123.37698324006172
51
-104.09884377611698
0
ARC
8
0
10
151.39485492295148
20
64.51546328064049
40
0.555
50
171.0000000000017
51
-125.56505117707684
0
ARC
8
0
10
151.39485492295148
20
64.51546328064047
40
0.555
50
107.56505117707636
51
171.00000000000026
0
ARC
8
0
10
151.4925311540448
20
64.0803843602998
40
1
50
86.09884377611965
51
105.376983240062
0
ARC
8
0
10
151.5646726292445
20
65.22801105699854
40
0.15
50
-91.56859202882818
51
-9.000000000000846
0
ARC
8
0
10
76.39908594983935
20
76.39368929310591
40
76.14037268410976
50
-8.450455849418482
51
-8.049544150586012
0
ARC
8
0
10
151.6405577940791
20
65.75138192844419
40
0.15
50
-7.500000000002789
51
75.06859202883197
0
ARC
8
0
10
151.8973307158094
20
66.87223833944681
40
1
50
-121.87698324006425
51
-102.59884377612
0
ARC
8
0
10
151.6801077282756
20
66.4828176328424
40
0.555
50
172.49999999999957
51
-124.06505117707766
0
ARC
8
0
10
151.6801077282756
20
66.4828176328424
40
0.555
50
109.06505117707704
51
172.49999999999957
0
ARC
8
0
10
151.7891395265716
20
66.05044466883362
40
1
50
87.59884377611809
51
106.87698324006008
0
ARC
8
0
10
151.83121491597333
20
67.19956654619315
40
0.15
50
-90.06859202882244
51
-7.499999999995991
0
ARC
8
0
10
76.39910222381165
20
76.39381290619855
40
76.14037268410976
50
-6.95045584941715
51
-6.549544150584659
0
ARC
8
0
10
151.8933738246095
20
67.72474451354988
40
0.15
50
-6.0000000000008455
51
76.5685920288203
0
ARC
8
0
10
152.1207181563412
20
68.85193836655347
40
1
50
-120.37698324006186
51
-101.09884377611687
0
ARC
8
0
10
151.9137634514068
20
68.45696486978325
40
0.555
50
174.0000000000016
51
-122.56505117707573
0
ARC
8
0
10
151.9137634514068
20
68.45696486978323
40
0.555
50
110.5650511770749
51
174.00000000000009
0
ARC
8
0
10
152.03407609195727
20
68.02759418893838
40
1
50
89.09884377611749
51
108.37698324006139
0
ARC
8
0
10
152.04605655919084
20
69.17742369622391
40
0.15
50
-88.5685920288252
51
-6.0000000000008455
0
ARC
8
0
10
76.39911525639414
20
76.39393690293831
40
76.14037268410976
50
-5.4504558494183115
51
-5.049544150585891
0
ARC
8
0
10
152.09444661101753
20
69.704048828746
40
0.15
50
-4.500000000007841
51
78.06859202882353
0
ARC
8
0
10
152.2922065423018
20
70.83680760138827
40
1
50
-118.8769832400641
51
-99.59884377611982
0
ARC
8
0
10
152.09566195638385
20
70.43655200955759
40
0.555
50
175.50000000000196
51
-121.06505117707457
0
ARC
8
0
10
152.09566195638385
20
70.43655200955756
40
0.555
50
112.06505117707489
51
175.49999999999903
0
ARC
8
0
10
152.22717298291468
20
70.01047788109375
40
1
50
90.5988437761168
51
109.87698324006172
0
ARC
8
0
10
152.2090503171663
20
71.16022698259624
40
0.15
50
-87.06859202882798
51
-4.50000000000243
0
ARC
8
0
10
76.39912503865361
20
76.39406119832925
40
76.14037268410976
50
-3.9504558494108792
51
-3.5495441505784093
0
ARC
8
0
10
152.24363834805908
20
71.6879383577235
40
0.15
50
-3.000000000000344
51
79.5685920288268
0
ARC
8
0
10
152.41167834411732
20
72.82548571372428
40
1
50
-117.37698324006402
51
-98.09884377611979
0
ARC
8
0
10
152.22567857905747
20
72.42022234202253
40
0.555
50
177.00000000000006
51
-119.56505117707886
0
ARC
8
0
10
152.22567857905747
20
72.42022234202253
40
0.555
50
113.56505117707715
51
177.00000000000006
0
ARC
8
0
10
152.3682978604802
20
71.99773677586451
40
1
50
92.09884377612111
51
111.3769832400632
0
ARC
8
0
10
152.32008448211963
20
73.14661749098104
40
0.15
50
-85.56859202883655
51
-3.000000000000344
0
ARC
8
0
10
76.39913156388786
20
76.39418570721469
40
76.14037268410976
50
-2.4504558494167434
51
-2.049544150584253
0
ARC
8
0
10
152.34084678716994
20
73.6750534416967
40
0.15
50
-1.4999999999983684
51
81.0685920288259
0
ARC
8
0
10
152.4790516817826
20
74.81660976291994
40
1
50
-115.87698324006126
51
-96.59884377611829
0
ARC
8
0
10
152.30372421252892
20
74.40661635861873
40
0.555
50
178.50000000000134
51
-118.06505117707522
0
ARC
8
0
10
152.30372421252892
20
74.40661635861872
40
0.555
50
115.06505117707613
51
178.4999999999999
0
ARC
8
0
10
152.45735400471204
20
73.98800890526992
40
1
50
93.59884377611758
51
112.87698324006296
0
ARC
8
0
10
152.3790829567806
20
75.13523384854624
40
0.15
50
-84.06859202882461
51
-1.4999999999983684
0
ARC
8
0
10
76.39913482762319
20
76.39431034423805
40
76.14037268410976
50
-0.9504558494175457
51
-0.549544150585081
0
ENDSEC
0
EOF