0
SECTION
2
HEADER
9
$INSUNITS
70
4
0
ENDSEC
0
SECTION
2
ENTITIES
0
CIRCLE
8
0
10
19.098593171027442
20
19.098593171027442
40
5
0
ARC
8
0
10
37.79444628037695
20
18.368252698163285
40
0.15
50
1.3570366640911133e-12
51
82.56859202882691
0
ARC
8
0
10
37.9027213548128
20
19.513035618928413
40
1
50
-114.37698324006291
51
-95.0988437761185
0
ARC
8
0
10
37.73818634205488
20
19.098593171027446
40
0.555
50
-179.99999999999963
51
-116.56505117707799
0
ARC
8
0
10
37.73818634205488
20
19.09859317102744
40
0.555
50
116.56505117707799
51
179.99999999999963
0
ARC
8
0
10
37.9027213548128
20
18.68415072312647
40
1
50
95.0988437761185
51
114.37698324006291
0
ARC
8
0
10
37.79444628037695
20
19.8289336438916
40
0.15
50
-82.56859202882691
51
-1.3570366640911133e-12
0
ARC
8
0
10
19.113979696153294
20
19.099399544640377
40
18.84459317102744
50
2.218656162381295
51
3.781343837617446
0
ARC
8
0
10
37.76836980815521
20
20.32650237468851
40
0.15
50
5.999999999999213
51
88.56859202882795
0
ARC
8
0
10
37.75638934092165
20
21.47633188197404
40
1
50
-108.37698324006276
51
-89.09884377611871
0
ARC
8
0
10
37.63607670037118
20
21.046961201129193
40
0.555
50
-173.99999999999937
51
-110.56505117707778
0
ARC
8
0
10
37.63607670037118
20
21.04696120112919
40
0.555
50
122.56505117707839
51
-173.99999999999974
0
ARC
8
0
10
37.84303140530559
20
20.65198770435896
40
1
50
101.09884377611851
51
120.37698324006267
0
ARC
8
0
10
37.61568707357388
20
21.779181557362552
40
0.15
50
-76.56859202882886
51
5.999999999999213
0
ARC
8
0
10
19.113811118164207
20
19.10100345706745
40
18.84459317102744
50
8.218656162382349
51
9.78134383761848
0
ARC
8
0
10
37.53774335619515
20
22.271298821021894
40
0.15
50
11.999999999999561
51
94.56859202882823
0
ARC
8
0
10
37.40563860779826
20
23.413577142128716
40
1
50
-102.37698324006196
51
-83.09884377611775
0
ARC
8
0
10
37.33086650992217
20
22.973982503370912
40
0.555
50
-168.00000000000045
51
-104.5650511770793
0
ARC
8
0
10
37.33086650992217
20
22.97398250337092
40
0.555
50
128.56505117707886
51
-167.99999999999972
0
ARC
8
0
10
37.577973467977756
20
22.602805370015556
40
1
50
107.09884377611846
51
126.37698324006249
0
ARC
8
0
10
37.23405071102349
20
23.700060383523628
40
0.15
50
-70.56859202882764
51
11.999999999998234
0
ARC
8
0
10
19.11347580916171
20
19.102580961896614
40
18.84459317102744
50
14.218656162382356
51
15.781343837618525
0
ARC
8
0
10
37.10509371616615
20
24.181334440322605
40
0.15
50
18.00000000000044
51
100.56859202882653
0
ARC
8
0
10
36.85431205387409
20
25.303546534927563
40
1
50
-96.37698324006227
51
-77.09884377611823
0
ARC
8
0
10
36.82589971742373
20
24.858544229110137
40
0.555
50
-161.99999999999974
51
-98.565051177078
0
ARC
8
0
10
36.82589971742373
20
24.858544229110134
40
0.555
50
134.56505117707783
51
-162.00000000000009
0
ARC
8
0
10
37.1104515730576
20
24.515230153516498
40
1
50
113.09884377611839
51
132.37698324006263
0
ARC
8
0
10
36.65371848057644
20
25.57052457198568
40
0.15
50
-64.56859202882593
51
18.00000000000044
0
ARC
8
0
10
19.112977442861304
20
19.104114775654857
40
18.84459317102744
50
20.2186561623813
51
21.781343837617452
0
ARC
8
0
10
36.47516108806214
20
26.035682482644926
40
0.15
50
24.00000000000011
51
106.56859202882782
0
ARC
8
0
10
36.10845012824639
20
27.125533160201552
40
1
50
-90.37698324006215
51
-71.09884377611796
0
ARC
8
0
10
36.1267088447256
20
26.67999872570975
40
0.555
50
-155.99999999999986
51
-92.56505117707815
0
ARC
8
0
10
36.1267088447256
20
26.679998725709755
40
0.555
50
140.5650511770784
51
-155.99999999999952
0
ARC
8
0
10
36.44558798826112
20
26.368309128733127
40
1
50
119.0988437761185
51
138.3769832400628
0
ARC
8
0
10
35.881048623591816
20
27.37008092568012
40
0.15
50
-58.56859202882616
51
24.00000000000011
0
ARC
8
0
10
19.112321479468694
20
19.105588093556946
40
18.84459317102744
50
26.218656162381457
51
27.781343837617584
0
ARC
8
0
10
35.65484714557848
20
27.8140263227899
40
0.15
50
29.999999999998042
51
112.56859202882717
0
ARC
8
0
10
35.17622465025401
20
28.859574951208966
40
1
50
-84.37698324006242
51
-65.09884377611831
0
ARC
8
0
10
35.240954373344145
20
28.41838975654116
40
0.555
50
-149.99999999999983
51
-86.56505117707785
0
ARC
8
0
10
35.240954373344145
20
28.41838975654116
40
0.555
50
146.56505117707817
51
-149.99999999999983
0
ARC
8
0
10
35.59066709815498
20
28.141739574631266
40
1
50
125.09884377611861
51
144.3769832400627
0
ARC
8
0
10
34.92450667271432
20
29.07901312861449
40
0.15
50
-52.56859202882695
51
29.99999999999922
0
ARC
8
0
10
19.111515105855943
20
19.106984773624085
40
18.84459317102744
50
32.218656162381386
51
33.78134383761754
0
ARC
8
0
10
34.65313941993076
20
29.496882053502524
40
0.15
50
36.00000000000039
51
118.56859202882966
0
ARC
8
0
10
34.067849277314515
20
30.486673383215955
40
1
50
-78.37698324006212
51
-59.098843776118166
0
ARC
8
0
10
34.17834081462385
20
30.05467114568886
40
0.555
50
-144.00000000000009
51
-80.5650511770775
0
ARC
8
0
10
34.17834081462386
20
30.054671145688857
40
0.555
50
152.56505117707752
51
-144.0000000000008
0
ARC
8
0
10
34.55505559491489
20
29.81609141613148
40
1
50
131.09884377611857
51
150.37698324006274
0
ARC
8
0
10
33.79457270172704
20
30.6785977619564
40
0.15
50
-46.56859202882978
51
36.00000000000039
0
ARC
8
0
10
19.11056715682139
20
19.108289513536782
40
18.84459317102744
50
38.21865616238264
51
39.781343837618785
0
ARC
8
0
10
33.48101283058199
20
31.065811955236914
40
0.15
50
42.00000000000009
51
124.56859202882694
0
ARC
8
0
10
32.79546760195634
20
31.989001625309225
40
1
50
-72.37698324006327
51
-53.09884377611888
0
ARC
8
0
10
32.95051038508026
20
31.570915451839465
40
0.555
50
-138.00000000000045
51
-74.56505117707816
0
ARC
8
0
10
32.95051038508026
20
31.570915451839465
40
0.555
50
158.56505117707832
51
-138.00000000000045
0
ARC
8
0
10
33.35009985488598
20
31.373020104077636
40
1
50
137.09884377611857
51
156.37698324006266
0
ARC
8
0
10
32.50362650366997
20
32.15130944172833
40
0.15
50
-40.56859202882719
51
42.000000000001094
0
ARC
8
0
10
19.109488018292346
20
19.10948801829238
40
18.84459317102744
50
44.21865616238186
51
45.78134383761799
0
ARC
8
0
10
32.15130944172833
20
32.50362650366997
40
0.15
50
47.999999999998906
51
130.5685920288272
0
ARC
8
0
10
31.373020104077636
20
33.35009985488598
40
1
50
-66.37698324006264
51
-47.098843776118564
0
ARC
8
0
10
31.570915451839465
20
32.95051038508026
40
0.555
50
-131.99999999999955
51
-68.56505117707829
0
ARC
8
0
10
31.570915451839465
20
32.95051038508026
40
0.555
50
164.56505117707815
51
-131.99999999999955
0
ARC
8
0
10
31.98900162530922
20
32.79546760195634
40
1
50
143.09884377611877
51
162.3769832400632
0
ARC
8
0
10
31.065811955236914
20
33.48101283058199
40
0.15
50
-34.56859202882694
51
47.99999999999992
0
ARC
8
0
10
19.108289513536754
20
19.11056715682141
40
18.84459317102744
50
50.21865616238111
51
51.781343837617264
0
ARC
8
0
10
30.6785977619564
20
33.79457270172704
40
0.15
50
53.999999999999616
51
136.56859202882978
0
ARC
8
0
10
29.816091416131478
20
34.55505559491489
40
1
50
-60.37698324006257
51
-41.098843776118436
0
ARC
8
0
10
30.054671145688857
20
34.17834081462386
40
0.555
50
-125.9999999999992
51
-62.56505117707751
0
ARC
8
0
10
30.05467114568886
20
34.17834081462385
40
0.555
50
170.56505117707752
51
-125.99999999999996
0
ARC
8
0
10
30.486673383215955
20
34.067849277314515
40
1
50
149.0988437761182
51
168.37698324006212
0
ARC
8
0
10
29.49688205350252
20
34.65313941993075
40
0.15
50
-28.568592028826625
51
53.999999999999616
0
ARC
8
0
10
19.106984773623733
20
19.111515105856167
40
18.84459317102744
50
56.218656162381194
51
57.78134383761734
0
ARC
8
0
10
29.079013128614495
20
34.92450667271432
40
0.15
50
60.00000000000078
51
142.56859202882697
0
ARC
8
0
10
28.14173957463127
20
35.59066709815498
40
1
50
-54.376983240062735
51
-35.09884377611861
0
ARC
8
0
10
28.41838975654116
20
35.240954373344145
40
0.555
50
-119.9999999999995
51
-56.56505117707784
0
ARC
8
0
10
28.418389756541163
20
35.240954373344145
40
0.555
50
176.56505117707857
51
-119.99999999999982
0
ARC
8
0
10
28.859574951208966
20
35.176224650254
40
1
50
155.0988437761179
51
174.37698324006243
0
ARC
8
0
10
27.814026322789903
20
35.65484714557848
40
0.15
50
-22.568592028827155
51
60.00000000000196
0
ARC
8
0
10
19.105588093556946
20
19.112321479468697
40
18.84459317102744
50
62.21865616238241
51
63.78134383761853
0
ARC
8
0
10
27.37008092568012
20
35.881048623591816
40
0.15
50
65.9999999999999
51
148.56859202882615
0
ARC
8
0
10
26.368309128733127
20
36.44558798826112
40
1
50
-48.37698324006281
51
-29.098843776118503
0
ARC
8
0
10
26.679998725709755
20
36.1267088447256
40
0.555
50
-114.00000000000047
51
-50.565051177078416
0
ARC
8
0
10
26.67999872570975
20
36.1267088447256
40
0.555
50
-177.43494882292188
51
-114.00000000000014
0
ARC
8
0
10
27.125533160201552
20
36.1084501282464
40
1
50
161.09884377611883
51
-179.62301675993703
0
ARC
8
0
10
26.035682482644923
20
36.47516108806214
40
0.15
50
-16.568592028827812
51
65.9999999999999
0
ARC
8
0
10
19.10411477565477
20
19.112977442861336
40
18.84459317102744
50
68.21865616238229
51
69.78134383761844
0
ARC
8
0
10
25.57052457198568
20
36.65371848057644
40
0.15
50
71.99999999999956
51
154.56859202882595
0
ARC
8
0
10
24.515230153516498
20
37.1104515730576
40
1
50
-42.37698324006262
51
-23.09884377611838
0
ARC
8
0
10
24.858544229110137
20
36.82589971742373
40
0.555
50
-107.99999999999993
51
-44.56505117707808
0
ARC
8
0
10
24.858544229110134
20
36.82589971742373
40
0.555
50
-171.43494882292197
51
-107.99999999999957
0
ARC
8
0
10
25.303546534927563
20
36.85431205387409
40
1
50
167.09884377611823
51
-173.62301675993774
0
ARC
8
0
10
24.181334440322605
20
37.10509371616615
40
0.15
50
-10.568592028826531
51
71.99999999999956
0
ARC
8
0
10
19.10258096189654
20
19.11347580916173
40
18.84459317102744
50
74.21865616238125
51
75.7813438376174
0
ARC
8
0
10
23.70006038352363
20
37.23405071102349
40
0.15
50
78.00000000000176
51
160.56859202882765
0
ARC
8
0
10
22.60280537001556
20
37.577973467977756
40
1
50
-36.376983240062486
51
-17.098843776118446
0
ARC
8
0
10
22.97398250337092
20
37.33086650992216
40
0.555
50
-101.99999999999993
51
-38.56505117707804
0
ARC
8
0
10
22.973982503370923
20
37.33086650992216
40
0.555
50
-165.4349488229215
51
-102.00000000000028
0
ARC
8
0
10
23.41357714212872
20
37.405638607798274
40
1
50
173.09884377611854
51
-167.62301675993723
0
ARC
8
0
10
22.271298821021897
20
37.53774335619515
40
0.15
50
-4.568592028828244
51
78.00000000000044
0
ARC
8
0
10
19.101003457067424
20
19.11381111816421
40
18.84459317102744
50
80.21865616238144
51
81.78134383761757
0
ARC
8
0
10
21.779181557362552
20
37.61568707357388
40
0.15
50
84.0000000000008
51
166.56859202882885
0
ARC
8
0
10
20.65198770435896
20
37.84303140530559
40
1
50
-30.37698324006266
51
-11.098843776118507
0
ARC
8
0
10
21.04696120112919
20
37.63607670037118
40
0.555
50
-96.00000000000027
51
-32.56505117707837
0
ARC
8
0
10
21.046961201129193
20
37.63607670037118
40
0.555
50
-159.43494882292222
51
-96.00000000000064
0
ARC
8
0
10
21.47633188197404
20
37.75638934092165
40
1
50
179.0988437761187
51
-161.62301675993726
0
ARC
8
0
10
20.32650237468851
20
37.76836980815521
40
0.15
50
1.4314079711720435
51
84.0000000000008
0
ARC
8
0
10
19.099399544640352
20
19.113979696153294
40
18.84459317102744
50
86.21865616238247
51
87.78134383761864
0
ARC
8
0
10
19.8289336438916
20
37.79444628037695
40
0.15
50
90.00000000000136
51
172.5685920288269
0
ARC
8
0
10
18.68415072312647
20
37.9027213548128
40
1
50
-24.376983240062906
51
-5.098843776118483
0
ARC
8
0
10
19.09859317102744
20
37.73818634205488
40
0.555
50
-89.99999999999962
51
-26.56505117707799
0
ARC
8
0
10
19.098593171027446
20
37.73818634205488
40
0.555
50
-153.43494882292202
51
-90.00000000000037
0
ARC
8
0
10
19.513035618928413
20
37.9027213548128
40
1
50
-174.90115622388154
51
-155.6230167599371
0
ARC
8
0
10
18.368252698163285
20
37.79444628037695
40
0.15
50
7.431407971173092
51
89.99999999999865
0
ARC
8
0
10
19.097786797414507
20
19.113979696153294
40
18.84459317102744
50
92.21865616238131
51
93.78134383761744
0
ARC
8
0
10
17.87068396736638
20
37.76836980815521
40
0.15
50
95.99999999999922
51
178.56859202882796
0
ARC
8
0
10
16.720854460080847
20
37.75638934092165
40
1
50
-18.37698324006275
51
0.9011562238812928
0
ARC
8
0
10
17.150225140925695
20
37.63607670037118
40
0.555
50
-83.99999999999973
51
-20.565051177077777
0
ARC
8
0
10
17.1502251409257
20
37.63607670037118
40
0.555
50
-147.43494882292163
51
-84.00000000000011
0
ARC
8
0
10
17.54519863769593
20
37.84303140530559
40
1
50
-168.9011562238815
51
-149.62301675993734
0
ARC
8
0
10
16.418004784692336
20
37.61568707357388
40
0.15
50
13.431407971171144
51
95.99999999999922
0
ARC
8
0
10
19.096182884987442
20
19.113811118164207
40
18.84459317102744
50
98.21865616238237
51
99.7813438376185
0
ARC
8
0
10
15.925887521032994
20
37.53774335619515
40
0.15
50
102.00000000000023
51
-175.4314079711717
0
ARC
8
0
10
14.783609199926172
20
37.405638607798274
40
1
50
-12.37698324006277
51
6.901156223881438
0
ARC
8
0
10
15.223203838683974
20
37.33086650992217
40
0.555
50
-78.00000000000026
51
-14.565051177079292
0
ARC
8
0
10
15.22320383868397
20
37.33086650992217
40
0.555
50
-141.43494882292117
51
-77.9999999999999
0
ARC
8
0
10
15.594380972039332
20
37.57797346797776
40
1
50
-162.90115622388117
51
-143.62301675993712
0
ARC
8
0
10
14.497125958531262
20
37.23405071102349
40
0.15
50
19.43140797117259
51
102.00000000000023
0
ARC
8
0
10
19.094605380158047
20
19.113475809161653
40
18.84459317102744
50
104.21865616238166
51
105.78134383761783
0
ARC
8
0
10
14.015851901732283
20
37.10509371616616
40
0.15
50
108.0000000000011
51
-169.4314079711736
0
ARC
8
0
10
12.893639807127322
20
36.854312053874104
40
1
50
-6.37698324006266
51
12.901156223881351
0
ARC
8
0
10
13.338642112944749
20
36.82589971742374
40
0.555
50
-71.99999999999991
51
-8.56505117707802
0
ARC
8
0
10
13.33864211294475
20
36.82589971742374
40
0.555
50
-135.43494882292205
51
-72.00000000000007
0
ARC
8
0
10
13.68195618853839
20
37.11045157305761
40
1
50
-156.90115622388166
51
-137.62301675993746
0
ARC
8
0
10
12.626661770069207
20
36.653718480576444
40
0.15
50
25.43140797117406
51
108.0000000000011
0
ARC
8
0
10
19.093071566400337
20
19.112977442861425
40
18.84459317102744
50
110.21865616238232
51
111.78134383761845
0
ARC
8
0
10
12.161503859409963
20
36.47516108806214
40
0.15
50
113.99999999999949
51
-163.4314079711722
0
ARC
8
0
10
11.071653181853334
20
36.1084501282464
40
1
50
-0.376983240062951
51
18.90115622388121
0
ARC
8
0
10
11.517187616345135
20
36.1267088447256
40
0.555
50
-66.00000000000004
51
-2.565051177078151
0
ARC
8
0
10
11.517187616345133
20
36.1267088447256
40
0.555
50
-129.4349488229216
51
-65.99999999999987
0
ARC
8
0
10
11.828877213321766
20
36.44558798826111
40
1
50
-150.90115622388194
51
-131.62301675993768
0
ARC
8
0
10
10.827105416374769
20
35.881048623591816
40
0.15
50
31.43140797117385
51
114.0000000000001
0
ARC
8
0
10
19.09159824849789
20
19.11232147946867
40
18.84459317102744
50
116.21865616238128
51
117.78134383761741
0
ARC
8
0
10
10.38316001926499
20
35.65484714557848
40
0.15
50
119.99999999999923
51
-157.4314079711731
0
ARC
8
0
10
9.33761139084592
20
35.17622465025401
40
1
50
5.623016759937587
51
24.90115622388164
0
ARC
8
0
10
9.778796585513726
20
35.24095437334415
40
0.555
50
-60.000000000000185
51
3.434948822921424
0
ARC
8
0
10
9.778796585513724
20
35.240954373344145
40
0.555
50
-123.43494882292171
51
-59.99999999999966
0
ARC
8
0
10
10.055446767423616
20
35.59066709815498
40
1
50
-144.90115622388134
51
-125.62301675993713
0
ARC
8
0
10
9.118173213440393
20
34.92450667271432
40
0.15
50
37.43140797117306
51
119.99999999999865
0
ARC
8
0
10
19.090201568430846
20
19.111515105855972
40
18.84459317102744
50
122.21865616238155
51
123.7813438376177
0
ARC
8
0
10
8.70030428855236
20
34.65313941993076
40
0.15
50
125.99999999999929
51
-151.43140797117036
0
ARC
8
0
10
7.710512958838929
20
34.067849277314515
40
1
50
11.623016759937874
51
30.901156223881802
0
ARC
8
0
10
8.142515196366022
20
34.17834081462385
40
0.555
50
-53.999999999999915
51
9.434948822922472
0
ARC
8
0
10
8.142515196366027
20
34.17834081462386
40
0.555
50
-117.43494882292227
51
-54.000000000000796
0
ARC
8
0
10
8.381094925923405
20
34.55505559491489
40
1
50
-138.90115622388143
51
-119.62301675993722
0
ARC
8
0
10
7.518588580098486
20
33.79457270172704
40
0.15
50
43.43140797117024
51
125.999999999999
0
ARC
8
0
10
19.088896828518017
20
19.11056715682132
40
18.84459317102744
50
128.2186561623823
51
129.78134383761844
0
ARC
8
0
10
7.131374386817973
20
33.48101283058199
40
0.15
50
132.0000000000006
51
-145.43140797117346
0
ARC
8
0
10
6.208184716745662
20
32.79546760195634
40
1
50
17.623016759936768
51
36.90115622388119
0
ARC
8
0
10
6.62627089021542
20
32.95051038508026
40
0.555
50
-48.00000000000039
51
15.434948822921848
0
ARC
8
0
10
6.626270890215421
20
32.95051038508026
40
0.555
50
-111.43494882292198
51
-48.000000000000455
0
ARC
8
0
10
6.824166237977242
20
33.35009985488598
40
1
50
-132.9011562238813
51
-113.62301675993707
0
ARC
8
0
10
6.045876900326552
20
32.50362650366997
40
0.15
50
49.43140797117281
51
132.00000000000009
0
ARC
8
0
10
19.087698323762428
20
19.10948801829227
40
18.84459317102744
50
134.21865616238154
51
135.78134383761764
0
ARC
8
0
10
5.693559838384915
20
32.15130944172834
40
0.15
50
137.9999999999987
51
-139.43140797117238
0
ARC
8
0
10
4.847086487168902
20
31.373020104077646
40
1
50
23.6230167599369
51
42.90115622388119
0
ARC
8
0
10
5.24667595697463
20
31.57091545183947
40
0.555
50
-42.000000000000014
51
21.43494882292168
0
ARC
8
0
10
5.246675956974631
20
31.57091545183947
40
0.555
50
-105.43494882292185
51
-42.000000000000064
0
ARC
8
0
10
5.401718740098552
20
31.989001625309225
40
1
50
-126.90115622388109
51
-107.62301675993699
0
ARC
8
0
10
4.716173511472902
20
31.065811955236914
40
0.15
50
55.43140797117251
51
137.99999999999991
0
ARC
8
0
10
19.08661918523351
20
19.10828951353679
40
18.84459317102744
50
140.21865616238125
51
141.78134383761738
0
ARC
8
0
10
4.402613640327849
20
30.6785977619564
40
0.15
50
143.9999999999992
51
-133.4314079711712
0
ARC
8
0
10
3.642130747139998
20
29.816091416131478
40
1
50
29.623016759937446
51
48.90115622388163
0
ARC
8
0
10
4.018845527431029
20
30.054671145688864
40
0.555
50
-35.99999999999983
51
27.434948822921843
0
ARC
8
0
10
4.0188455274310275
20
30.054671145688864
40
0.555
50
-99.43494882292158
51
-35.99999999999972
0
ARC
8
0
10
4.129337064740364
20
30.486673383215958
40
1
50
-120.90115622388153
51
-101.62301675993739
0
ARC
8
0
10
3.5440469221241293
20
29.496882053502524
40
0.15
50
61.43140797117244
51
144.00000000000082
0
ARC
8
0
10
19.085671236198813
20
19.106984773623882
40
18.84459317102744
50
146.21865616238173
51
147.7813438376179
0
ARC
8
0
10
3.2726796693405595
20
29.07901312861449
40
0.15
50
150.00000000000026
51
-127.43140797117236
0
ARC
8
0
10
2.6065192438999065
20
28.141739574631263
40
1
50
35.623016759937485
51
54.90115622388166
0
ARC
8
0
10
2.956231968710738
20
28.41838975654116
40
0.555
50
-30.000000000000043
51
33.434948822921704
0
ARC
8
0
10
2.956231968710738
20
28.418389756541163
40
0.555
50
-93.4349488229217
51
-30.00000000000036
0
ARC
8
0
10
3.0209616918008786
20
28.859574951208966
40
1
50
-114.90115622388163
51
-95.62301675993744
0
ARC
8
0
10
2.5423391964764064
20
27.814026322789896
40
0.15
50
67.4314079711732
51
150.0000000000005
0
ARC
8
0
10
19.0848648625861
20
19.105588093556776
40
18.84459317102744
50
152.21865616238185
51
153.78134383761795
0
ARC
8
0
10
2.316137718463066
20
27.370080925680128
40
0.15
50
155.99999999999957
51
-121.43140797117242
0
ARC
8
0
10
1.7515983537937676
20
26.368309128733134
40
1
50
41.62301675993721
51
60.901156223881415
0
ARC
8
0
10
2.0704774973292843
20
26.679998725709762
40
0.555
50
-24.000000000000412
51
39.434948822921505
0
ARC
8
0
10
2.0704774973292843
20
26.67999872570976
40
0.555
50
-87.43494882292168
51
-24.000000000000078
0
ARC
8
0
10
2.0887362138084846
20
27.12553316020156
40
1
50
-108.90115622388137
51
-89.62301675993723
0
ARC
8
0
10
1.722025253992748
20
26.03568248264493
40
0.15
50
73.43140797117235
51
155.99999999999957
0
ARC
8
0
10
19.084208899193516
20
19.10411477565469
40
18.84459317102744
50
158.21865616238202
51
159.78134383761815
0
ARC
8
0
10
1.5434678614784463
20
25.570524571985683
40
0.15
50
162.00000000000105
51
-115.4314079711724
0
ARC
8
0
10
1.0867347689972808
20
24.515230153516498
40
1
50
47.62301675993725
51
66.90115622388147
0
ARC
8
0
10
1.3712866246311524
20
24.858544229110137
40
0.555
50
-17.99999999999989
51
45.43494882292169
0
ARC
8
0
10
1.3712866246311515
20
24.858544229110137
40
0.555
50
-81.43494882292163
51
-17.99999999999986
0
ARC
8
0
10
1.3428742881807938
20
25.303546534927563
40
1
50
-102.90115622388178
51
-83.6230167599376
0
ARC
8
0
10
1.092092625888728
20
24.181334440322605
40
0.15
50
79.43140797117248
51
161.99999999999972
0
ARC
8
0
10
19.083710532893193
20
19.102580961896695
40
18.84459317102744
50
164.21865616238176
51
165.78134383761792
0
ARC
8
0
10
0.96313563103139
20
23.700060383523628
40
0.15
50
168.00000000000173
51
-109.43140797117249
0
ARC
8
0
10
0.619212874077129
20
22.602805370015552
40
1
50
53.62301675993764
51
72.90115622388178
0
ARC
8
0
10
0.8663198321327237
20
22.97398250337092
40
0.555
50
-12.00000000000034
51
51.43494882292161
0
ARC
8
0
10
0.8663198321327229
20
22.973982503370912
40
0.555
50
-75.43494882292161
51
-11.999999999999606
0
ARC
8
0
10
0.7915477342566194
20
23.413577142128716
40
1
50
-96.9011562238821
51
-77.62301675993793
0
ARC
8
0
10
0.6594429858597337
20
22.271298821021894
40
0.15
50
85.43140797117279
51
168.0000000000004
0
ARC
8
0
10
19.083375223890695
20
19.10100345706755
40
18.84459317102744
50
170.21865616238185
51
171.78134383761795
0
ARC
8
0
10
0.5814992684810062
20
21.779181557362552
40
0.15
50
173.99999999999935
51
-103.43140797117253
0
ARC
8
0
10
0.3541549367492962
20
20.65198770435896
40
1
50
59.623016759937386
51
78.90115622388156
0
ARC
8
0
10
0.5611096416837094
20
21.046961201129193
40
0.555
50
-5.999999999999925
51
57.434948822921726
0
ARC
8
0
10
0.5611096416837095
20
21.046961201129193
40
0.555
50
-69.43494882292165
51
-5.999999999999926
0
ARC
8
0
10
0.4407970011332418
20
21.476331881974044
40
1
50
-90.90115622388146
51
-71.62301675993731
0
ARC
8
0
10
0.42881653389968427
20
20.326502374688513
40
0.15
50
91.4314079711726
51
174.0000000000007
0
ARC
8
0
10
19.083206645901583
20
19.099399544640097
40
18.84459317102744
50
176.2186561623817
51
177.78134383761784
0
ARC
8
0
10
0.40274006167793497
20
19.828933643891602
40
0.15
50
-179.99999999999866
51
-97.4314079711725
0
ARC
8
0
10
0.29446498724208425
20
18.684150723126475
40
1
50
65.62301675993689
51
84.9011562238811
0
ARC
8
0
10
0.45900000000000263
20
19.098593171027446
40
0.555
50
0
51
63.43494882292167
0
ARC
8
0
10
0.45900000000000285
20
19.098593171027446
40
0.555
50
-63.43494882292168
51
0
0
ARC
8
0
10
0.2944649872420839
20
19.513035618928416
40
1
50
-84.90115622388107
51
-65.62301675993687
0
ARC
8
0
10
0.4027400616779352
20
18.36825269816329
40
0.15
50
97.43140797117252
51
179.99999999999866
0
ARC
8
0
10
19.08320664590159
20
19.09778679741463
40
18.84459317102744
50
-177.78134383761835
51
-176.21865616238222
0
ARC
8
0
10
0.4288165338996808
20
17.870683967366386
40
0.15
50
-174.00000000000207
51
-91.4314079711727
0
ARC
8
0
10
0.44079700113323833
20
16.720854460080854
40
1
50
71.62301675993733
51
90.90115622388147
0
ARC
8
0
10
0.5611096416837095
20
17.150225140925706
40
0.555
50
5.999999999999926
51
69.434948822922
0
ARC
8
0
10
0.5611096416837094
20
17.150225140925706
40
0.555
50
-57.434948822922024
51
5.999999999999925
0
ARC
8
0
10
0.3541549367492919
20
17.545198637695936
40
1
50
-78.90115622388144
51
-59.62301675993723
0
ARC
8
0
10
0.5814992684810038
20
16.418004784692346
40
0.15
50
103.43140797117273
51
-174.0000000000007
0
ARC
8
0
10
19.0833752238907
20
19.096182884987304
40
18.84459317102744
50
-171.78134383761812
51
-170.21865616238196
0
ARC
8
0
10
0.6594429858597325
20
15.925887521032994
40
0.15
50
-167.99999999999972
51
-85.43140797117242
0
ARC
8
0
10
0.7915477342566086
20
14.783609199926172
40
1
50
77.6230167599373
51
96.9011562238815
0
ARC
8
0
10
0.8663198321327233
20
15.223203838683972
40
0.555
50
11.999999999999975
51
75.43494882292168
0
ARC
8
0
10
0.8663198321327233
20
15.223203838683972
40
0.555
50
-51.4349488229217
51
11.999999999999975
0
ARC
8
0
10
0.6192128740771242
20
15.594380972039334
40
1
50
-72.90115622388149
51
-53.62301675993729
0
ARC
8
0
10
0.9631356310313898
20
14.497125958531262
40
0.15
50
109.43140797117256
51
-167.99999999999972
0
ARC
8
0
10
19.083710532893218
20
19.094605380158093
40
18.84459317102744
50
-165.7813438376182
51
-164.21865616238202
0
ARC
8
0
10
1.0920926258887278
20
14.015851901732274
40
0.15
50
-161.99999999999972
51
-79.43140797117239
0
ARC
8
0
10
1.3428742881807887
20
12.893639807127315
40
1
50
83.62301675993729
51
102.90115622388146
0
ARC
8
0
10
1.3712866246311526
20
13.338642112944742
40
0.555
50
18.00000000000007
51
81.43494882292171
0
ARC
8
0
10
1.371286624631153
20
13.338642112944742
40
0.555
50
-45.43494882292174
51
18.000000000000085
0
ARC
8
0
10
1.0867347689972808
20
13.681956188538383
40
1
50
-66.9011562238815
51
-47.623016759937315
0
ARC
8
0
10
1.543467861478446
20
12.626661770069198
40
0.15
50
115.43140797117258
51
-161.99999999999972
0
ARC
8
0
10
19.08420889919349
20
19.09307156640025
40
18.84459317102744
50
-159.78134383761795
51
-158.21865616238188
0
ARC
8
0
10
1.7220252539927414
20
12.161503859409969
40
0.15
50
-156.00000000000026
51
-73.43140797117259
0
ARC
8
0
10
2.088736213808477
20
11.071653181853339
40
1
50
89.62301675993722
51
108.90115622388137
0
ARC
8
0
10
2.0704774973292763
20
11.51718761634514
40
0.555
50
23.999999999999872
51
87.43494882292158
0
ARC
8
0
10
2.070477497329277
20
11.517187616345137
40
0.555
50
-39.434948822921505
51
24.000000000000245
0
ARC
8
0
10
1.7515983537937665
20
11.82887721332177
40
1
50
-60.90115622388177
51
-41.62301675993766
0
ARC
8
0
10
2.3161377184630596
20
10.827105416374774
40
0.15
50
121.43140797117269
51
-156.0000000000003
0
ARC
8
0
10
19.084864862586162
20
19.091598248497988
40
18.84459317102744
50
-153.7813438376184
51
-152.21865616238222
0
ARC
8
0
10
2.542339196476405
20
10.383160019264984
40
0.15
50
-150.00000000000037
51
-67.43140797117263
0
ARC
8
0
10
3.020961691800878
20
9.337611390845915
40
1
50
95.6230167599374
51
114.9011562238816
0
ARC
8
0
10
2.9562319687107403
20
9.77879658551372
40
0.555
50
29.99999999999997
51
93.43494882292192
0
ARC
8
0
10
2.95623196871074
20
9.778796585513723
40
0.555
50
-33.43494882292196
51
29.99999999999979
0
ARC
8
0
10
2.6065192438999034
20
10.055446767423613
40
1
50
-54.901156223881365
51
-35.62301675993712
0
ARC
8
0
10
3.2726796693405604
20
9.11817321344039
40
0.15
50
127.43140797117293
51
-150.00000000000037
0
ARC
8
0
10
19.085671236198852
20
19.09020156843094
40
18.84459317102744
50
-147.78134383761812
51
-146.21865616238196
0
ARC
8
0
10
3.544046922124126
20
8.700304288552362
40
0.15
50
-144.00000000000028
51
-61.43140797117275
0
ARC
8
0
10
4.12933706474036
20
7.710512958838927
40
1
50
101.6230167599373
51
120.90115622388153
0
ARC
8
0
10
4.018845527431028
20
8.142515196366022
40
0.555
50
36.00000000000003
51
99.43494882292188
0
ARC
8
0
10
4.0188455274310275
20
8.142515196366022
40
0.555
50
-27.43494882292177
51
35.99999999999998
0
ARC
8
0
10
3.642130747139995
20
8.381094925923406
40
1
50
-48.9011562238815
51
-29.623016759937272
0
ARC
8
0
10
4.402613640327849
20
7.5185885800984895
40
0.15
50
133.43140797117263
51
-143.9999999999999
0
ARC
8
0
10
19.086619185233626
20
19.08889682851795
40
18.84459317102744
50
-141.78134383761798
51
-140.21865616238185
0
ARC
8
0
10
4.716173511472898
20
7.131374386817972
40
0.15
50
-137.99999999999991
51
-55.4314079711727
0
ARC
8
0
10
5.401718740098556
20
6.208184716745665
40
1
50
107.6230167599374
51
126.90115622388156
0
ARC
8
0
10
5.2466759569746255
20
6.6262708902154195
40
0.555
50
41.999999999999815
51
105.43494882292165
0
ARC
8
0
10
5.246675956974626
20
6.626270890215419
40
0.555
50
-21.43494882292168
51
41.999999999999936
0
ARC
8
0
10
4.847086487168901
20
6.824166237977247
40
1
50
-42.90115622388144
51
-23.62301675993729
0
ARC
8
0
10
5.693559838384913
20
6.045876900326553
40
0.15
50
139.43140797117283
51
-138.00000000000014
0
ARC
8
0
10
19.087698323762584
20
19.087698323762453
40
18.84459317102744
50
-135.78134383761835
51
-134.21865616238225
0
ARC
8
0
10
6.0458769003265465
20
5.693559838384917
40
0.15
50
-131.99999999999986
51
-49.43140797117281
0
ARC
8
0
10
6.82416623797724
20
4.8470864871689034
40
1
50
113.62301675993719
51
132.90115622388137
0
ARC
8
0
10
6.626270890215414
20
5.24667595697463
40
0.555
50
48
51
111.43494882292178
0
ARC
8
0
10
6.626270890215414
20
5.24667595697463
40
0.555
50
-15.434948822921733
51
48
0
ARC
8
0
10
6.208184716745659
20
5.401718740098559
40
1
50
-36.901156223881564
51
-17.623016759937396
0
ARC
8
0
10
7.131374386817966
20
4.716173511472901
40
0.15
50
145.4314079711722
51
-132.00000000000009
0
ARC
8
0
10
19.088896828517942
20
19.08661918523363
40
18.84459317102744
50
-129.78134383761818
51
-128.21865616238202
0
ARC
8
0
10
7.518588580098485
20
4.402613640327851
40
0.15
50
-125.99999999999984
51
-43.43140797117216
0
ARC
8
0
10
8.381094925923403
20
3.6421307471399964
40
1
50
119.62301675993727
51
138.90115622388143
0
ARC
8
0
10
8.142515196366018
20
4.018845527431029
40
0.555
50
54.00000000000003
51
117.43494882292177
0
ARC
8
0
10
8.142515196366018
20
4.01884552743103
40
0.555
50
-9.434948822921884
51
53.99999999999997
0
ARC
8
0
10
7.710512958838923
20
4.129337064740363
40
1
50
-30.901156223881532
51
-11.623016759937329
0
ARC
8
0
10
8.700304288552358
20
3.544046922124129
40
0.15
50
151.43140797117277
51
-125.99999999999976
0
ARC
8
0
10
19.090201568431006
20
19.085671236198806
40
18.84459317102744
50
-123.78134383761828
51
-122.21865616238216
0
ARC
8
0
10
9.118173213440382
20
3.272679669340564
40
0.15
50
-119.99999999999966
51
-37.43140797117293
0
ARC
8
0
10
10.055446767423605
20
2.606519243899907
40
1
50
125.62301675993714
51
144.90115622388134
0
ARC
8
0
10
9.778796585513716
20
2.9562319687107435
40
0.555
50
60.00000000000021
51
123.43494882292197
0
ARC
8
0
10
9.778796585513714
20
2.956231968710744
40
0.555
50
-3.434948822921927
51
60.00000000000003
0
ARC
8
0
10
9.337611390845908
20
3.020961691800877
40
1
50
-24.901156223881294
51
-5.623016759937132
0
ARC
8
0
10
10.38316001926498
20
2.542339196476408
40
0.15
50
157.4314079711725
51
-120.00000000000041
0
ARC
8
0
10
19.09159824849806
20
19.084864862586127
40
18.84459317102744
50
-117.78134383761805
51
-116.21865616238188
0
ARC
8
0
10
10.827105416374765
20
2.3161377184630623
40
0.15
50
-114.00000000000044
51
-31.431407971172543
0
ARC
8
0
10
11.828877213321759
20
1.7515983537937645
40
1
50
131.62301675993723
51
150.90115622388146
0
ARC
8
0
10
11.517187616345133
20
2.0704774973292808
40
0.555
50
65.99999999999993
51
129.43494882292165
0
ARC
8
0
10
11.517187616345133
20
2.0704774973292808
40
0.555
50
2.5650511770783333
51
65.99999999999993
0
ARC
8
0
10
11.071653181853332
20
2.088736213808481
40
1
50
-18.90115622388139
51
0.37698324006277284
0
ARC
8
0
10
12.161503859409962
20
1.722025253992745
40
0.15
50
163.4314079711726
51
-113.99999999999972
0
ARC
8
0
10
19.09307156640025
20
19.084208899193495
40
18.84459317102744
50
-111.78134383761818
51
-110.21865616238205
0
ARC
8
0
10
12.626661770069202
20
1.5434678614784456
40
0.15
50
-108.00000000000033
51
-25.43140797117247
0
ARC
8
0
10
13.681956188538386
20
1.0867347689972808
40
1
50
137.62301675993731
51
156.90115622388151
0
ARC
8
0
10
13.338642112944745
20
1.3712866246311528
40
0.555
50
71.99999999999993
51
135.43494882292174
0
ARC
8
0
10
13.338642112944745
20
1.3712866246311526
40
0.555
50
8.565051177078294
51
71.99999999999994
0
ARC
8
0
10
12.893639807127318
20
1.342874288180788
40
1
50
-12.901156223881449
51
6.376983240062748
0
ARC
8
0
10
14.015851901732278
20
1.0920926258887276
40
0.15
50
169.43140797117238
51
-108.00000000000033
0
ARC
8
0
10
19.0946053801583
20
19.083710532893157
40
18.84459317102744
50
-105.78134383761862
51
-104.2186561623825
0
ARC
8
0
10
14.497125958531248
20
0.963135631031389
40
0.15
50
-102.0000000000003
51
-19.43140797117243
0
ARC
8
0
10
15.59438097203932
20
0.6192128740771248
40
1
50
143.62301675993731
51
162.90115622388154
0
ARC
8
0
10
15.22320383868396
20
0.8663198321327268
40
0.555
50
78.00000000000003
51
141.43494882292208
0
ARC
8
0
10
15.223203838683958
20
0.8663198321327275
40
0.555
50
14.565051177077892
51
77.99999999999984
0
ARC
8
0
10
14.783609199926158
20
0.7915477342566082
40
1
50
-6.901156223881463
51
12.37698324006272
0
ARC
8
0
10
15.92588752103298
20
0.6594429858597327
40
0.15
50
175.43140797117243
51
-102.0000000000003
0
ARC
8
0
10
19.096182884987318
20
19.083375223890695
40
18.84459317102744
50
-99.78134383761817
51
-98.21865616238199
0
ARC
8
0
10
16.41800478469234
20
0.5814992684810028
40
0.15
50
-96.00000000000067
51
-13.431407971172531
0
ARC
8
0
10
17.545198637695933
20
0.3541549367492927
40
1
50
149.6230167599374
51
168.90115622388157
0
ARC
8
0
10
17.1502251409257
20
0.5611096416837091
40
0.555
50
84.00000000000007
51
147.434948822922
0
ARC
8
0
10
17.1502251409257
20
0.5611096416837096
40
0.555
50
20.565051177077994
51
84.00000000000007
0
ARC
8
0
10
16.720854460080847
20
0.4407970011332383
40
1
50
-0.90115622388149
51
18.37698324006269
0
ARC
8
0
10
17.87068396736638
20
0.42881653389968
40
0.15
50
-178.56859202882745
51
-95.99999999999932
0
ARC
8
0
10
19.09778679741467
20
19.083206645901583
40
18.84459317102744
50
-93.78134383761794
51
-92.21865616238182
0
ARC
8
0
10
18.368252698163282
20
0.40274006167793475
40
0.15
50
-89.99999999999865
51
-7.431407971172503
0
ARC
8
0
10
19.51303561892841
20
0.29446498724208414
40
1
50
155.6230167599369
51
174.90115622388112
0
ARC
8
0
10
19.09859317102744
20
0.45900000000000274
40
0.555
50
90
51
153.43494882292168
0
ARC
8
0
10
19.09859317102744
20
0.45900000000000285
40
0.555
50
26.565051177078306
51
90
0
ARC
8
0
10
18.684150723126468
20
0.2944649872420843
40
1
50
5.098843776118894
51
24.376983240063108
0
ARC
8
0
10
19.828933643891595
20
0.4027400616779348
40
0.15
50
-172.56859202882757
51
-90.00000000000136
0
ARC
8
0
10
19.099399544640267
20
19.083206645901587
40
18.84459317102744
50
-87.78134383761837
51
-86.21865616238227
0
ARC
8
0
10
20.3265023746885
20
0.4288165338996801
40
0.15
50
-84.00000000000206
51
-1.4314079711726795
0
ARC
8
0
10
21.47633188197403
20
0.4407970011332387
40
1
50
161.62301675993734
51
-179.09884377611849
0
ARC
8
0
10
21.04696120112918
20
0.5611096416837096
40
0.555
50
95.99999999999993
51
159.43494882292202
0
ARC
8
0
10
21.04696120112918
20
0.5611096416837094
40
0.555
50
32.56505117707798
51
95.99999999999993
0
ARC
8
0
10
20.651987704358948
20
0.3541549367492919
40
1
50
11.09884377611855
51
30.376983240062767
0
ARC
8
0
10
21.779181557362538
20
0.5814992684810033
40
0.15
50
-166.56859202882737
51
-84.00000000000071
0
ARC
8
0
10
19.101003457067634
20
19.083375223890705
40
18.84459317102744
50
-81.78134383761827
51
-80.21865616238213
0
ARC
8
0
10
22.27129882102188
20
0.6594429858597297
40
0.15
50
-78.00000000000043
51
4.568592028827229
0
ARC
8
0
10
23.413577142128702
20
0.7915477342566156
40
1
50
167.62301675993794
51
-173.0988437761179
0
ARC
8
0
10
22.973982503370898
20
0.8663198321327193
40
0.555
50
101.99999999999962
51
165.43494882292163
0
ARC
8
0
10
22.973982503370905
20
0.8663198321327202
40
0.555
50
38.56505117707839
51
102.00000000000034
0
ARC
8
0
10
22.60280537001554
20
0.6192128740771253
40
1
50
17.09884377611824
51
36.37698324006237
0
ARC
8
0
10
23.700060383523613
20
0.9631356310313867
40
0.15
50
-160.5685920288275
51
-78.00000000000176
0
ARC
8
0
10
19.102580961896813
20
19.083710532893225
40
18.84459317102744
50
-75.78134383761831
51
-74.21865616238212
0
ARC
8
0
10
24.1813344403226
20
1.0920926258887242
40
0.15
50
-71.99999999999969
51
10.568592028827698
0
ARC
8
0
10
25.30354653492756
20
1.342874288180791
40
1
50
173.62301675993763
51
-167.0988437761182
0
ARC
8
0
10
24.85854422911013
20
1.371286624631148
40
0.555
50
107.99999999999953
51
171.43494882292154
0
ARC
8
0
10
24.858544229110134
20
1.3712866246311488
40
0.555
50
44.56505117707832
51
107.99999999999989
0
ARC
8
0
10
24.515230153516494
20
1.0867347689972768
40
1
50
23.098843776118553
51
42.37698324006277
0
ARC
8
0
10
25.57052457198568
20
1.5434678614784427
40
0.15
50
-154.5685920288276
51
-72.00000000000105
0
ARC
8
0
10
19.104114775654644
20
19.0842088991935
40
18.84459317102744
50
-69.78134383761802
51
-68.21865616238185
0
ARC
8
0
10
26.03568248264493
20
1.7220252539927476
40
0.15
50
-65.99999999999955
51
16.568592028827652
0
ARC
8
0
10
27.12553316020156
20
2.0887362138084837
40
1
50
179.62301675993717
51
-161.09884377611866
0
ARC
8
0
10
26.67999872570976
20
2.0704774973292843
40
0.555
50
114.00000000000009
51
177.43494882292168
0
ARC
8
0
10
26.679998725709762
20
2.0704774973292848
40
0.555
50
50.56505117707847
51
114.00000000000043
0
ARC
8
0
10
26.368309128733134
20
1.7515983537937676
40
1
50
29.098843776118567
51
48.37698324006279
0
ARC
8
0
10
27.370080925680128
20
2.316137718463066
40
0.15
50
-148.56859202882745
51
-65.99999999999955
0
ARC
8
0
10
19.10558809355684
20
19.084864862586134
40
18.84459317102744
50
-63.78134383761815
51
-62.21865616238203
0
ARC
8
0
10
27.8140263227899
20
2.542339196476406
40
0.15
50
-60.000000000000526
51
22.568592028826636
0
ARC
8
0
10
28.859574951208966
20
3.0209616918008875
40
1
50
-174.37698324006206
51
-155.09884377611777
0
ARC
8
0
10
28.41838975654116
20
2.9562319687107395
40
0.555
50
119.99999999999962
51
-176.56505117707815
0
ARC
8
0
10
28.418389756541163
20
2.95623196871074
40
0.555
50
56.565051177078196
51
119.99999999999994
0
ARC
8
0
10
28.141739574631266
20
2.606519243899906
40
1
50
35.09884377611837
51
54.376983240062536
0
ARC
8
0
10
29.079013128614495
20
3.2726796693405595
40
0.15
50
-142.56859202882762
51
-60.00000000000028
0
ARC
8
0
10
19.106984773623907
20
19.085671236198827
40
18.84459317102744
50
-57.78134383761797
51
-56.21865616238185
0
ARC
8
0
10
29.49688205350252
20
3.544046922124125
40
0.15
50
-54.00000000000081
51
28.56859202882757
0
ARC
8
0
10
30.486673383215955
20
4.12933706474036
40
1
50
-168.37698324006263
51
-149.09884377611843
0
ARC
8
0
10
30.05467114568886
20
4.018845527431024
40
0.555
50
125.99999999999972
51
-170.56505117707843
0
ARC
8
0
10
30.05467114568886
20
4.018845527431026
40
0.555
50
62.56505117707816
51
125.99999999999983
0
ARC
8
0
10
29.816091416131478
20
3.6421307471399933
40
1
50
41.098843776118606
51
60.37698324006277
0
ARC
8
0
10
30.678597761956397
20
4.4026136403278455
40
0.15
50
-136.56859202882904
51
-53.99999999999922
0
ARC
8
0
10
19.108289513536935
20
19.086619185233623
40
18.84459317102744
50
-51.78134383761797
51
-50.21865616238185
0
ARC
8
0
10
31.065811955236907
20
4.71617351147289
40
0.15
50
-47.99999999999992
51
34.56859202882777
0
ARC
8
0
10
31.989001625309214
20
5.4017187400985485
40
1
50
-162.37698324006269
51
-143.09884377611849
0
ARC
8
0
10
31.570915451839458
20
5.24667595697462
40
0.555
50
132.00000000000006
51
-164.56505117707823
0
ARC
8
0
10
31.570915451839458
20
5.246675956974619
40
0.555
50
68.56505117707832
51
132
0
ARC
8
0
10
31.37302010407763
20
4.847086487168895
40
1
50
47.09884377611852
51
66.37698324006264
0
ARC
8
0
10
32.15130944172832
20
5.693559838384907
40
0.15
50
-130.56859202882697
51
-48.00000000000138
0
ARC
8
0
10
19.109488018292527
20
19.087698323762687
40
18.84459317102744
50
-45.78134383761883
51
-44.21865616238263
0
ARC
8
0
10
32.50362650366998
20
6.045876900326555
40
0.15
50
-42.000000000000334
51
40.56859202882719
0
ARC
8
0
10
33.35009985488599
20
6.824166237977248
40
1
50
-156.37698324006274
51
-137.09884377611863
0
ARC
8
0
10
32.950510385080264
20
6.626270890215423
40
0.555
50
138.00000000000045
51
-158.56505117707803
0
ARC
8
0
10
32.950510385080264
20
6.626270890215422
40
0.555
50
74.56505117707816
51
138.0000000000004
0
ARC
8
0
10
32.79546760195635
20
6.208184716745664
40
1
50
53.09884377611882
51
72.37698324006324
0
ARC
8
0
10
33.481012830581996
20
7.131374386817975
40
0.15
50
-124.56859202882656
51
-42.00000000000059
0
ARC
8
0
10
19.110567156821155
20
19.088896828517814
40
18.84459317102744
50
-39.781343837617634
51
-38.21865616238152
0
ARC
8
0
10
33.794572701727034
20
7.518588580098481
40
0.15
50
-35.99999999999901
51
46.56859202882978
0
ARC
8
0
10
34.55505559491488
20
8.381094925923401
40
1
50
-150.3769832400627
51
-131.0988437761185
0
ARC
8
0
10
34.17834081462385
20
8.142515196366015
40
0.555
50
143.99999999999991
51
-152.5650511770784
0
ARC
8
0
10
34.17834081462385
20
8.142515196366015
40
0.555
50
80.56505117707829
51
143.99999999999991
0
ARC
8
0
10
34.06784927731451
20
7.710512958838923
40
1
50
59.098843776118194
51
78.37698324006212
0
ARC
8
0
10
34.65313941993075
20
8.700304288552354
40
0.15
50
-118.56859202882966
51
-35.99999999999929
0
ARC
8
0
10
19.111515105856064
20
19.09020156843099
40
18.84459317102744
50
-33.781343837618245
51
-32.21865616238211
0
ARC
8
0
10
34.924506672714315
20
9.11817321344038
40
0.15
50
-29.999999999998636
51
52.56859202882695
0
ARC
8
0
10
35.590667098154974
20
10.055446767423604
40
1
50
-144.3769832400629
51
-125.09884377611868
0
ARC
8
0
10
35.24095437334414
20
9.778796585513712
40
0.555
50
149.99999999999966
51
-146.56505117707832
0
ARC
8
0
10
35.240954373344145
20
9.778796585513714
40
0.555
50
86.56505117707859
51
150.00000000000017
0
ARC
8
0
10
35.17622465025401
20
9.337611390845908
40
1
50
65.09884377611878
51
84.37698324006281
0
ARC
8
0
10
35.65484714557847
20
10.383160019264977
40
0.15
50
-112.56859202882717
51
-29.99999999999922
0
ARC
8
0
10
19.11232147946869
20
19.09159824849793
40
18.84459317102744
50
-27.781343837617595
51
-26.21865616238142
0
ARC
8
0
10
35.881048623591816
20
10.827105416374769
40
0.15
50
-24.00000000000011
51
58.5685920288258
0
ARC
8
0
10
36.44558798826111
20
11.828877213321764
40
1
50
-138.37698324006232
51
-119.09884377611803
0
ARC
8
0
10
36.1267088447256
20
11.517187616345133
40
0.555
50
155.99999999999986
51
-140.56505117707826
0
ARC
8
0
10
36.1267088447256
20
11.517187616345133
40
0.555
50
92.56505117707815
51
155.99999999999986
0
ARC
8
0
10
36.1084501282464
20
11.071653181853332
40
1
50
71.0988437761188
51
90.37698324006296
0
ARC
8
0
10
36.47516108806214
20
12.161503859409962
40
0.15
50
-106.56859202882782
51
-23.99999999999949
0
ARC
8
0
10
19.112977442861357
20
19.09307156640017
40
18.84459317102744
50
-21.7813438376179
51
-20.218656162381784
0
ARC
8
0
10
36.65371848057644
20
12.6266617700692
40
0.15
50
-18.000000000001087
51
64.56859202882593
0
ARC
8
0
10
37.11045157305761
20
13.681956188538381
40
1
50
-132.37698324006303
51
-113.09884377611876
0
ARC
8
0
10
36.82589971742373
20
13.338642112944743
40
0.555
50
162.00000000000009
51
-134.5650511770781
0
ARC
8
0
10
36.82589971742373
20
13.338642112944743
40
0.555
50
98.56505117707803
51
162.00000000000009
0
ARC
8
0
10
36.8543120538741
20
12.893639807127316
40
1
50
77.09884377611866
51
96.37698324006267
0
ARC
8
0
10
37.10509371616615
20
14.015851901732278
40
0.15
50
-100.5685920288264
51
-18.000000000001087
0
ARC
8
0
10
19.113475809161745
20
19.094605380158395
40
18.84459317102744
50
-15.781343837618929
51
-14.218656162382791
0
ARC
8
0
10
37.23405071102349
20
14.497125958531248
40
0.15
50
-12.000000000000226
51
70.56859202882741
0
ARC
8
0
10
37.57797346797776
20
15.594380972039318
40
1
50
-126.37698324006287
51
-107.09884377611884
0
ARC
8
0
10
37.33086650992216
20
15.223203838683961
40
0.555
50
168.00000000000045
51
-128.56505117707795
0
ARC
8
0
10
37.33086650992216
20
15.223203838683958
40
0.555
50
104.56505117707854
51
168.00000000000009
0
ARC
8
0
10
37.405638607798274
20
14.783609199926158
40
1
50
83.09884377611856
51
102.37698324006277
0
ARC
8
0
10
37.53774335619515
20
15.92588752103298
40
0.15
50
-94.5685920288283
51
-12.000000000000226
0
ARC
8
0
10
19.113811118164197
20
19.09618288498738
40
18.84459317102744
50
-9.78134383761834
51
-8.21865616238216
0
ARC
8
0
10
37.61568707357388
20
16.418004784692336
40
0.15
50
-5.999999999999213
51
76.56859202882886
0
ARC
8
0
10
37.84303140530559
20
17.54519863769593
40
1
50
-120.37698324006267
51
-101.09884377611851
0
ARC
8
0
10
37.63607670037118
20
17.1502251409257
40
0.555
50
174.00000000000009
51
-122.56505117707839
0
ARC
8
0
10
37.63607670037118
20
17.150225140925695
40
0.555
50
110.56505117707778
51
173.99999999999974
0
ARC
8
0
10
37.75638934092165
20
16.720854460080847
40
1
50
89.09884377611871
51
108.37698324006276
0
ARC
8
0
10
37.76836980815521
20
17.87068396736638
40
0.15
50
-88.56859202882795
51
-5.999999999999213
0
ARC
8
0
10
19.113979696153297
20
19.09778679741455
40
18.84459317102744
50
-3.781343837617565
51
-2.2186561623814356
0
ENDSEC
0
EOF